<?xml version="1.0" standalone="yes"?>

<svg version="1.1" viewBox="0.0 0.0 961.5800524934383 487.1049868766404" fill="none" stroke="none" stroke-linecap="square" stroke-miterlimit="10" xmlns="http://www.w3.org/2000/svg" xmlns:xlink="http://www.w3.org/1999/xlink"><clipPath id="p.0"><path d="m0 0l961.5801 0l0 487.10498l-961.5801 0l0 -487.10498z" clip-rule="nonzero"></path></clipPath><g clip-path="url(#p.0)"><path fill="#000000" fill-opacity="0.0" d="m0 0l961.5801 0l0 487.10498l-961.5801 0z" fill-rule="nonzero"></path><path stroke="#000000" stroke-width="1.0" stroke-linecap="butt" d="m13.846741 154.86526l0 118.59317" fill-rule="nonzero"></path><path stroke="#000000" stroke-width="1.0" stroke-linecap="butt" d="m166.55803 154.86526l0 118.59317" fill-rule="nonzero"></path><path stroke="#000000" stroke-width="1.0" stroke-linecap="butt" d="m319.26932 154.86526l0 118.59317" fill-rule="nonzero"></path><path stroke="#000000" stroke-width="1.0" stroke-linecap="butt" d="m13.348053 155.36395l306.41995 0" fill-rule="nonzero"></path><path stroke="#000000" stroke-width="1.0" stroke-linecap="butt" d="m13.348053 194.50569l306.41995 0" fill-rule="nonzero"></path><path stroke="#000000" stroke-width="1.0" stroke-linecap="butt" d="m13.348053 233.81802l306.41995 0" fill-rule="nonzero"></path><path stroke="#000000" stroke-width="1.0" stroke-linecap="butt" d="m13.348053 272.95975l306.41995 0" fill-rule="nonzero"></path><path fill="#ff8c00" d="m28.34674 181.00395l-1.390625 0l0 -12.171875l1.5 0l0 4.34375q0.9375 -1.1875 2.40625 -1.1875q0.8125 0 1.53125 0.328125q0.734375 0.328125 1.203125 0.921875q0.46875 0.59375 0.734375 1.4375q0.265625 0.828125 0.265625 1.78125q0 2.265625 -1.125 3.515625q-1.109375 1.234375 -2.671875 1.234375q-1.5625 0 -2.453125 -1.3125l0 1.109375zm-0.015625 -4.46875q0 1.578125 0.421875 2.28125q0.71875 1.15625 1.921875 1.15625q0.96875 0 1.6875 -0.84375q0.71875 -0.859375 0.71875 -2.546875q0 -1.71875 -0.6875 -2.53125q-0.6875 -0.828125 -1.65625 -0.828125q-0.984375 0 -1.703125 0.859375q-0.703125 0.84375 -0.703125 2.453125zm7.71521 0.0625q0 -2.453125 1.359375 -3.625q1.140625 -0.984375 2.78125 -0.984375q1.8125 0 2.96875 1.203125q1.15625 1.1875 1.15625 3.28125q0 1.703125 -0.515625 2.6875q-0.515625 0.96875 -1.484375 1.515625q-0.96875 0.53125 -2.125 0.53125q-1.859375 0 -3.0 -1.1875q-1.140625 -1.1875 -1.140625 -3.421875zm1.53125 0q0 1.6875 0.734375 2.53125q0.75 0.84375 1.875 0.84375q1.109375 0 1.84375 -0.84375q0.734375 -0.84375 0.734375 -2.578125q0 -1.640625 -0.75 -2.484375q-0.734375 -0.84375 -1.828125 -0.84375q-1.125 0 -1.875 0.84375q-0.734375 0.84375 -0.734375 2.53125zm8.105835 0q0 -2.453125 1.359375 -3.625q1.140625 -0.984375 2.78125 -0.984375q1.8125 0 2.96875 1.203125q1.15625 1.1875 1.15625 3.28125q0 1.703125 -0.515625 2.6875q-0.515625 0.96875 -1.484375 1.515625q-0.96875 0.53125 -2.125 0.53125q-1.859375 0 -3.0 -1.1875q-1.140625 -1.1875 -1.140625 -3.421875zm1.53125 0q0 1.6875 0.734375 2.53125q0.75 0.84375 1.875 0.84375q1.109375 0 1.84375 -0.84375q0.734375 -0.84375 0.734375 -2.578125q0 -1.640625 -0.75 -2.484375q-0.734375 -0.84375 -1.828125 -0.84375q-1.125 0 -1.875 0.84375q-0.734375 0.84375 -0.734375 2.53125zm8.668335 4.40625l0 -12.171875l1.5 0l0 6.9375l3.53125 -3.578125l1.9375 0l-3.375 3.265625l3.71875 5.546875l-1.84375 0l-2.921875 -4.5l-1.046875 1.0l0 3.5l-1.5 0z" fill-rule="nonzero"></path><path fill="#ff8c00" d="m179.4174 181.20708l0.71875 -3.53125l-1.40625 0l0 -1.234375l1.65625 0l0.609375 -3.015625l-2.265625 0l0 -1.234375l2.515625 0l0.71875 -3.5625l1.25 0l-0.71875 3.5625l2.609375 0l0.71875 -3.5625l1.265625 0l-0.734375 3.5625l1.4375 0l0 1.234375l-1.6875 0l-0.609375 3.015625l2.296875 0l0 1.234375l-2.546875 0l-0.734375 3.53125l-1.234375 0l0.703125 -3.53125l-2.59375 0l-0.734375 3.53125l-1.234375 0zm2.21875 -4.765625l2.59375 0l0.625 -3.015625l-2.609375 0l-0.609375 3.015625zm12.887085 4.5625l-1.484375 0l0 -9.515625q-0.546875 0.515625 -1.421875 1.03125q-0.875 0.5 -1.578125 0.765625l0 -1.453125q1.265625 -0.578125 2.203125 -1.421875q0.9375 -0.84375 1.328125 -1.625l0.953125 0l0 12.21875z" fill-rule="nonzero"></path><path fill="#ff8c00" d="m26.97174 209.69257l0 -1.71875l1.5 0l0 1.71875l-1.5 0zm0 10.453125l0 -8.8125l1.5 0l0 8.8125l-1.5 0zm3.849762 0l0 -8.8125l1.34375 0l0 1.25q0.96875 -1.453125 2.796875 -1.453125q0.796875 0 1.46875 0.296875q0.671875 0.28125 1.0 0.75q0.328125 0.453125 0.46875 1.09375q0.078125 0.421875 0.078125 1.453125l0 5.421875l-1.484375 0l0 -5.359375q0 -0.921875 -0.1875 -1.375q-0.171875 -0.453125 -0.625 -0.71875q-0.4375 -0.265625 -1.03125 -0.265625q-0.953125 0 -1.65625 0.609375q-0.6875 0.59375 -0.6875 2.296875l0 4.8125l-1.484375 0zm9.99646 0l0 -7.65625l-1.328125 0l0 -1.15625l1.328125 0l0 -0.9375q0 -0.890625 0.15625 -1.328125q0.203125 -0.578125 0.75 -0.9375q0.546875 -0.359375 1.53125 -0.359375q0.625 0 1.390625 0.140625l-0.21875 1.3125q-0.46875 -0.078125 -0.890625 -0.078125q-0.671875 0 -0.953125 0.296875q-0.28125 0.28125 -0.28125 1.078125l0 0.8125l1.71875 0l0 1.15625l-1.71875 0l0 7.65625l-1.484375 0zm3.8924408 -4.40625q0 -2.453125 1.359375 -3.625q1.140625 -0.984375 2.78125 -0.984375q1.8125 0 2.96875 1.203125q1.15625 1.1875 1.15625 3.28125q0 1.703125 -0.515625 2.6875q-0.515625 0.96875 -1.484375 1.515625q-0.96875 0.53125 -2.125 0.53125q-1.859375 0 -3.0 -1.1875q-1.140625 -1.1875 -1.140625 -3.421875zm1.53125 0q0 1.6875 0.734375 2.53125q0.75 0.84375 1.875 0.84375q1.109375 0 1.84375 -0.84375q0.734375 -0.84375 0.734375 -2.578125q0 -1.640625 -0.75 -2.484375q-0.734375 -0.84375 -1.828125 -0.84375q-1.125 0 -1.875 0.84375q-0.734375 0.84375 -0.734375 2.53125zm8.65271 4.40625l0 -8.8125l1.34375 0l0 1.328125q0.515625 -0.9375 0.9375 -1.234375q0.4375 -0.296875 0.96875 -0.296875q0.75 0 1.53125 0.484375l-0.515625 1.390625q-0.546875 -0.328125 -1.09375 -0.328125q-0.484375 0 -0.875 0.296875q-0.390625 0.296875 -0.5625 0.8125q-0.25 0.796875 -0.25 1.75l0 4.609375l-1.484375 0zm5.786026 0l0 -8.8125l1.328125 0l0 1.234375q0.421875 -0.640625 1.109375 -1.03125q0.6875 -0.40625 1.5625 -0.40625q0.984375 0 1.609375 0.40625q0.625 0.40625 0.890625 1.140625q1.046875 -1.546875 2.71875 -1.546875q1.3125 0 2.015625 0.734375q0.703125 0.71875 0.703125 2.234375l0 6.046875l-1.484375 0l0 -5.546875q0 -0.90625 -0.140625 -1.296875q-0.140625 -0.390625 -0.53125 -0.625q-0.375 -0.25 -0.890625 -0.25q-0.9375 0 -1.546875 0.625q-0.609375 0.609375 -0.609375 1.96875l0 5.125l-1.5 0l0 -5.734375q0 -0.984375 -0.375 -1.484375q-0.359375 -0.5 -1.1875 -0.5q-0.625 0 -1.171875 0.328125q-0.53125 0.328125 -0.78125 0.96875q-0.234375 0.640625 -0.234375 1.84375l0 4.578125l-1.484375 0zm20.184464 -1.09375q-0.828125 0.71875 -1.609375 1.015625q-0.765625 0.28125 -1.640625 0.28125q-1.453125 0 -2.234375 -0.703125q-0.78125 -0.71875 -0.78125 -1.828125q0 -0.640625 0.296875 -1.171875q0.296875 -0.546875 0.765625 -0.859375q0.484375 -0.328125 1.078125 -0.5q0.453125 -0.109375 1.328125 -0.21875q1.8125 -0.21875 2.671875 -0.515625q0 -0.3125 0 -0.390625q0 -0.90625 -0.421875 -1.28125q-0.5625 -0.515625 -1.703125 -0.515625q-1.046875 0 -1.546875 0.375q-0.5 0.359375 -0.75 1.3125l-1.453125 -0.203125q0.203125 -0.9375 0.65625 -1.515625q0.453125 -0.578125 1.3125 -0.890625q0.859375 -0.3125 2.0 -0.3125q1.140625 0 1.84375 0.265625q0.703125 0.265625 1.03125 0.671875q0.328125 0.40625 0.46875 1.015625q0.078125 0.375 0.078125 1.375l0 2.0q0 2.078125 0.09375 2.640625q0.09375 0.546875 0.375 1.046875l-1.5625 0q-0.234375 -0.46875 -0.296875 -1.09375zm-0.125 -3.328125q-0.8125 0.328125 -2.4375 0.5625q-0.921875 0.125 -1.3125 0.296875q-0.375 0.171875 -0.59375 0.5q-0.203125 0.3125 -0.203125 0.703125q0 0.59375 0.453125 1.0q0.453125 0.390625 1.328125 0.390625q0.859375 0 1.53125 -0.375q0.671875 -0.390625 1.0 -1.03125q0.234375 -0.515625 0.234375 -1.5l0 -0.546875zm7.27771 3.078125l0.203125 1.328125q-0.625 0.125 -1.125 0.125q-0.8125 0 -1.265625 -0.25q-0.4375 -0.265625 -0.625 -0.671875q-0.1875 -0.421875 -0.1875 -1.765625l0 -5.078125l-1.09375 0l0 -1.15625l1.09375 0l0 -2.1875l1.484375 -0.890625l0 3.078125l1.515625 0l0 1.15625l-1.515625 0l0 5.15625q0 0.640625 0.078125 0.828125q0.078125 0.171875 0.25 0.28125q0.1875 0.109375 0.53125 0.109375q0.234375 0 0.65625 -0.0625zm1.5486908 -9.109375l0 -1.71875l1.5 0l0 1.71875l-1.5 0zm0 10.453125l0 -8.8125l1.5 0l0 8.8125l-1.5 0zm3.287262 -4.40625q0 -2.453125 1.359375 -3.625q1.140625 -0.984375 2.78125 -0.984375q1.8125 0 2.96875 1.203125q1.15625 1.1875 1.15625 3.28125q0 1.703125 -0.515625 2.6875q-0.515625 0.96875 -1.484375 1.515625q-0.96875 0.53125 -2.125 0.53125q-1.859375 0 -3.0 -1.1875q-1.140625 -1.1875 -1.140625 -3.421875zm1.53125 0q0 1.6875 0.734375 2.53125q0.75 0.84375 1.875 0.84375q1.109375 0 1.84375 -0.84375q0.734375 -0.84375 0.734375 -2.578125q0 -1.640625 -0.75 -2.484375q-0.734375 -0.84375 -1.828125 -0.84375q-1.125 0 -1.875 0.84375q-0.734375 0.84375 -0.734375 2.53125zm8.668335 4.40625l0 -8.8125l1.34375 0l0 1.25q0.96875 -1.453125 2.796875 -1.453125q0.796875 0 1.46875 0.296875q0.671875 0.28125 1.0 0.75q0.328125 0.453125 0.46875 1.09375q0.078125 0.421875 0.078125 1.453125l0 5.421875l-1.484375 0l0 -5.359375q0 -0.921875 -0.1875 -1.375q-0.171875 -0.453125 -0.625 -0.71875q-0.4375 -0.265625 -1.03125 -0.265625q-0.953125 0 -1.65625 0.609375q-0.6875 0.59375 -0.6875 2.296875l0 4.8125l-1.484375 0z" fill-rule="nonzero"></path><path fill="#ff8c00" d="m179.4174 220.34882l0.71875 -3.53125l-1.40625 0l0 -1.234375l1.65625 0l0.609375 -3.015625l-2.265625 0l0 -1.234375l2.515625 0l0.71875 -3.5625l1.25 0l-0.71875 3.5625l2.609375 0l0.71875 -3.5625l1.265625 0l-0.734375 3.5625l1.4375 0l0 1.234375l-1.6875 0l-0.609375 3.015625l2.296875 0l0 1.234375l-2.546875 0l-0.734375 3.53125l-1.234375 0l0.703125 -3.53125l-2.59375 0l-0.734375 3.53125l-1.234375 0zm2.21875 -4.765625l2.59375 0l0.625 -3.015625l-2.609375 0l-0.609375 3.015625zm12.887085 4.5625l-1.484375 0l0 -9.515625q-0.546875 0.515625 -1.421875 1.03125q-0.875 0.5 -1.578125 0.765625l0 -1.453125q1.265625 -0.578125 2.203125 -1.421875q0.9375 -0.84375 1.328125 -1.625l0.953125 0l0 12.21875z" fill-rule="nonzero"></path><path fill="#000000" d="m26.956116 259.45804l0 -8.812515l1.34375 0l0 1.328125q0.515625 -0.9375 0.9375 -1.234375q0.4375 -0.296875 0.96875 -0.296875q0.75 0 1.53125 0.484375l-0.515625 1.390625q-0.546875 -0.328125 -1.09375 -0.328125q-0.484375 0 -0.875 0.296875q-0.390625 0.296875 -0.5625 0.8125q-0.25 0.796875 -0.25 1.75l0 4.6093903l-1.484375 0zm11.817276 -2.84375l1.546875 0.203125q-0.375 1.34375 -1.359375 2.09375q-0.984375 0.75 -2.515625 0.75q-1.9375 0 -3.078125 -1.1875q-1.125 -1.203125 -1.125 -3.3437653q0 -2.234375 1.140625 -3.453125q1.140625 -1.234375 2.96875 -1.234375q1.78125 0 2.890625 1.203125q1.125 1.203125 1.125 3.390625q0 0.125 -0.015625 0.390625l-6.5625 0q0.078125 1.4531403 0.8125 2.2343903q0.75 0.765625 1.84375 0.765625q0.828125 0 1.40625 -0.421875q0.578125 -0.4375 0.921875 -1.390625zm-4.90625 -2.4062653l4.921875 0q-0.09375 -1.109375 -0.5625 -1.671875q-0.71875 -0.859375 -1.859375 -0.859375q-1.015625 0 -1.71875 0.6875q-0.703125 0.6875 -0.78125 1.84375zm11.77771 3.9062653l0.203125 1.328125q-0.625 0.125 -1.125 0.125q-0.8125 0 -1.265625 -0.25q-0.4375 -0.265625 -0.625 -0.671875q-0.1875 -0.421875 -0.1875 -1.765625l0 -5.0781403l-1.09375 0l0 -1.15625l1.09375 0l0 -2.1875l1.484375 -0.890625l0 3.078125l1.515625 0l0 1.15625l-1.515625 0l0 5.1562653q0 0.640625 0.078125 0.828125q0.078125 0.171875 0.25 0.28125q0.1875 0.109375 0.53125 0.109375q0.234375 0 0.65625 -0.0625zm1.5330658 1.34375l0 -8.812515l1.34375 0l0 1.328125q0.515625 -0.9375 0.9375 -1.234375q0.4375 -0.296875 0.96875 -0.296875q0.75 0 1.53125 0.484375l-0.515625 1.390625q-0.546875 -0.328125 -1.09375 -0.328125q-0.484375 0 -0.875 0.296875q-0.390625 0.296875 -0.5625 0.8125q-0.25 0.796875 -0.25 1.75l0 4.6093903l-1.484375 0zm5.786026 -10.45314l0 -1.71875l1.5 0l0 1.71875l-1.5 0zm0 10.45314l0 -8.812515l1.5 0l0 8.812515l-1.5 0zm9.881012 -2.84375l1.546875 0.203125q-0.375 1.34375 -1.359375 2.09375q-0.984375 0.75 -2.515625 0.75q-1.9375 0 -3.078125 -1.1875q-1.125 -1.203125 -1.125 -3.3437653q0 -2.234375 1.140625 -3.453125q1.140625 -1.234375 2.96875 -1.234375q1.78125 0 2.890625 1.203125q1.125 1.203125 1.125 3.390625q0 0.125 -0.015625 0.390625l-6.5625 0q0.078125 1.4531403 0.8125 2.2343903q0.75 0.765625 1.84375 0.765625q0.828125 0 1.40625 -0.421875q0.578125 -0.4375 0.921875 -1.390625zm-4.90625 -2.4062653l4.921875 0q-0.09375 -1.109375 -0.5625 -1.671875q-0.71875 -0.859375 -1.859375 -0.859375q-1.015625 0 -1.71875 0.6875q-0.703125 0.6875 -0.78125 1.84375zm10.949585 5.2500153l-3.34375 -8.812515l1.578125 0l1.890625 5.28125q0.3125 0.84376526 0.5625 1.7656403q0.203125 -0.6875 0.5625 -1.671875l1.953125 -5.3750153l1.53125 0l-3.328125 8.812515l-1.40625 0zm11.9765625 -1.09375q-0.828125 0.71875 -1.609375 1.015625q-0.765625 0.28125 -1.640625 0.28125q-1.453125 0 -2.234375 -0.703125q-0.78125 -0.71875 -0.78125 -1.828125q0 -0.640625 0.296875 -1.1718903q0.296875 -0.546875 0.765625 -0.859375q0.484375 -0.328125 1.078125 -0.5q0.453125 -0.109375 1.328125 -0.21875q1.8125 -0.21875 2.671875 -0.515625q0 -0.3125 0 -0.390625q0 -0.90625 -0.421875 -1.28125q-0.5625 -0.515625 -1.703125 -0.515625q-1.046875 0 -1.546875 0.375q-0.5 0.359375 -0.75 1.3125l-1.453125 -0.203125q0.203125 -0.9375 0.65625 -1.515625q0.453125 -0.578125 1.3125 -0.890625q0.859375 -0.3125 2.0 -0.3125q1.140625 0 1.84375 0.265625q0.703125 0.265625 1.03125 0.671875q0.328125 0.40625 0.46875 1.015625q0.078125 0.375 0.078125 1.375l0 2.0q0 2.0781403 0.09375 2.6406403q0.09375 0.546875 0.375 1.046875l-1.5625 0q-0.234375 -0.46875 -0.296875 -1.09375zm-0.125 -3.3281403q-0.8125 0.328125 -2.4375 0.5625q-0.921875 0.125 -1.3125 0.296875q-0.375 0.17189026 -0.59375 0.50001526q-0.203125 0.3125 -0.203125 0.703125q0 0.59375 0.453125 1.0q0.453125 0.390625 1.328125 0.390625q0.859375 0 1.53125 -0.375q0.671875 -0.390625 1.0 -1.03125q0.234375 -0.515625 0.234375 -1.5000153l0 -0.546875zm3.980835 4.4218903l0 -12.17189l1.484375 0l0 12.17189l-1.484375 0z" fill-rule="nonzero"></path><path fill="#000000" d="m179.4174 259.66116l0.71875 -3.53125l-1.40625 0l0 -1.2343903l1.65625 0l0.609375 -3.015625l-2.265625 0l0 -1.234375l2.515625 0l0.71875 -3.5625l1.25 0l-0.71875 3.5625l2.609375 0l0.71875 -3.5625l1.265625 0l-0.734375 3.5625l1.4375 0l0 1.234375l-1.6875 0l-0.609375 3.015625l2.296875 0l0 1.2343903l-2.546875 0l-0.734375 3.53125l-1.234375 0l0.703125 -3.53125l-2.59375 0l-0.734375 3.53125l-1.234375 0zm2.21875 -4.7656403l2.59375 0l0.625 -3.015625l-2.609375 0l-0.609375 3.015625zm12.887085 4.5625153l-1.484375 0l0 -9.51564q-0.546875 0.515625 -1.421875 1.03125q-0.875 0.5 -1.578125 0.765625l0 -1.453125q1.265625 -0.578125 2.203125 -1.421875q0.9375 -0.84375 1.328125 -1.625l0.953125 0l0 12.218765zm4.824585 0l0 -1.703125l1.703125 0l0 1.703125q0 0.9375 -0.34375 1.515625q-0.328125 0.578125 -1.046875 0.890625l-0.421875 -0.640625q0.484375 -0.203125 0.703125 -0.609375q0.21875 -0.40625 0.25 -1.15625l-0.84375 0zm8.972382 0.203125l0.71875 -3.53125l-1.40625 0l0 -1.2343903l1.65625 0l0.609375 -3.015625l-2.265625 0l0 -1.234375l2.515625 0l0.71875 -3.5625l1.25 0l-0.71875 3.5625l2.609375 0l0.71875 -3.5625l1.265625 0l-0.734375 3.5625l1.4375 0l0 1.234375l-1.6875 0l-0.609375 3.015625l2.296875 0l0 1.2343903l-2.546875 0l-0.734375 3.53125l-1.234375 0l0.703125 -3.53125l-2.59375 0l-0.734375 3.53125l-1.234375 0zm2.21875 -4.7656403l2.59375 0l0.625 -3.015625l-2.609375 0l-0.609375 3.015625zm12.05896 4.5625153l0 -2.90625l-5.28125 0l0 -1.3750153l5.546875 -7.890625l1.21875 0l0 7.890625l1.65625 0l0 1.3750153l-1.65625 0l0 2.90625l-1.484375 0zm0 -4.2812653l0 -5.484375l-3.8125 5.484375l3.8125 0z" fill-rule="nonzero"></path><path stroke="#000000" stroke-width="1.0" stroke-linecap="butt" d="m326.955 154.86526l0 118.59317" fill-rule="nonzero"></path><path stroke="#000000" stroke-width="1.0" stroke-linecap="butt" d="m479.6663 154.86526l0 118.59317" fill-rule="nonzero"></path><path stroke="#000000" stroke-width="1.0" stroke-linecap="butt" d="m632.37756 154.86526l0 118.59317" fill-rule="nonzero"></path><path stroke="#000000" stroke-width="1.0" stroke-linecap="butt" d="m326.4563 155.36395l306.41998 0" fill-rule="nonzero"></path><path stroke="#000000" stroke-width="1.0" stroke-linecap="butt" d="m326.4563 194.50569l306.41998 0" fill-rule="nonzero"></path><path stroke="#000000" stroke-width="1.0" stroke-linecap="butt" d="m326.4563 233.81802l306.41998 0" fill-rule="nonzero"></path><path stroke="#000000" stroke-width="1.0" stroke-linecap="butt" d="m326.4563 272.95975l306.41998 0" fill-rule="nonzero"></path><path fill="#ff8c00" d="m341.455 181.00395l-1.390625 0l0 -12.171875l1.5 0l0 4.34375q0.9375 -1.1875 2.40625 -1.1875q0.8125 0 1.53125 0.328125q0.734375 0.328125 1.203125 0.921875q0.46875 0.59375 0.734375 1.4375q0.265625 0.828125 0.265625 1.78125q0 2.265625 -1.125 3.515625q-1.109375 1.234375 -2.671875 1.234375q-1.5625 0 -2.453125 -1.3125l0 1.109375zm-0.015625 -4.46875q0 1.578125 0.421875 2.28125q0.71875 1.15625 1.921875 1.15625q0.96875 0 1.6875 -0.84375q0.71875 -0.859375 0.71875 -2.546875q0 -1.71875 -0.6875 -2.53125q-0.6875 -0.828125 -1.65625 -0.828125q-0.984375 0 -1.703125 0.859375q-0.703125 0.84375 -0.703125 2.453125zm7.71521 0.0625q0 -2.453125 1.359375 -3.625q1.140625 -0.984375 2.78125 -0.984375q1.8125 0 2.96875 1.203125q1.15625 1.1875 1.15625 3.28125q0 1.703125 -0.515625 2.6875q-0.515625 0.96875 -1.484375 1.515625q-0.96875 0.53125 -2.125 0.53125q-1.859375 0 -3.0 -1.1875q-1.140625 -1.1875 -1.140625 -3.421875zm1.53125 0q0 1.6875 0.734375 2.53125q0.75 0.84375 1.875 0.84375q1.109375 0 1.84375 -0.84375q0.734375 -0.84375 0.734375 -2.578125q0 -1.640625 -0.75 -2.484375q-0.734375 -0.84375 -1.828125 -0.84375q-1.125 0 -1.875 0.84375q-0.734375 0.84375 -0.734375 2.53125zm8.105835 0q0 -2.453125 1.359375 -3.625q1.140625 -0.984375 2.78125 -0.984375q1.8125 0 2.96875 1.203125q1.15625 1.1875 1.15625 3.28125q0 1.703125 -0.515625 2.6875q-0.515625 0.96875 -1.484375 1.515625q-0.96875 0.53125 -2.125 0.53125q-1.859375 0 -3.0 -1.1875q-1.140625 -1.1875 -1.140625 -3.421875zm1.53125 0q0 1.6875 0.734375 2.53125q0.75 0.84375 1.875 0.84375q1.109375 0 1.84375 -0.84375q0.734375 -0.84375 0.734375 -2.578125q0 -1.640625 -0.75 -2.484375q-0.734375 -0.84375 -1.828125 -0.84375q-1.125 0 -1.875 0.84375q-0.734375 0.84375 -0.734375 2.53125zm8.668335 4.40625l0 -12.171875l1.5 0l0 6.9375l3.53125 -3.578125l1.9375 0l-3.375 3.265625l3.71875 5.546875l-1.84375 0l-2.921875 -4.5l-1.046875 1.0l0 3.5l-1.5 0z" fill-rule="nonzero"></path><path fill="#ff8c00" d="m492.52567 181.20708l0.71875 -3.53125l-1.40625 0l0 -1.234375l1.65625 0l0.609375 -3.015625l-2.265625 0l0 -1.234375l2.515625 0l0.71875 -3.5625l1.25 0l-0.71875 3.5625l2.609375 0l0.71875 -3.5625l1.265625 0l-0.734375 3.5625l1.4375 0l0 1.234375l-1.6875 0l-0.609375 3.015625l2.296875 0l0 1.234375l-2.546875 0l-0.734375 3.53125l-1.234375 0l0.703125 -3.53125l-2.59375 0l-0.734375 3.53125l-1.234375 0zm2.21875 -4.765625l2.59375 0l0.625 -3.015625l-2.609375 0l-0.609375 3.015625zm15.12146 3.125l0 1.4375l-8.046875 0q-0.015625 -0.546875 0.171875 -1.03125q0.3125 -0.828125 0.984375 -1.625q0.671875 -0.796875 1.953125 -1.84375q1.984375 -1.625 2.671875 -2.578125q0.703125 -0.953125 0.703125 -1.796875q0 -0.890625 -0.640625 -1.5q-0.625 -0.609375 -1.640625 -0.609375q-1.078125 0 -1.734375 0.65625q-0.640625 0.640625 -0.65625 1.78125l-1.53125 -0.15625q0.15625 -1.71875 1.1875 -2.609375q1.03125 -0.90625 2.765625 -0.90625q1.75 0 2.765625 0.96875q1.03125 0.96875 1.03125 2.40625q0 0.734375 -0.3125 1.4375q-0.296875 0.703125 -0.984375 1.484375q-0.6875 0.78125 -2.296875 2.140625q-1.34375 1.140625 -1.734375 1.546875q-0.375 0.390625 -0.625 0.796875l5.96875 0z" fill-rule="nonzero"></path><path fill="#000000" d="m339.4706 217.52069l1.484375 -0.234375q0.125 0.890625 0.6875 1.359375q0.578125 0.46875 1.59375 0.46875q1.03125 0 1.53125 -0.421875q0.5 -0.421875 0.5 -0.984375q0 -0.5 -0.4375 -0.796875q-0.3125 -0.1875 -1.53125 -0.5q-1.640625 -0.421875 -2.28125 -0.71875q-0.640625 -0.296875 -0.96875 -0.828125q-0.328125 -0.546875 -0.328125 -1.1875q0 -0.59375 0.265625 -1.09375q0.28125 -0.5 0.75 -0.84375q0.34375 -0.25 0.9375 -0.421875q0.609375 -0.1875 1.296875 -0.1875q1.046875 0 1.828125 0.296875q0.78125 0.296875 1.15625 0.8125q0.375 0.515625 0.515625 1.359375l-1.46875 0.203125q-0.09375 -0.671875 -0.578125 -1.046875q-0.46875 -0.390625 -1.34375 -0.390625q-1.03125 0 -1.46875 0.34375q-0.4375 0.328125 -0.4375 0.78125q0 0.296875 0.1875 0.53125q0.171875 0.234375 0.5625 0.390625q0.234375 0.09375 1.328125 0.390625q1.578125 0.421875 2.203125 0.6875q0.625 0.265625 0.984375 0.78125q0.359375 0.515625 0.359375 1.28125q0 0.75 -0.4375 1.421875q-0.4375 0.65625 -1.265625 1.015625q-0.8125 0.359375 -1.84375 0.359375q-1.71875 0 -2.625 -0.71875q-0.90625 -0.71875 -1.15625 -2.109375zm15.3046875 -0.21875l1.546875 0.203125q-0.375 1.34375 -1.359375 2.09375q-0.984375 0.75 -2.515625 0.75q-1.9375 0 -3.078125 -1.1875q-1.125 -1.203125 -1.125 -3.34375q0 -2.234375 1.140625 -3.453125q1.140625 -1.234375 2.96875 -1.234375q1.78125 0 2.890625 1.203125q1.125 1.203125 1.125 3.390625q0 0.125 -0.015625 0.390625l-6.5625 0q0.078125 1.453125 0.8125 2.234375q0.75 0.765625 1.84375 0.765625q0.828125 0 1.40625 -0.421875q0.578125 -0.4375 0.921875 -1.390625zm-4.90625 -2.40625l4.921875 0q-0.09375 -1.109375 -0.5625 -1.671875q-0.71875 -0.859375 -1.859375 -0.859375q-1.015625 0 -1.71875 0.6875q-0.703125 0.6875 -0.78125 1.84375zm14.262085 4.15625q-0.828125 0.71875 -1.609375 1.015625q-0.765625 0.28125 -1.640625 0.28125q-1.453125 0 -2.234375 -0.703125q-0.78125 -0.71875 -0.78125 -1.828125q0 -0.640625 0.296875 -1.171875q0.296875 -0.546875 0.765625 -0.859375q0.484375 -0.328125 1.078125 -0.5q0.453125 -0.109375 1.328125 -0.21875q1.8125 -0.21875 2.671875 -0.515625q0 -0.3125 0 -0.390625q0 -0.90625 -0.421875 -1.28125q-0.5625 -0.515625 -1.703125 -0.515625q-1.046875 0 -1.546875 0.375q-0.5 0.359375 -0.75 1.3125l-1.453125 -0.203125q0.203125 -0.9375 0.65625 -1.515625q0.453125 -0.578125 1.3125 -0.890625q0.859375 -0.3125 2.0 -0.3125q1.140625 0 1.84375 0.265625q0.703125 0.265625 1.03125 0.671875q0.328125 0.40625 0.46875 1.015625q0.078125 0.375 0.078125 1.375l0 2.0q0 2.078125 0.09375 2.640625q0.09375 0.546875 0.375 1.046875l-1.5625 0q-0.234375 -0.46875 -0.296875 -1.09375zm-0.125 -3.328125q-0.8125 0.328125 -2.4375 0.5625q-0.921875 0.125 -1.3125 0.296875q-0.375 0.171875 -0.59375 0.5q-0.203125 0.3125 -0.203125 0.703125q0 0.59375 0.453125 1.0q0.453125 0.390625 1.328125 0.390625q0.859375 0 1.53125 -0.375q0.671875 -0.390625 1.0 -1.03125q0.234375 -0.515625 0.234375 -1.5l0 -0.546875zm3.99646 4.421875l0 -8.8125l1.34375 0l0 1.328125q0.515625 -0.9375 0.9375 -1.234375q0.4375 -0.296875 0.96875 -0.296875q0.75 0 1.53125 0.484375l-0.515625 1.390625q-0.546875 -0.328125 -1.09375 -0.328125q-0.484375 0 -0.875 0.296875q-0.390625 0.296875 -0.5625 0.8125q-0.25 0.796875 -0.25 1.75l0 4.609375l-1.484375 0zm11.536041 -3.234375l1.46875 0.203125q-0.234375 1.515625 -1.234375 2.375q-0.984375 0.859375 -2.4375 0.859375q-1.8125 0 -2.90625 -1.1875q-1.09375 -1.1875 -1.09375 -3.390625q0 -1.421875 0.46875 -2.484375q0.46875 -1.078125 1.4375 -1.609375q0.96875 -0.546875 2.109375 -0.546875q1.4375 0 2.34375 0.734375q0.90625 0.71875 1.171875 2.0625l-1.453125 0.21875q-0.203125 -0.890625 -0.734375 -1.328125q-0.53125 -0.453125 -1.28125 -0.453125q-1.125 0 -1.828125 0.8125q-0.703125 0.796875 -0.703125 2.546875q0 1.78125 0.671875 2.59375q0.6875 0.796875 1.78125 0.796875q0.875 0 1.46875 -0.53125q0.59375 -0.546875 0.75 -1.671875zm2.9140625 3.234375l0 -12.171875l1.484375 0l0 4.375q1.046875 -1.21875 2.640625 -1.21875q0.984375 0 1.703125 0.390625q0.71875 0.375 1.03125 1.0625q0.3125 0.6875 0.3125 1.96875l0 5.59375l-1.484375 0l0 -5.59375q0 -1.109375 -0.5 -1.625q-0.484375 -0.515625 -1.359375 -0.515625q-0.671875 0 -1.265625 0.34375q-0.578125 0.34375 -0.828125 0.9375q-0.25 0.59375 -0.25 1.625l0 4.828125l-1.484375 0z" fill-rule="nonzero"></path><path fill="#000000" d="m492.52567 220.34882l0.71875 -3.53125l-1.40625 0l0 -1.234375l1.65625 0l0.609375 -3.015625l-2.265625 0l0 -1.234375l2.515625 0l0.71875 -3.5625l1.25 0l-0.71875 3.5625l2.609375 0l0.71875 -3.5625l1.265625 0l-0.734375 3.5625l1.4375 0l0 1.234375l-1.6875 0l-0.609375 3.015625l2.296875 0l0 1.234375l-2.546875 0l-0.734375 3.53125l-1.234375 0l0.703125 -3.53125l-2.59375 0l-0.734375 3.53125l-1.234375 0zm2.21875 -4.765625l2.59375 0l0.625 -3.015625l-2.609375 0l-0.609375 3.015625zm15.12146 3.125l0 1.4375l-8.046875 0q-0.015625 -0.546875 0.171875 -1.03125q0.3125 -0.828125 0.984375 -1.625q0.671875 -0.796875 1.953125 -1.84375q1.984375 -1.625 2.671875 -2.578125q0.703125 -0.953125 0.703125 -1.796875q0 -0.890625 -0.640625 -1.5q-0.625 -0.609375 -1.640625 -0.609375q-1.078125 0 -1.734375 0.65625q-0.640625 0.640625 -0.65625 1.78125l-1.53125 -0.15625q0.15625 -1.71875 1.1875 -2.609375q1.03125 -0.90625 2.765625 -0.90625q1.75 0 2.765625 0.96875q1.03125 0.96875 1.03125 2.40625q0 0.734375 -0.3125 1.4375q-0.296875 0.703125 -0.984375 1.484375q-0.6875 0.78125 -2.296875 2.140625q-1.34375 1.140625 -1.734375 1.546875q-0.375 0.390625 -0.625 0.796875l5.96875 0zm2.5901794 1.4375l0 -1.703125l1.703125 0l0 1.703125q0 0.9375 -0.34375 1.515625q-0.328125 0.578125 -1.046875 0.890625l-0.421875 -0.640625q0.484375 -0.203125 0.703125 -0.609375q0.21875 -0.40625 0.25 -1.15625l-0.84375 0zm8.972412 0.203125l0.71875 -3.53125l-1.40625 0l0 -1.234375l1.65625 0l0.609375 -3.015625l-2.265625 0l0 -1.234375l2.515625 0l0.71875 -3.5625l1.25 0l-0.71875 3.5625l2.609375 0l0.71875 -3.5625l1.265625 0l-0.734375 3.5625l1.4375 0l0 1.234375l-1.6875 0l-0.609375 3.015625l2.296875 0l0 1.234375l-2.546875 0l-0.734375 3.53125l-1.234375 0l0.703125 -3.53125l-2.59375 0l-0.734375 3.53125l-1.234375 0zm2.21875 -4.765625l2.59375 0l0.625 -3.015625l-2.609375 0l-0.609375 3.015625zm7.262085 1.375l1.578125 -0.140625q0.171875 1.15625 0.796875 1.734375q0.640625 0.578125 1.53125 0.578125q1.078125 0 1.828125 -0.8125q0.75 -0.8125 0.75 -2.171875q0 -1.265625 -0.71875 -2.0q-0.71875 -0.75 -1.875 -0.75q-0.71875 0 -1.3125 0.328125q-0.578125 0.328125 -0.90625 0.859375l-1.40625 -0.1875l1.1875 -6.25l6.046875 0l0 1.421875l-4.859375 0l-0.65625 3.265625q1.09375 -0.75 2.296875 -0.75q1.59375 0 2.6875 1.109375q1.109375 1.09375 1.109375 2.828125q0 1.65625 -0.96875 2.859375q-1.171875 1.46875 -3.203125 1.46875q-1.65625 0 -2.703125 -0.921875q-1.046875 -0.9375 -1.203125 -2.46875z" fill-rule="nonzero"></path><path stroke="#000000" stroke-width="1.0" stroke-linecap="butt" d="m640.06323 154.86526l0 118.59317" fill-rule="nonzero"></path><path stroke="#000000" stroke-width="1.0" stroke-linecap="butt" d="m792.77454 154.86526l0 118.59317" fill-rule="nonzero"></path><path stroke="#000000" stroke-width="1.0" stroke-linecap="butt" d="m945.48584 154.86526l0 118.59317" fill-rule="nonzero"></path><path stroke="#000000" stroke-width="1.0" stroke-linecap="butt" d="m639.5646 155.36395l306.41992 0" fill-rule="nonzero"></path><path stroke="#000000" stroke-width="1.0" stroke-linecap="butt" d="m639.5646 194.50569l306.41992 0" fill-rule="nonzero"></path><path stroke="#000000" stroke-width="1.0" stroke-linecap="butt" d="m639.5646 233.81802l306.41992 0" fill-rule="nonzero"></path><path stroke="#000000" stroke-width="1.0" stroke-linecap="butt" d="m639.5646 272.95975l306.41992 0" fill-rule="nonzero"></path><path fill="#ff8c00" d="m654.56323 181.00395l-1.390625 0l0 -12.171875l1.5 0l0 4.34375q0.9375 -1.1875 2.40625 -1.1875q0.8125 0 1.53125 0.328125q0.734375 0.328125 1.203125 0.921875q0.46875 0.59375 0.734375 1.4375q0.265625 0.828125 0.265625 1.78125q0 2.265625 -1.125 3.515625q-1.109375 1.234375 -2.671875 1.234375q-1.5625 0 -2.453125 -1.3125l0 1.109375zm-0.015625 -4.46875q0 1.578125 0.421875 2.28125q0.71875 1.15625 1.921875 1.15625q0.96875 0 1.6875 -0.84375q0.71875 -0.859375 0.71875 -2.546875q0 -1.71875 -0.6875 -2.53125q-0.6875 -0.828125 -1.65625 -0.828125q-0.984375 0 -1.703125 0.859375q-0.703125 0.84375 -0.703125 2.453125zm7.71521 0.0625q0 -2.453125 1.359375 -3.625q1.140625 -0.984375 2.78125 -0.984375q1.8125 0 2.96875 1.203125q1.15625 1.1875 1.15625 3.28125q0 1.703125 -0.515625 2.6875q-0.515625 0.96875 -1.484375 1.515625q-0.96875 0.53125 -2.125 0.53125q-1.859375 0 -3.0 -1.1875q-1.140625 -1.1875 -1.140625 -3.421875zm1.53125 0q0 1.6875 0.734375 2.53125q0.75 0.84375 1.875 0.84375q1.109375 0 1.84375 -0.84375q0.734375 -0.84375 0.734375 -2.578125q0 -1.640625 -0.75 -2.484375q-0.734375 -0.84375 -1.828125 -0.84375q-1.125 0 -1.875 0.84375q-0.734375 0.84375 -0.734375 2.53125zm8.105835 0q0 -2.453125 1.359375 -3.625q1.140625 -0.984375 2.78125 -0.984375q1.8125 0 2.96875 1.203125q1.15625 1.1875 1.15625 3.28125q0 1.703125 -0.515625 2.6875q-0.515625 0.96875 -1.484375 1.515625q-0.96875 0.53125 -2.125 0.53125q-1.859375 0 -3.0 -1.1875q-1.140625 -1.1875 -1.140625 -3.421875zm1.53125 0q0 1.6875 0.734375 2.53125q0.75 0.84375 1.875 0.84375q1.109375 0 1.84375 -0.84375q0.734375 -0.84375 0.734375 -2.578125q0 -1.640625 -0.75 -2.484375q-0.734375 -0.84375 -1.828125 -0.84375q-1.125 0 -1.875 0.84375q-0.734375 0.84375 -0.734375 2.53125zm8.668335 4.40625l0 -12.171875l1.5 0l0 6.9375l3.53125 -3.578125l1.9375 0l-3.375 3.265625l3.71875 5.546875l-1.84375 0l-2.921875 -4.5l-1.046875 1.0l0 3.5l-1.5 0z" fill-rule="nonzero"></path><path fill="#ff8c00" d="m805.6339 181.20708l0.71875 -3.53125l-1.40625 0l0 -1.234375l1.65625 0l0.609375 -3.015625l-2.265625 0l0 -1.234375l2.515625 0l0.71875 -3.5625l1.25 0l-0.71875 3.5625l2.609375 0l0.71875 -3.5625l1.265625 0l-0.734375 3.5625l1.4375 0l0 1.234375l-1.6875 0l-0.609375 3.015625l2.296875 0l0 1.234375l-2.546875 0l-0.734375 3.53125l-1.234375 0l0.703125 -3.53125l-2.59375 0l-0.734375 3.53125l-1.234375 0zm2.21875 -4.765625l2.59375 0l0.625 -3.015625l-2.609375 0l-0.609375 3.015625zm7.27771 1.34375l1.484375 -0.1875q0.265625 1.265625 0.875 1.828125q0.625 0.5625 1.515625 0.5625q1.046875 0 1.765625 -0.734375q0.734375 -0.734375 0.734375 -1.8125q0 -1.03125 -0.671875 -1.6875q-0.671875 -0.671875 -1.703125 -0.671875q-0.421875 0 -1.0625 0.15625l0.171875 -1.3125q0.140625 0.015625 0.234375 0.015625q0.953125 0 1.71875 -0.484375q0.765625 -0.5 0.765625 -1.546875q0 -0.8125 -0.5625 -1.34375q-0.546875 -0.546875 -1.421875 -0.546875q-0.875 0 -1.453125 0.546875q-0.578125 0.546875 -0.75 1.640625l-1.5 -0.265625q0.28125 -1.5 1.25 -2.328125q0.96875 -0.828125 2.421875 -0.828125q0.984375 0 1.828125 0.4375q0.84375 0.421875 1.28125 1.15625q0.4375 0.734375 0.4375 1.5625q0 0.796875 -0.421875 1.453125q-0.421875 0.640625 -1.25 1.015625q1.078125 0.25 1.671875 1.046875q0.609375 0.78125 0.609375 1.953125q0 1.59375 -1.171875 2.703125q-1.15625 1.109375 -2.9375 1.109375q-1.59375 0 -2.65625 -0.953125q-1.0625 -0.953125 -1.203125 -2.484375zm10.43396 3.21875l0 -1.703125l1.703125 0l0 1.703125q0 0.9375 -0.34375 1.515625q-0.328125 0.578125 -1.046875 0.890625l-0.421875 -0.640625q0.484375 -0.203125 0.703125 -0.609375q0.21875 -0.40625 0.25 -1.15625l-0.84375 0zm8.972351 0.203125l0.71875 -3.53125l-1.40625 0l0 -1.234375l1.65625 0l0.609375 -3.015625l-2.265625 0l0 -1.234375l2.515625 0l0.71875 -3.5625l1.25 0l-0.71875 3.5625l2.609375 0l0.71875 -3.5625l1.265625 0l-0.734375 3.5625l1.4375 0l0 1.234375l-1.6875 0l-0.609375 3.015625l2.296875 0l0 1.234375l-2.546875 0l-0.734375 3.53125l-1.234375 0l0.703125 -3.53125l-2.59375 0l-0.734375 3.53125l-1.234375 0zm2.21875 -4.765625l2.59375 0l0.625 -3.015625l-2.609375 0l-0.609375 3.015625zm15.012085 -4.625l-1.484375 0.109375q-0.1875 -0.875 -0.5625 -1.265625q-0.609375 -0.640625 -1.484375 -0.640625q-0.71875 0 -1.265625 0.390625q-0.703125 0.515625 -1.109375 1.5q-0.40625 0.984375 -0.421875 2.8125q0.546875 -0.8125 1.3125 -1.203125q0.78125 -0.40625 1.640625 -0.40625q1.5 0 2.546875 1.109375q1.046875 1.09375 1.046875 2.828125q0 1.140625 -0.5 2.125q-0.484375 0.984375 -1.359375 1.515625q-0.859375 0.515625 -1.953125 0.515625q-1.859375 0 -3.046875 -1.375q-1.171875 -1.375 -1.171875 -4.515625q0 -3.53125 1.296875 -5.140625q1.140625 -1.390625 3.0625 -1.390625q1.4375 0 2.359375 0.8125q0.921875 0.796875 1.09375 2.21875zm-6.09375 5.25q0 0.765625 0.328125 1.46875q0.328125 0.703125 0.90625 1.078125q0.59375 0.375 1.25 0.375q0.9375 0 1.609375 -0.765625q0.6875 -0.765625 0.6875 -2.078125q0 -1.265625 -0.671875 -1.984375q-0.671875 -0.734375 -1.6875 -0.734375q-1.015625 0 -1.71875 0.734375q-0.703125 0.71875 -0.703125 1.90625z" fill-rule="nonzero"></path><path fill="#ff8c00" d="m653.18823 209.69257l0 -1.71875l1.5 0l0 1.71875l-1.5 0zm0 10.453125l0 -8.8125l1.5 0l0 8.8125l-1.5 0zm3.8497925 0l0 -8.8125l1.34375 0l0 1.25q0.96875 -1.453125 2.796875 -1.453125q0.796875 0 1.46875 0.296875q0.671875 0.28125 1.0 0.75q0.328125 0.453125 0.46875 1.09375q0.078125 0.421875 0.078125 1.453125l0 5.421875l-1.484375 0l0 -5.359375q0 -0.921875 -0.1875 -1.375q-0.171875 -0.453125 -0.625 -0.71875q-0.4375 -0.265625 -1.03125 -0.265625q-0.953125 0 -1.65625 0.609375q-0.6875 0.59375 -0.6875 2.296875l0 4.8125l-1.484375 0zm9.99646 0l0 -7.65625l-1.328125 0l0 -1.15625l1.328125 0l0 -0.9375q0 -0.890625 0.15625 -1.328125q0.203125 -0.578125 0.75 -0.9375q0.546875 -0.359375 1.53125 -0.359375q0.625 0 1.390625 0.140625l-0.21875 1.3125q-0.46875 -0.078125 -0.890625 -0.078125q-0.671875 0 -0.953125 0.296875q-0.28125 0.28125 -0.28125 1.078125l0 0.8125l1.71875 0l0 1.15625l-1.71875 0l0 7.65625l-1.484375 0zm3.892395 -4.40625q0 -2.453125 1.359375 -3.625q1.140625 -0.984375 2.78125 -0.984375q1.8125 0 2.96875 1.203125q1.15625 1.1875 1.15625 3.28125q0 1.703125 -0.515625 2.6875q-0.515625 0.96875 -1.484375 1.515625q-0.96875 0.53125 -2.125 0.53125q-1.859375 0 -3.0 -1.1875q-1.140625 -1.1875 -1.140625 -3.421875zm1.53125 0q0 1.6875 0.734375 2.53125q0.75 0.84375 1.875 0.84375q1.109375 0 1.84375 -0.84375q0.734375 -0.84375 0.734375 -2.578125q0 -1.640625 -0.75 -2.484375q-0.734375 -0.84375 -1.828125 -0.84375q-1.125 0 -1.875 0.84375q-0.734375 0.84375 -0.734375 2.53125zm8.65271 4.40625l0 -8.8125l1.34375 0l0 1.328125q0.515625 -0.9375 0.9375 -1.234375q0.4375 -0.296875 0.96875 -0.296875q0.75 0 1.53125 0.484375l-0.515625 1.390625q-0.546875 -0.328125 -1.09375 -0.328125q-0.484375 0 -0.875 0.296875q-0.390625 0.296875 -0.5625 0.8125q-0.25 0.796875 -0.25 1.75l0 4.609375l-1.484375 0zm5.786072 0l0 -8.8125l1.328125 0l0 1.234375q0.421875 -0.640625 1.109375 -1.03125q0.6875 -0.40625 1.5625 -0.40625q0.984375 0 1.609375 0.40625q0.625 0.40625 0.890625 1.140625q1.046875 -1.546875 2.71875 -1.546875q1.3125 0 2.015625 0.734375q0.703125 0.71875 0.703125 2.234375l0 6.046875l-1.484375 0l0 -5.546875q0 -0.90625 -0.140625 -1.296875q-0.140625 -0.390625 -0.53125 -0.625q-0.375 -0.25 -0.890625 -0.25q-0.9375 0 -1.546875 0.625q-0.609375 0.609375 -0.609375 1.96875l0 5.125l-1.5 0l0 -5.734375q0 -0.984375 -0.375 -1.484375q-0.359375 -0.5 -1.1875 -0.5q-0.625 0 -1.171875 0.328125q-0.53125 0.328125 -0.78125 0.96875q-0.234375 0.640625 -0.234375 1.84375l0 4.578125l-1.484375 0zm20.184448 -1.09375q-0.828125 0.71875 -1.609375 1.015625q-0.765625 0.28125 -1.640625 0.28125q-1.453125 0 -2.234375 -0.703125q-0.78125 -0.71875 -0.78125 -1.828125q0 -0.640625 0.296875 -1.171875q0.296875 -0.546875 0.765625 -0.859375q0.484375 -0.328125 1.078125 -0.5q0.453125 -0.109375 1.328125 -0.21875q1.8125 -0.21875 2.671875 -0.515625q0 -0.3125 0 -0.390625q0 -0.90625 -0.421875 -1.28125q-0.5625 -0.515625 -1.703125 -0.515625q-1.046875 0 -1.546875 0.375q-0.5 0.359375 -0.75 1.3125l-1.453125 -0.203125q0.203125 -0.9375 0.65625 -1.515625q0.453125 -0.578125 1.3125 -0.890625q0.859375 -0.3125 2.0 -0.3125q1.140625 0 1.84375 0.265625q0.703125 0.265625 1.03125 0.671875q0.328125 0.40625 0.46875 1.015625q0.078125 0.375 0.078125 1.375l0 2.0q0 2.078125 0.09375 2.640625q0.09375 0.546875 0.375 1.046875l-1.5625 0q-0.234375 -0.46875 -0.296875 -1.09375zm-0.125 -3.328125q-0.8125 0.328125 -2.4375 0.5625q-0.921875 0.125 -1.3125 0.296875q-0.375 0.171875 -0.59375 0.5q-0.203125 0.3125 -0.203125 0.703125q0 0.59375 0.453125 1.0q0.453125 0.390625 1.328125 0.390625q0.859375 0 1.53125 -0.375q0.671875 -0.390625 1.0 -1.03125q0.234375 -0.515625 0.234375 -1.5l0 -0.546875zm7.27771 3.078125l0.203125 1.328125q-0.625 0.125 -1.125 0.125q-0.8125 0 -1.265625 -0.25q-0.4375 -0.265625 -0.625 -0.671875q-0.1875 -0.421875 -0.1875 -1.765625l0 -5.078125l-1.09375 0l0 -1.15625l1.09375 0l0 -2.1875l1.484375 -0.890625l0 3.078125l1.515625 0l0 1.15625l-1.515625 0l0 5.15625q0 0.640625 0.078125 0.828125q0.078125 0.171875 0.25 0.28125q0.1875 0.109375 0.53125 0.109375q0.234375 0 0.65625 -0.0625zm1.548706 -9.109375l0 -1.71875l1.5 0l0 1.71875l-1.5 0zm0 10.453125l0 -8.8125l1.5 0l0 8.8125l-1.5 0zm3.2872314 -4.40625q0 -2.453125 1.359375 -3.625q1.140625 -0.984375 2.78125 -0.984375q1.8125 0 2.96875 1.203125q1.15625 1.1875 1.15625 3.28125q0 1.703125 -0.515625 2.6875q-0.515625 0.96875 -1.484375 1.515625q-0.96875 0.53125 -2.125 0.53125q-1.859375 0 -3.0 -1.1875q-1.140625 -1.1875 -1.140625 -3.421875zm1.53125 0q0 1.6875 0.734375 2.53125q0.75 0.84375 1.875 0.84375q1.109375 0 1.84375 -0.84375q0.734375 -0.84375 0.734375 -2.578125q0 -1.640625 -0.75 -2.484375q-0.734375 -0.84375 -1.828125 -0.84375q-1.125 0 -1.875 0.84375q-0.734375 0.84375 -0.734375 2.53125zm8.668335 4.40625l0 -8.8125l1.34375 0l0 1.25q0.96875 -1.453125 2.796875 -1.453125q0.796875 0 1.46875 0.296875q0.671875 0.28125 1.0 0.75q0.328125 0.453125 0.46875 1.09375q0.078125 0.421875 0.078125 1.453125l0 5.421875l-1.484375 0l0 -5.359375q0 -0.921875 -0.1875 -1.375q-0.171875 -0.453125 -0.625 -0.71875q-0.4375 -0.265625 -1.03125 -0.265625q-0.953125 0 -1.65625 0.609375q-0.6875 0.59375 -0.6875 2.296875l0 4.8125l-1.484375 0z" fill-rule="nonzero"></path><path fill="#ff8c00" d="m805.6339 220.34882l0.71875 -3.53125l-1.40625 0l0 -1.234375l1.65625 0l0.609375 -3.015625l-2.265625 0l0 -1.234375l2.515625 0l0.71875 -3.5625l1.25 0l-0.71875 3.5625l2.609375 0l0.71875 -3.5625l1.265625 0l-0.734375 3.5625l1.4375 0l0 1.234375l-1.6875 0l-0.609375 3.015625l2.296875 0l0 1.234375l-2.546875 0l-0.734375 3.53125l-1.234375 0l0.703125 -3.53125l-2.59375 0l-0.734375 3.53125l-1.234375 0zm2.21875 -4.765625l2.59375 0l0.625 -3.015625l-2.609375 0l-0.609375 3.015625zm7.27771 1.34375l1.484375 -0.1875q0.265625 1.265625 0.875 1.828125q0.625 0.5625 1.515625 0.5625q1.046875 0 1.765625 -0.734375q0.734375 -0.734375 0.734375 -1.8125q0 -1.03125 -0.671875 -1.6875q-0.671875 -0.671875 -1.703125 -0.671875q-0.421875 0 -1.0625 0.15625l0.171875 -1.3125q0.140625 0.015625 0.234375 0.015625q0.953125 0 1.71875 -0.484375q0.765625 -0.5 0.765625 -1.546875q0 -0.8125 -0.5625 -1.34375q-0.546875 -0.546875 -1.421875 -0.546875q-0.875 0 -1.453125 0.546875q-0.578125 0.546875 -0.75 1.640625l-1.5 -0.265625q0.28125 -1.5 1.25 -2.328125q0.96875 -0.828125 2.421875 -0.828125q0.984375 0 1.828125 0.4375q0.84375 0.421875 1.28125 1.15625q0.4375 0.734375 0.4375 1.5625q0 0.796875 -0.421875 1.453125q-0.421875 0.640625 -1.25 1.015625q1.078125 0.25 1.671875 1.046875q0.609375 0.78125 0.609375 1.953125q0 1.59375 -1.171875 2.703125q-1.15625 1.109375 -2.9375 1.109375q-1.59375 0 -2.65625 -0.953125q-1.0625 -0.953125 -1.203125 -2.484375z" fill-rule="nonzero"></path><path fill="#000000" fill-opacity="0.0" d="m324.33347 7.255271l319.3386 0l0 35.937008l-319.3386 0z" fill-rule="nonzero"></path><path fill="#000000" d="m389.10275 20.831274l0 1.9375l-1.796875 0l0 -1.53125q0 -1.25 0.296875 -1.796875q0.390625 -0.75 1.234375 -1.125l0.40625 0.640625q-0.5 0.21875 -0.75 0.640625q-0.234375 0.421875 -0.265625 1.234375l0.875 0zm2.875 0l0 1.9375l-1.796875 0l0 -1.53125q0 -1.25 0.296875 -1.796875q0.390625 -0.75 1.234375 -1.125l0.40625 0.640625q-0.5 0.21875 -0.75 0.640625q-0.234375 0.421875 -0.265625 1.234375l0.875 0zm3.572052 11.312498l-1.546875 0l0 -13.593748l1.65625 0l0 4.84375q1.0625 -1.328125 2.703125 -1.328125q0.90625 0 1.71875 0.375q0.8125 0.359375 1.328125 1.03125q0.53125 0.65625 0.828125 1.59375q0.296875 0.9375 0.296875 2.0q0 2.53125 -1.25 3.921875q-1.25 1.3749981 -3.0 1.3749981q-1.75 0 -2.734375 -1.4531231l0 1.2343731zm-0.015625 -4.999998q0 1.765625 0.46875 2.5625q0.796875 1.28125 2.140625 1.28125q1.09375 0 1.890625 -0.9375q0.796875 -0.953125 0.796875 -2.84375q0 -1.921875 -0.765625 -2.84375q-0.765625 -0.921875 -1.84375 -0.921875q-1.09375 0 -1.890625 0.953125q-0.796875 0.953125 -0.796875 2.75zm8.219452 0.078125q0 -2.734375 1.53125 -4.0625q1.265625 -1.09375 3.09375 -1.09375q2.03125 0 3.3125 1.34375q1.296875 1.328125 1.296875 3.671875q0 1.90625 -0.578125 3.0q-0.5625 1.078125 -1.65625 1.6875q-1.078125 0.5937481 -2.375 0.5937481q-2.0625 0 -3.34375 -1.3281231q-1.28125 -1.328125 -1.28125 -3.8125zm1.71875 0q0 1.890625 0.828125 2.828125q0.828125 0.9375 2.078125 0.9375q1.25 0 2.0625 -0.9375q0.828125 -0.953125 0.828125 -2.890625q0 -1.828125 -0.828125 -2.765625q-0.828125 -0.9375 -2.0625 -0.9375q-1.25 0 -2.078125 0.9375q-0.828125 0.9375 -0.828125 2.828125zm8.656982 0q0 -2.734375 1.53125 -4.0625q1.265625 -1.09375 3.09375 -1.09375q2.03125 0 3.3125 1.34375q1.296875 1.328125 1.296875 3.671875q0 1.90625 -0.578125 3.0q-0.5625 1.078125 -1.65625 1.6875q-1.078125 0.5937481 -2.375 0.5937481q-2.0625 0 -3.34375 -1.3281231q-1.28125 -1.328125 -1.28125 -3.8125zm1.71875 0q0 1.890625 0.828125 2.828125q0.828125 0.9375 2.078125 0.9375q1.25 0 2.0625 -0.9375q0.828125 -0.953125 0.828125 -2.890625q0 -1.828125 -0.828125 -2.765625q-0.828125 -0.9375 -2.0625 -0.9375q-1.25 0 -2.078125 0.9375q-0.828125 0.9375 -0.828125 2.828125zm9.297577 4.921873l0 -13.593748l1.671875 0l0 7.75l3.953125 -4.015625l2.15625 0l-3.765625 3.65625l4.140625 6.203123l-2.0625 0l-3.25 -5.031248l-1.171875 1.125l0 3.906248l-1.671875 0zm13.214569 0l5.234375 -13.593748l1.9375 0l5.5625 13.593748l-2.046875 0l-1.59375 -4.124998l-5.6875 0l-1.484375 4.124998l-1.921875 0zm3.921875 -5.578123l4.609375 0l-1.40625 -3.78125q-0.65625 -1.703125 -0.96875 -2.8125q-0.265625 1.3125 -0.734375 2.59375l-1.5 4.0zm10.006073 5.578123l0 -13.593748l1.84375 0l7.140625 10.671875l0 -10.671875l1.71875 0l0 13.593748l-1.84375 0l-7.140625 -10.687498l0 10.687498l-1.71875 0zm13.488556 0l0 -13.593748l4.6875 0q1.578125 0 2.421875 0.1875q1.15625 0.265625 1.984375 0.96875q1.078125 0.921875 1.609375 2.34375q0.53125 1.40625 0.53125 3.21875q0 1.546875 -0.359375 2.75q-0.359375 1.1875 -0.921875 1.984375q-0.5625 0.78125 -1.234375 1.234375q-0.671875 0.4375 -1.625 0.671875q-0.953125 0.2343731 -2.1875 0.2343731l-4.90625 0zm1.796875 -1.6093731l2.90625 0q1.34375 0 2.109375 -0.25q0.765625 -0.25 1.21875 -0.703125q0.640625 -0.640625 1.0 -1.71875q0.359375 -1.078125 0.359375 -2.625q0 -2.125 -0.703125 -3.265625q-0.703125 -1.15625 -1.703125 -1.546875q-0.71875 -0.28125 -2.328125 -0.28125l-2.859375 0l0 10.390625zm16.65625 -10.078125l0 -1.90625l1.671875 0l0 1.90625l-1.671875 0zm0 11.687498l0 -9.859373l1.671875 0l0 9.859373l-1.671875 0zm4.1292114 0l0 -9.859373l1.5 0l0 1.40625q1.09375 -1.625 3.140625 -1.625q0.890625 0 1.640625 0.328125q0.75 0.3125 1.109375 0.84375q0.375 0.515625 0.53125 1.21875q0.09375 0.46875 0.09375 1.625l0 6.062498l-1.671875 0l0 -5.999998q0 -1.015625 -0.203125 -1.515625q-0.1875 -0.515625 -0.6875 -0.8125q-0.5 -0.296875 -1.171875 -0.296875q-1.0625 0 -1.84375 0.671875q-0.765625 0.671875 -0.765625 2.578125l0 5.374998l-1.671875 0zm10.781952 0l0 -8.546873l-1.484375 0l0 -1.3125l1.484375 0l0 -1.046875q0 -0.984375 0.171875 -1.46875q0.234375 -0.65625 0.84375 -1.046875q0.609375 -0.40625 1.703125 -0.40625q0.703125 0 1.5625 0.15625l-0.25 1.46875q-0.515625 -0.09375 -0.984375 -0.09375q-0.765625 0 -1.078125 0.328125q-0.3125 0.3125 -0.3125 1.203125l0 0.90625l1.921875 0l0 1.3125l-1.921875 0l0 8.546873l-1.65625 0zm4.152069 -4.921873q0 -2.734375 1.53125 -4.0625q1.265625 -1.09375 3.09375 -1.09375q2.03125 0 3.3125 1.34375q1.2968445 1.328125 1.2968445 3.671875q0 1.90625 -0.5780945 3.0q-0.5625 1.078125 -1.65625 1.6875q-1.078125 0.5937481 -2.375 0.5937481q-2.0625 0 -3.34375 -1.3281231q-1.28125 -1.328125 -1.28125 -3.8125zm1.71875 0q0 1.890625 0.828125 2.828125q0.828125 0.9375 2.078125 0.9375q1.25 0 2.0625 -0.9375q0.828125 -0.953125 0.828125 -2.890625q0 -1.828125 -0.828125 -2.765625q-0.828125 -0.9375 -2.0625 -0.9375q-1.25 0 -2.078125 0.9375q-0.828125 0.9375 -0.828125 2.828125zm9.266327 4.921873l0 -9.859373l1.5 0l0 1.5q0.578125 -1.046875 1.0625 -1.375q0.484375 -0.34375 1.078125 -0.34375q0.84375 0 1.71875 0.546875l-0.578125 1.546875q-0.609375 -0.359375 -1.234375 -0.359375q-0.546875 0 -0.984375 0.328125q-0.421875 0.328125 -0.609375 0.90625q-0.28125 0.890625 -0.28125 1.953125l0 5.156248l-1.671875 0zm6.2283325 0l0 -9.859373l1.5 0l0 1.390625q0.453125 -0.71875 1.21875 -1.15625q0.78125 -0.453125 1.765625 -0.453125q1.09375 0 1.796875 0.453125q0.703125 0.453125 0.984375 1.28125q1.171875 -1.734375 3.046875 -1.734375q1.46875 0 2.25 0.8125q0.796875 0.8125 0.796875 2.5l0 6.765623l-1.671875 0l0 -6.203123q0 -1.0 -0.15625 -1.4375q-0.15625 -0.453125 -0.59375 -0.71875q-0.421875 -0.265625 -1.0 -0.265625q-1.03125 0 -1.71875 0.6875q-0.6875 0.6875 -0.6875 2.21875l0 5.718748l-1.671875 0l0 -6.406248q0 -1.109375 -0.40625 -1.65625q-0.40625 -0.5625 -1.34375 -0.5625q-0.703125 0 -1.3125 0.375q-0.59375 0.359375 -0.859375 1.078125q-0.265625 0.71875 -0.265625 2.0625l0 5.109373l-1.671875 0zm21.978271 -1.2187481q-0.9375 0.796875 -1.796875 1.1249981q-0.859375 0.3125 -1.84375 0.3125q-1.609375 0 -2.484375 -0.7812481q-0.875 -0.796875 -0.875 -2.03125q0 -0.734375 0.328125 -1.328125q0.328125 -0.59375 0.859375 -0.953125q0.53125 -0.359375 1.203125 -0.546875q0.5 -0.140625 1.484375 -0.25q2.03125 -0.25 2.984375 -0.578125q0 -0.34375 0 -0.4375q0 -1.015625 -0.46875 -1.4375q-0.640625 -0.5625 -1.90625 -0.5625q-1.171875 0 -1.734375 0.40625q-0.5625 0.40625 -0.828125 1.46875l-1.640625 -0.234375q0.234375 -1.046875 0.734375 -1.6875q0.515625 -0.640625 1.46875 -0.984375q0.96875 -0.359375 2.25 -0.359375q1.265625 0 2.046875 0.296875q0.78125 0.296875 1.15625 0.75q0.375 0.453125 0.515625 1.140625q0.09375 0.421875 0.09375 1.53125l0 2.234375q0 2.328125 0.09375 2.953125q0.109375 0.609375 0.4375 1.1718731l-1.75 0q-0.265625 -0.5156231 -0.328125 -1.2187481zm-0.140625 -3.71875q-0.90625 0.359375 -2.734375 0.625q-1.03125 0.140625 -1.453125 0.328125q-0.421875 0.1875 -0.65625 0.546875q-0.234375 0.359375 -0.234375 0.796875q0 0.671875 0.5 1.125q0.515625 0.4375 1.484375 0.4375q0.96875 0 1.71875 -0.421875q0.75 -0.4375 1.109375 -1.15625q0.265625 -0.578125 0.265625 -1.671875l0 -0.609375zm7.7351074 3.4375l0.234375 1.4843731q-0.703125 0.140625 -1.265625 0.140625q-0.90625 0 -1.40625 -0.2812481q-0.5 -0.296875 -0.703125 -0.75q-0.203125 -0.46875 -0.203125 -1.984375l0 -5.65625l-1.234375 0l0 -1.3125l1.234375 0l0 -2.4375l1.65625 -1.0l0 3.4375l1.6875 0l0 1.3125l-1.6875 0l0 5.75q0 0.71875 0.078125 0.921875q0.09375 0.203125 0.296875 0.328125q0.203125 0.125 0.578125 0.125q0.265625 0 0.734375 -0.078125zm1.5426636 -10.1875l0 -1.90625l1.671875 0l0 1.90625l-1.671875 0zm0 11.687498l0 -9.859373l1.671875 0l0 9.859373l-1.671875 0zm3.5042114 -4.921873q0 -2.734375 1.53125 -4.0625q1.265625 -1.09375 3.09375 -1.09375q2.03125 0 3.3125 1.34375q1.296875 1.328125 1.296875 3.671875q0 1.90625 -0.578125 3.0q-0.5625 1.078125 -1.65625 1.6875q-1.078125 0.5937481 -2.375 0.5937481q-2.0625 0 -3.34375 -1.3281231q-1.28125 -1.328125 -1.28125 -3.8125zm1.71875 0q0 1.890625 0.828125 2.828125q0.828125 0.9375 2.078125 0.9375q1.25 0 2.0625 -0.9375q0.828125 -0.953125 0.828125 -2.890625q0 -1.828125 -0.828125 -2.765625q-0.828125 -0.9375 -2.0625 -0.9375q-1.25 0 -2.078125 0.9375q-0.828125 0.9375 -0.828125 2.828125zm9.281982 4.921873l0 -9.859373l1.5 0l0 1.40625q1.09375 -1.625 3.140625 -1.625q0.890625 0 1.640625 0.328125q0.75 0.3125 1.109375 0.84375q0.375 0.515625 0.53125 1.21875q0.09375 0.46875 0.09375 1.625l0 6.062498l-1.671875 0l0 -5.999998q0 -1.015625 -0.203125 -1.515625q-0.1875 -0.515625 -0.6875 -0.8125q-0.5 -0.296875 -1.171875 -0.296875q-1.0625 0 -1.84375 0.671875q-0.765625 0.671875 -0.765625 2.578125l0 5.374998l-1.671875 0zm9.938171 -11.796873l0 -1.9375l1.78125 0l0 1.53125q0 1.234375 -0.28125 1.78125q-0.40625 0.75 -1.25 1.140625l-0.40625 -0.671875q0.5 -0.203125 0.75 -0.640625q0.25 -0.4375 0.265625 -1.203125l-0.859375 0zm2.875 0l0 -1.9375l1.78125 0l0 1.53125q0 1.234375 -0.28125 1.78125q-0.40625 0.75 -1.25 1.140625l-0.40625 -0.671875q0.5 -0.203125 0.75 -0.640625q0.25 -0.4375 0.28125 -1.203125l-0.875 0z" fill-rule="nonzero"></path><path fill="#000000" fill-opacity="0.0" d="m484.00275 43.19228l-314.2992 100.157486" fill-rule="nonzero"></path><path stroke="#000000" stroke-width="1.0" stroke-linejoin="round" stroke-linecap="butt" d="m484.00275 43.192276l-308.58246 98.33574" fill-rule="evenodd"></path><path fill="#000000" stroke="#000000" stroke-width="1.0" stroke-linecap="butt" d="m174.9188 139.95425l-3.8223572 2.9516296l4.825363 0.19587708z" fill-rule="evenodd"></path><path fill="#000000" fill-opacity="0.0" d="m484.00275 43.19228l0 93.543304" fill-rule="nonzero"></path><path stroke="#000000" stroke-width="1.0" stroke-linejoin="round" stroke-linecap="butt" d="m484.00275 43.192276l0 87.543304" fill-rule="evenodd"></path><path fill="#000000" stroke="#000000" stroke-width="1.0" stroke-linecap="butt" d="m482.351 130.73558l1.6517334 4.538101l1.6517334 -4.538101z" fill-rule="evenodd"></path><path fill="#000000" fill-opacity="0.0" d="m484.00275 43.19228l302.99213 96.37796" fill-rule="nonzero"></path><path stroke="#000000" stroke-width="1.0" stroke-linejoin="round" stroke-linecap="butt" d="m484.00275 43.192276l297.27448 94.55922" fill-rule="evenodd"></path><path fill="#000000" stroke="#000000" stroke-width="1.0" stroke-linecap="butt" d="m780.77655 139.32552l4.8252563 -0.1984253l-3.8239136 -2.9496155z" fill-rule="evenodd"></path><path fill="#000000" fill-opacity="0.0" d="m364.22556 353.16385l240.09445 0l0 68.06299l-240.09445 0z" fill-rule="nonzero"></path><path fill="#000000" d="m376.02243 383.11536l-1.546875 0l0 -13.59375l1.65625 0l0 4.84375q1.0625 -1.328125 2.703125 -1.328125q0.90625 0 1.71875 0.375q0.8125 0.359375 1.328125 1.03125q0.53125 0.65625 0.828125 1.59375q0.296875 0.9375 0.296875 2.0q0 2.53125 -1.25 3.921875q-1.25 1.375 -3.0 1.375q-1.75 0 -2.734375 -1.453125l0 1.234375zm-0.015625 -5.0q0 1.765625 0.46875 2.5625q0.796875 1.28125 2.140625 1.28125q1.09375 0 1.890625 -0.9375q0.796875 -0.953125 0.796875 -2.84375q0 -1.921875 -0.765625 -2.84375q-0.765625 -0.921875 -1.84375 -0.921875q-1.09375 0 -1.890625 0.953125q-0.796875 0.953125 -0.796875 2.75zm8.219452 0.078125q0 -2.734375 1.53125 -4.0625q1.265625 -1.09375 3.09375 -1.09375q2.03125 0 3.3125 1.34375q1.296875 1.328125 1.296875 3.671875q0 1.90625 -0.578125 3.0q-0.5625 1.078125 -1.65625 1.6875q-1.078125 0.59375 -2.375 0.59375q-2.0625 0 -3.34375 -1.328125q-1.28125 -1.328125 -1.28125 -3.8125zm1.71875 0q0 1.890625 0.828125 2.828125q0.828125 0.9375 2.078125 0.9375q1.25 0 2.0625 -0.9375q0.828125 -0.953125 0.828125 -2.890625q0 -1.828125 -0.828125 -2.765625q-0.828125 -0.9375 -2.0625 -0.9375q-1.25 0 -2.078125 0.9375q-0.828125 0.9375 -0.828125 2.828125zm8.656982 0q0 -2.734375 1.53125 -4.0625q1.265625 -1.09375 3.09375 -1.09375q2.03125 0 3.3125 1.34375q1.296875 1.328125 1.296875 3.671875q0 1.90625 -0.578125 3.0q-0.5625 1.078125 -1.65625 1.6875q-1.078125 0.59375 -2.375 0.59375q-2.0625 0 -3.34375 -1.328125q-1.28125 -1.328125 -1.28125 -3.8125zm1.71875 0q0 1.890625 0.828125 2.828125q0.828125 0.9375 2.078125 0.9375q1.25 0 2.0625 -0.9375q0.828125 -0.953125 0.828125 -2.890625q0 -1.828125 -0.828125 -2.765625q-0.828125 -0.9375 -2.0625 -0.9375q-1.25 0 -2.078125 0.9375q-0.828125 0.9375 -0.828125 2.828125zm9.297577 4.921875l0 -13.59375l1.671875 0l0 7.75l3.953125 -4.015625l2.15625 0l-3.765625 3.65625l4.140625 6.203125l-2.0625 0l-3.25 -5.03125l-1.171875 1.125l0 3.90625l-1.671875 0zm9.78125 -7.953125l0 -1.90625l1.90625 0l0 1.90625l-1.90625 0zm0 7.953125l0 -1.90625l1.90625 0l0 1.90625l-1.90625 0zm9.600983 0.234375l0.8125 -3.953125l-1.578125 0l0 -1.390625l1.859375 0l0.6875 -3.359375l-2.546875 0l0 -1.390625l2.8125 0l0.8125 -3.96875l1.390625 0l-0.8125 3.96875l2.921875 0l0.8125 -3.96875l1.40625 0l-0.8125 3.96875l1.609375 0l0 1.390625l-1.890625 0l-0.6875 3.359375l2.578125 0l0 1.390625l-2.859375 0l-0.8125 3.953125l-1.390625 0l0.796875 -3.953125l-2.90625 0l-0.8125 3.953125l-1.390625 0zm2.484375 -5.34375l2.90625 0l0.703125 -3.359375l-2.921875 0l-0.6875 3.359375zm14.016357 5.109375l-1.671875 0l0 -10.640625q-0.59375 0.578125 -1.578125 1.15625q-0.984375 0.5625 -1.765625 0.859375l0 -1.625q1.40625 -0.65625 2.453125 -1.59375q1.046875 -0.9375 1.484375 -1.8125l1.078125 0l0 13.65625zm4.985077 0l0 -1.90625l1.90625 0l0 1.90625q0 1.046875 -0.375 1.6875q-0.375 0.65625 -1.171875 1.0l-0.46875 -0.71875q0.53125 -0.21875 0.78125 -0.671875q0.25 -0.453125 0.28125 -1.296875l-0.953125 0zm9.632233 0.234375l0.8125 -3.953125l-1.578125 0l0 -1.390625l1.859375 0l0.6875 -3.359375l-2.546875 0l0 -1.390625l2.8125 0l0.8125 -3.96875l1.390625 0l-0.8125 3.96875l2.921875 0l0.8125 -3.96875l1.40625 0l-0.8125 3.96875l1.609375 0l0 1.390625l-1.890625 0l-0.6875 3.359375l2.578125 0l0 1.390625l-2.859375 0l-0.8125 3.953125l-1.390625 0l0.796875 -3.953125l-2.90625 0l-0.8125 3.953125l-1.390625 0zm2.484375 -5.34375l2.90625 0l0.703125 -3.359375l-2.921875 0l-0.6875 3.359375zm7.7351074 1.515625l1.671875 -0.21875q0.28125 1.421875 0.96875 2.046875q0.703125 0.625 1.6875 0.625q1.1875 0 2.0 -0.8125q0.8125 -0.828125 0.8125 -2.03125q0 -1.140625 -0.765625 -1.890625q-0.75 -0.75 -1.90625 -0.75q-0.46875 0 -1.171875 0.1875l0.1875 -1.46875q0.15625 0.015625 0.265625 0.015625q1.0625 0 1.90625 -0.546875q0.859375 -0.5625 0.859375 -1.71875q0 -0.921875 -0.625 -1.515625q-0.609375 -0.609375 -1.59375 -0.609375q-0.96875 0 -1.625 0.609375q-0.640625 0.609375 -0.828125 1.84375l-1.671875 -0.296875q0.296875 -1.6875 1.375 -2.609375q1.09375 -0.921875 2.71875 -0.921875q1.109375 0 2.046875 0.484375q0.9375 0.46875 1.421875 1.296875q0.5 0.828125 0.5 1.75q0 0.890625 -0.46875 1.609375q-0.46875 0.71875 -1.40625 1.15625q1.21875 0.265625 1.875 1.15625q0.671875 0.875 0.671875 2.1875q0 1.78125 -1.296875 3.015625q-1.296875 1.234375 -3.28125 1.234375q-1.796875 0 -2.984375 -1.0625q-1.171875 -1.0625 -1.34375 -2.765625zm11.266327 3.59375l0 -1.90625l1.90625 0l0 1.90625q0 1.046875 -0.375 1.6875q-0.375 0.65625 -1.171875 1.0l-0.46875 -0.71875q0.53125 -0.21875 0.78125 -0.671875q0.25 -0.453125 0.28125 -1.296875l-0.953125 0zm9.632233 0.234375l0.8125 -3.953125l-1.578125 0l0 -1.390625l1.859375 0l0.6875 -3.359375l-2.546875 0l0 -1.390625l2.8125 0l0.8125 -3.96875l1.390625 0l-0.8125 3.96875l2.921875 0l0.8125 -3.96875l1.40625 0l-0.8125 3.96875l1.609375 0l0 1.390625l-1.890625 0l-0.6875 3.359375l2.578125 0l0 1.390625l-2.859375 0l-0.8125 3.953125l-1.390625 0l0.796875 -3.953125l-2.90625 0l-0.8125 3.953125l-1.390625 0zm2.484375 -5.34375l2.90625 0l0.703125 -3.359375l-2.921875 0l-0.6875 3.359375zm16.391357 -5.15625l-1.65625 0.125q-0.21875 -0.984375 -0.640625 -1.421875q-0.671875 -0.71875 -1.65625 -0.71875q-0.8125 0 -1.40625 0.4375q-0.796875 0.578125 -1.25 1.6875q-0.453125 1.09375 -0.46875 3.140625q0.609375 -0.921875 1.46875 -1.359375q0.875 -0.453125 1.828125 -0.453125q1.671875 0 2.84375 1.234375q1.171875 1.234375 1.171875 3.171875q0 1.28125 -0.546875 2.390625q-0.546875 1.09375 -1.515625 1.6875q-0.96875 0.578125 -2.1875 0.578125q-2.09375 0 -3.40625 -1.53125q-1.3125 -1.546875 -1.3125 -5.0625q0 -3.953125 1.453125 -5.734375q1.265625 -1.5625 3.421875 -1.5625q1.609375 0 2.625 0.90625q1.03125 0.890625 1.234375 2.484375zm-6.8125 5.859375q0 0.859375 0.359375 1.65625q0.375 0.78125 1.03125 1.203125q0.65625 0.40625 1.375 0.40625q1.0625 0 1.8125 -0.84375q0.765625 -0.859375 0.765625 -2.328125q0 -1.40625 -0.75 -2.21875q-0.75 -0.8125 -1.890625 -0.8125q-1.125 0 -1.921875 0.8125q-0.78125 0.8125 -0.78125 2.125z" fill-rule="nonzero"></path><path fill="#000000" d="m374.49118 393.42786l0 -1.90625l1.671875 0l0 1.90625l-1.671875 0zm0 11.6875l0 -9.859375l1.671875 0l0 9.859375l-1.671875 0zm4.129181 0l0 -9.859375l1.5 0l0 1.40625q1.09375 -1.625 3.140625 -1.625q0.890625 0 1.640625 0.328125q0.75 0.3125 1.109375 0.84375q0.375 0.515625 0.53125 1.21875q0.09375 0.46875 0.09375 1.625l0 6.0625l-1.671875 0l0 -6.0q0 -1.015625 -0.203125 -1.515625q-0.1875 -0.515625 -0.6875 -0.8125q-0.5 -0.296875 -1.171875 -0.296875q-1.0625 0 -1.84375 0.671875q-0.765625 0.671875 -0.765625 2.578125l0 5.375l-1.671875 0zm10.781982 0l0 -8.546875l-1.484375 0l0 -1.3125l1.484375 0l0 -1.046875q0 -0.984375 0.171875 -1.46875q0.234375 -0.65625 0.84375 -1.046875q0.609375 -0.40625 1.703125 -0.40625q0.703125 0 1.5625 0.15625l-0.25 1.46875q-0.515625 -0.09375 -0.984375 -0.09375q-0.765625 0 -1.078125 0.328125q-0.3125 0.3125 -0.3125 1.203125l0 0.90625l1.921875 0l0 1.3125l-1.921875 0l0 8.546875l-1.65625 0zm4.1520386 -4.921875q0 -2.734375 1.53125 -4.0625q1.265625 -1.09375 3.09375 -1.09375q2.03125 0 3.3125 1.34375q1.296875 1.328125 1.296875 3.671875q0 1.90625 -0.578125 3.0q-0.5625 1.078125 -1.65625 1.6875q-1.078125 0.59375 -2.375 0.59375q-2.0625 0 -3.34375 -1.328125q-1.28125 -1.328125 -1.28125 -3.8125zm1.71875 0q0 1.890625 0.828125 2.828125q0.828125 0.9375 2.078125 0.9375q1.25 0 2.0625 -0.9375q0.828125 -0.953125 0.828125 -2.890625q0 -1.828125 -0.828125 -2.765625q-0.828125 -0.9375 -2.0625 -0.9375q-1.25 0 -2.078125 0.9375q-0.828125 0.9375 -0.828125 2.828125zm9.266357 4.921875l0 -9.859375l1.5 0l0 1.5q0.578125 -1.046875 1.0625 -1.375q0.484375 -0.34375 1.078125 -0.34375q0.84375 0 1.71875 0.546875l-0.578125 1.546875q-0.609375 -0.359375 -1.234375 -0.359375q-0.546875 0 -0.984375 0.328125q-0.421875 0.328125 -0.609375 0.90625q-0.28125 0.890625 -0.28125 1.953125l0 5.15625l-1.671875 0zm6.228302 0l0 -9.859375l1.5 0l0 1.390625q0.453125 -0.71875 1.21875 -1.15625q0.78125 -0.453125 1.765625 -0.453125q1.09375 0 1.796875 0.453125q0.703125 0.453125 0.984375 1.28125q1.171875 -1.734375 3.046875 -1.734375q1.46875 0 2.25 0.8125q0.796875 0.8125 0.796875 2.5l0 6.765625l-1.671875 0l0 -6.203125q0 -1.0 -0.15625 -1.4375q-0.15625 -0.453125 -0.59375 -0.71875q-0.421875 -0.265625 -1.0 -0.265625q-1.03125 0 -1.71875 0.6875q-0.6875 0.6875 -0.6875 2.21875l0 5.71875l-1.671875 0l0 -6.40625q0 -1.109375 -0.40625 -1.65625q-0.40625 -0.5625 -1.34375 -0.5625q-0.703125 0 -1.3125 0.375q-0.59375 0.359375 -0.859375 1.078125q-0.265625 0.71875 -0.265625 2.0625l0 5.109375l-1.671875 0zm21.978302 -1.21875q-0.9375 0.796875 -1.796875 1.125q-0.859375 0.3125 -1.84375 0.3125q-1.609375 0 -2.484375 -0.78125q-0.875 -0.796875 -0.875 -2.03125q0 -0.734375 0.328125 -1.328125q0.328125 -0.59375 0.859375 -0.953125q0.53125 -0.359375 1.203125 -0.546875q0.5 -0.140625 1.484375 -0.25q2.03125 -0.25 2.984375 -0.578125q0 -0.34375 0 -0.4375q0 -1.015625 -0.46875 -1.4375q-0.640625 -0.5625 -1.90625 -0.5625q-1.171875 0 -1.734375 0.40625q-0.5625 0.40625 -0.828125 1.46875l-1.640625 -0.234375q0.234375 -1.046875 0.734375 -1.6875q0.515625 -0.640625 1.46875 -0.984375q0.96875 -0.359375 2.25 -0.359375q1.265625 0 2.046875 0.296875q0.78125 0.296875 1.15625 0.75q0.375 0.453125 0.515625 1.140625q0.09375 0.421875 0.09375 1.53125l0 2.234375q0 2.328125 0.09375 2.953125q0.109375 0.609375 0.4375 1.171875l-1.75 0q-0.265625 -0.515625 -0.328125 -1.21875zm-0.140625 -3.71875q-0.90625 0.359375 -2.734375 0.625q-1.03125 0.140625 -1.453125 0.328125q-0.421875 0.1875 -0.65625 0.546875q-0.234375 0.359375 -0.234375 0.796875q0 0.671875 0.5 1.125q0.515625 0.4375 1.484375 0.4375q0.96875 0 1.71875 -0.421875q0.75 -0.4375 1.109375 -1.15625q0.265625 -0.578125 0.265625 -1.671875l0 -0.609375zm7.735077 3.4375l0.234375 1.484375q-0.703125 0.140625 -1.265625 0.140625q-0.90625 0 -1.40625 -0.28125q-0.5 -0.296875 -0.703125 -0.75q-0.203125 -0.46875 -0.203125 -1.984375l0 -5.65625l-1.234375 0l0 -1.3125l1.234375 0l0 -2.4375l1.65625 -1.0l0 3.4375l1.6875 0l0 1.3125l-1.6875 0l0 5.75q0 0.71875 0.078125 0.921875q0.09375 0.203125 0.296875 0.328125q0.203125 0.125 0.578125 0.125q0.265625 0 0.734375 -0.078125zm1.5426941 -10.1875l0 -1.90625l1.671875 0l0 1.90625l-1.671875 0zm0 11.6875l0 -9.859375l1.671875 0l0 9.859375l-1.671875 0zm3.504181 -4.921875q0 -2.734375 1.53125 -4.0625q1.265625 -1.09375 3.09375 -1.09375q2.03125 0 3.3125 1.34375q1.296875 1.328125 1.296875 3.671875q0 1.90625 -0.578125 3.0q-0.5625 1.078125 -1.65625 1.6875q-1.078125 0.59375 -2.375 0.59375q-2.0625 0 -3.34375 -1.328125q-1.28125 -1.328125 -1.28125 -3.8125zm1.71875 0q0 1.890625 0.828125 2.828125q0.828125 0.9375 2.078125 0.9375q1.25 0 2.0625 -0.9375q0.828125 -0.953125 0.828125 -2.890625q0 -1.828125 -0.828125 -2.765625q-0.828125 -0.9375 -2.0625 -0.9375q-1.25 0 -2.078125 0.9375q-0.828125 0.9375 -0.828125 2.828125zm9.281982 4.921875l0 -9.859375l1.5 0l0 1.40625q1.09375 -1.625 3.140625 -1.625q0.890625 0 1.640625 0.328125q0.75 0.3125 1.109375 0.84375q0.375 0.515625 0.53125 1.21875q0.09375 0.46875 0.09375 1.625l0 6.0625l-1.671875 0l0 -6.0q0 -1.015625 -0.203125 -1.515625q-0.1875 -0.515625 -0.6875 -0.8125q-0.5 -0.296875 -1.171875 -0.296875q-1.0625 0 -1.84375 0.671875q-0.765625 0.671875 -0.765625 2.578125l0 5.375l-1.671875 0zm10.844452 -7.953125l0 -1.90625l1.90625 0l0 1.90625l-1.90625 0zm0 7.953125l0 -1.90625l1.90625 0l0 1.90625l-1.90625 0zm9.600983 0.234375l0.8125 -3.953125l-1.578125 0l0 -1.390625l1.859375 0l0.6875 -3.359375l-2.546875 0l0 -1.390625l2.8125 0l0.8125 -3.96875l1.390625 0l-0.8125 3.96875l2.921875 0l0.8125 -3.96875l1.40625 0l-0.8125 3.96875l1.609375 0l0 1.390625l-1.890625 0l-0.6875 3.359375l2.578125 0l0 1.390625l-2.859375 0l-0.8125 3.953125l-1.390625 0l0.796875 -3.953125l-2.90625 0l-0.8125 3.953125l-1.390625 0zm2.484375 -5.34375l2.90625 0l0.703125 -3.359375l-2.921875 0l-0.6875 3.359375zm14.016357 5.109375l-1.671875 0l0 -10.640625q-0.59375 0.578125 -1.578125 1.15625q-0.984375 0.5625 -1.765625 0.859375l0 -1.625q1.40625 -0.65625 2.453125 -1.59375q1.046875 -0.9375 1.484375 -1.8125l1.078125 0l0 13.65625zm4.985077 0l0 -1.90625l1.90625 0l0 1.90625q0 1.046875 -0.375 1.6875q-0.375 0.65625 -1.171875 1.0l-0.46875 -0.71875q0.53125 -0.21875 0.78125 -0.671875q0.25 -0.453125 0.28125 -1.296875l-0.953125 0zm9.632233 0.234375l0.8125 -3.953125l-1.578125 0l0 -1.390625l1.859375 0l0.6875 -3.359375l-2.546875 0l0 -1.390625l2.8125 0l0.8125 -3.96875l1.3906555 0l-0.8125305 3.96875l2.9219055 0l0.8125 -3.96875l1.40625 0l-0.8125 3.96875l1.609375 0l0 1.390625l-1.890625 0l-0.6875 3.359375l2.578125 0l0 1.390625l-2.859375 0l-0.8125 3.953125l-1.390625 0l0.796875 -3.953125l-2.9062805 0l-0.8125 3.953125l-1.390625 0zm2.484375 -5.34375l2.9062805 0l0.703125 -3.359375l-2.9219055 0l-0.6875 3.359375zm7.735077 1.515625l1.671875 -0.21875q0.28125 1.421875 0.96875 2.046875q0.703125 0.625 1.6875 0.625q1.1875 0 2.0 -0.8125q0.8125 -0.828125 0.8125 -2.03125q0 -1.140625 -0.765625 -1.890625q-0.75 -0.75 -1.90625 -0.75q-0.46875 0 -1.171875 0.1875l0.1875 -1.46875q0.15625 0.015625 0.265625 0.015625q1.0625 0 1.90625 -0.546875q0.859375 -0.5625 0.859375 -1.71875q0 -0.921875 -0.625 -1.515625q-0.609375 -0.609375 -1.59375 -0.609375q-0.96875 0 -1.625 0.609375q-0.640625 0.609375 -0.828125 1.84375l-1.671875 -0.296875q0.296875 -1.6875 1.375 -2.609375q1.09375 -0.921875 2.71875 -0.921875q1.109375 0 2.046875 0.484375q0.9375 0.46875 1.421875 1.296875q0.5 0.828125 0.5 1.75q0 0.890625 -0.46875 1.609375q-0.46875 0.71875 -1.40625 1.15625q1.21875 0.265625 1.875 1.15625q0.671875 0.875 0.671875 2.1875q0 1.78125 -1.296875 3.015625q-1.296875 1.234375 -3.28125 1.234375q-1.796875 0 -2.984375 -1.0625q-1.171875 -1.0625 -1.34375 -2.765625z" fill-rule="nonzero"></path><path fill="#000000" fill-opacity="0.0" d="m171.80034 291.71503l312.47247 61.448822" fill-rule="nonzero"></path><path stroke="#000000" stroke-width="1.0" stroke-linejoin="round" stroke-linecap="butt" d="m171.80034 291.71503l306.5852 60.291077" fill-rule="evenodd"></path><path fill="#000000" stroke="#000000" stroke-width="1.0" stroke-linecap="butt" d="m478.06683 353.62677l4.7715454 -0.74502563l-4.134094 -2.496338z" fill-rule="evenodd"></path><path fill="#000000" fill-opacity="0.0" d="m484.83972 293.6363l-0.56692505 59.527557" fill-rule="nonzero"></path><path stroke="#000000" stroke-width="1.0" stroke-linejoin="round" stroke-linecap="butt" d="m484.83972 293.6363l-0.50979614 53.527832" fill-rule="evenodd"></path><path fill="#000000" stroke="#000000" stroke-width="1.0" stroke-linecap="butt" d="m482.67828 347.14838l1.608429 4.5536194l1.6948853 -4.522156z" fill-rule="evenodd"></path><path fill="#000000" fill-opacity="0.0" d="m799.1389 292.6914l-314.86612 60.472443" fill-rule="nonzero"></path><path stroke="#000000" stroke-width="1.0" stroke-linejoin="round" stroke-linecap="butt" d="m799.1389 292.6914l-308.97382 59.34079" fill-rule="evenodd"></path><path fill="#000000" stroke="#000000" stroke-width="1.0" stroke-linecap="butt" d="m489.85358 350.4101l-4.145111 2.4779968l4.7681885 0.7661743z" fill-rule="evenodd"></path><path fill="#000000" fill-opacity="0.0" d="m430.48798 453.35992l108.12598 0l0 31.181091l-108.12598 0z" fill-rule="nonzero"></path><path fill="#000000" d="m475.12836 476.10483l0.8125 -3.953125l-1.578125 0l0 -1.390625l1.859375 0l0.6875 -3.359375l-2.546875 0l0 -1.390625l2.8125 0l0.8125 -3.96875l1.390625 0l-0.8125 3.96875l2.921875 0l0.8125 -3.96875l1.40625 0l-0.8125 3.96875l1.609375 0l0 1.390625l-1.890625 0l-0.6875 3.359375l2.578125 0l0 1.390625l-2.859375 0l-0.8125 3.953125l-1.390625 0l0.796875 -3.953125l-2.90625 0l-0.8125 3.953125l-1.390625 0zm2.484375 -5.34375l2.90625 0l0.703125 -3.359375l-2.921875 0l-0.6875 3.359375zm14.016357 5.109375l-1.671875 0l0 -10.640625q-0.59375 0.578125 -1.578125 1.15625q-0.984375 0.5625 -1.765625 0.859375l0 -1.625q1.40625 -0.65625 2.453125 -1.59375q1.046875 -0.9375 1.484375 -1.8125l1.078125 0l0 13.65625z" fill-rule="nonzero"></path><path fill="#000000" fill-opacity="0.0" d="m484.2728 421.22684l0.28344727 32.126007" fill-rule="nonzero"></path><path stroke="#000000" stroke-width="1.0" stroke-linejoin="round" stroke-linecap="butt" d="m484.2728 421.22684l0.23052979 26.12622" fill-rule="evenodd"></path><path fill="#000000" stroke="#000000" stroke-width="1.0" stroke-linecap="butt" d="m482.85165 447.3676l1.6917114 4.523346l1.6116333 -4.55249z" fill-rule="evenodd"></path></g></svg>

