<?xml version="1.0" encoding="utf-8"?>
<!-- Generator: Adobe Illustrator 23.1.1, SVG Export Plug-In . SVG Version: 6.00 Build 0)  -->
<svg version="1.1" id="Logo" xmlns="http://www.w3.org/2000/svg" xmlns:xlink="http://www.w3.org/1999/xlink" x="0px" y="0px"
	 viewBox="0 0 205.9 59" style="enable-background:new 0 0 205.9 59;" xml:space="preserve">
<style type="text/css">
	.st0{fill:#EF6214;}
</style>
<path d="M3.5,49c-0.9-0.4-1.6-0.7-1.6-1.3s0.2-1.2,1.7-1.2c0.6,0,1.4,0.2,1.9,0.4l0.4,0.2l0.2-1.6l-0.2-0.1C5,45.1,4,44.9,3.4,44.9
	c-1.6,0-3.3,0.7-3.3,2.8c0,1.6,1.3,2.2,2.5,2.8c1,0.5,1.9,0.9,1.9,1.7c0,0.9-0.9,1.3-1.7,1.3c-1,0-1.8-0.3-2.3-0.5l-0.4-0.2L0,54.6
	l0.2,0.1C1,55,1.8,55.2,2.9,55.2c1.7,0,3.5-0.9,3.5-2.9S4.8,49.6,3.5,49z M14.6,53.4c-0.3,0.1-0.6,0.2-0.9,0.2c-0.2,0-0.9,0-0.9-1.2
	v-5.6h2.1v-1.6h-2.1v-2.7L11,43v2.1H9.2v1.6H11v5c0,1.5,0,3.4,2.4,3.4c0.6,0,1.2-0.1,1.5-0.3l0.2-0.1L15,53.2
	C15,53.2,14.6,53.4,14.6,53.4z M22.7,44.9c-3.4,0-4.6,2.7-4.6,5.1s1.2,5.1,4.6,5.1s4.6-2.7,4.6-5.1C27.3,47.7,26.1,44.9,22.7,44.9z
	 M22.7,53.6c-2,0-2.7-1.9-2.7-3.5s0.7-3.5,2.7-3.5s2.7,1.9,2.7,3.5S24.7,53.6,22.7,53.6z M35.5,44.9c-1.3,0-2.1,0.6-2.6,1.2v-1h-1.8
	v13.5H33V54c0.6,0.7,1.5,1.1,2.6,1.1c2.5,0,4.1-2,4.1-5.1C39.6,46.8,38.2,44.9,35.5,44.9z M35.4,53.6c-1.9,0-2.4-2.2-2.4-3.5
	s0.5-3.5,2.4-3.5c2.1,0,2.4,2.2,2.4,3.5S37.5,53.6,35.4,53.6z M52.3,49c-0.9-0.4-1.6-0.7-1.6-1.3s0.2-1.2,1.7-1.2
	c0.6,0,1.4,0.2,1.9,0.4l0.4,0.2l0.2-1.6l-0.2-0.1c-0.8-0.3-1.8-0.4-2.4-0.4c-1.6,0-3.3,0.7-3.3,2.8c0,1.6,1.3,2.2,2.5,2.8
	c1,0.5,1.9,0.9,1.9,1.7c0,0.9-0.9,1.3-1.7,1.3s-1.5-0.2-2.2-0.5L49,52.8l-0.2,1.8l0.2,0.1c0.8,0.3,1.6,0.5,2.7,0.5
	c1.7,0,3.5-0.9,3.5-2.9S53.6,49.6,52.3,49z M62.6,44.9c-2.5,0-4.2,2.1-4.2,5.1c0,3.3,1.6,5.1,4.5,5.1c0.9,0,2-0.2,2.8-0.5l0.2-0.1
	v-1.9l-0.5,0.3c-0.5,0.3-1.6,0.6-2.4,0.6c-1.9,0-2.6-1.5-2.7-2.9h6.3v-0.9C66.6,46.8,65.1,44.9,62.6,44.9z M60.3,49.1
	c0.1-1.3,1-2.6,2.4-2.6c1.7,0,2,1.7,2,2.6C64.7,49.1,60.3,49.1,60.3,49.1z M77.5,52.7v-4c0-2.6-1.1-3.7-3.5-3.7
	c-0.8,0-2.1,0.3-2.8,0.7H71v1.8l0.5-0.3c0.7-0.5,1.6-0.7,2.5-0.7c1.3,0,1.8,0.6,1.8,2v0.2c-2,0-5.9,0.1-5.9,3.5
	c0,0.5,0.2,2.9,3.3,2.9c0.9,0,1.9-0.3,2.6-1.1v0.9h1.8l-0.1-0.3C77.5,54.6,77.5,52.7,77.5,52.7z M73.4,53.6c-0.7,0-1.6-0.2-1.6-1.3
	c0-1.4,1.2-1.9,4-1.9v0.3C75.8,52,75.5,53.6,73.4,53.6z M85.9,44.9c-0.8,0-1.5,0.4-2.1,1.2v-0.9H82v0.3c0.1,0.6,0.1,1,0.1,2v7.4h1.7
	v-4.8c0-1,0.2-3.4,2-3.4c0.3,0,0.5,0,0.7,0.1l0.4,0.1v-1.8L86.7,45C86.5,45,86.2,44.9,85.9,44.9z M96.5,53.2c-0.7,0.3-1.3,0.4-2,0.4
	c-1.8,0-3-1.4-3-3.5c0-2.2,1.2-3.5,3.1-3.5c0.5,0,1.2,0.2,1.8,0.4l0.4,0.2l0.1-1.7l-0.2-0.1c-0.3-0.1-1.1-0.4-2.3-0.4
	c-2.8,0-4.8,2.1-4.8,5.1c0,2.5,1.4,5.1,4.7,5.1c0.9,0,1.6-0.1,2.5-0.3l0.2-0.1l-0.2-1.7C96.8,53.1,96.5,53.2,96.5,53.2z M105.2,44.9
	c-1,0-1.9,0.4-2.6,1.1v-5.1h-1.7v14h1.7v-5.2c0-1.5,0.6-3.2,2.4-3.2c1.4,0,1.9,0.7,1.9,2.6v5.8h1.7v-5.8
	C108.6,48.1,108.6,44.9,105.2,44.9z M113.3,41.2h1.7v2.1h-1.7V41.2z M113.3,45.2h1.7V55h-1.7V45.2z M124.2,44.9
	c-1.4,0-2.2,0.5-2.7,1.1v-0.9h-1.7v0.3c0.1,0.7,0.1,1.4,0.1,2.1v7.4h1.7v-5.4c0-0.7,0.2-3,2.4-3c1.3,0,1.9,0.8,1.9,2.5v5.9h1.7v-6.2
	C127.6,46.3,126.4,44.9,124.2,44.9z M138.5,45.8c-0.7-0.7-1.5-0.8-2.6-0.8c-2.6,0-4.1,1.8-4.1,5.1c0,2.3,1.1,4.9,4.2,4.9
	c1,0,1.9-0.4,2.5-1.1c-0.1,2.2-0.7,3.4-2.8,3.4c-0.9,0-1.8-0.2-2.6-0.6l-0.4-0.2l-0.1,1.6v0.3l0.2,0.1c0.5,0.1,1.6,0.5,2.8,0.5
	c2.9,0,4.6-1.8,4.6-4.9v-8.7h-1.7L138.5,45.8L138.5,45.8z M136,53.3c-2.2,0-2.3-2.5-2.3-3.3c0-1.3,0.3-3.5,2.4-3.5
	c1,0,2.4,0.4,2.4,3.5C138.5,51.6,137.8,53.3,136,53.3L136,53.3z M145.7,48H156v1.8h-10.3V48z M165.9,40.6c-2.7,0-2.7,2.4-2.7,4.2
	v0.4h-1.8v1.6h1.8v8.1h1.7v-8.2h2.1v-1.6h-2.1v-0.8c0-0.7,0-1.5,0.4-1.9c0.2-0.2,0.4-0.2,0.7-0.2s0.6,0.1,0.8,0.2l0.4,0.2l0.1-1.6
	l-0.2-0.1C166.7,40.6,166,40.6,165.9,40.6z M170.9,41.2h1.7v2.1h-1.7V41.2z M170.9,45.2h1.7V55h-1.7V45.2z M181.7,44.9
	c-1.4,0-2.2,0.5-2.7,1.1v-0.9h-1.7v0.3c0.1,0.7,0.1,1.4,0.1,2.1v7.4h1.7v-5.4c0-0.7,0.2-3,2.4-3c0.8,0,1.9,0.3,1.9,2.5v5.9h1.7v-6.2
	C185.2,46.3,183.9,44.9,181.7,44.9z M196,46.1c-0.5-0.5-1.3-1.1-2.6-1.1c-2.6,0-4.1,1.8-4.1,5.1c0,3.1,1.6,5.1,4.1,5.1
	c1.1,0,2-0.3,2.6-1v0.7h1.7v-14H196V46.1z M193.6,53.6c-2.1,0-2.4-2.2-2.4-3.5s0.3-3.5,2.4-3.5c1.9,0,2.4,2.2,2.4,3.5
	C196,51.3,195.5,53.6,193.6,53.6z M203.8,52.8h2.1v2.1h-2.1V52.8z M205.6,51.9l0.2-10.1h-2l0.2,10.1H205.6z"/>
<g>
	<path class="st0" d="M0,7.7V33h4.5V21.3h8.2V17H4.5v-5.1H13V7.7h-0.7H0z M17.2,7.7V33h4.5V7.7h-0.8H17.2z M99.7,3.3V0H79.8v4h19.9
		L99.7,3.3z M142.6,3.3V0h-19.8v4h19.8V3.3z M59.5,7.7h-5.7V33h5.6c8.8,0,14.2-4.9,14.2-12.8C73.6,12.6,68.1,7.7,59.5,7.7z
		 M58.6,28.7h-0.3V11.9h0.3c4.8,0,10.5,1.5,10.5,8.4C69.1,27.3,63.4,28.7,58.6,28.7z M89.7,7.2c-7.3,0-13.2,5.9-13.2,13.2
		c0,7.4,5.8,13.2,13.2,13.2c7.4,0,13.2-5.8,13.2-13.2C103,13.1,97,7.2,89.7,7.2z M89.7,29.1c-4.8,0-8.7-4-8.7-8.8
		c0-5,3.7-8.8,8.7-8.8s8.7,3.8,8.7,8.8C98.5,25.2,94.5,29.1,89.7,29.1z M111.2,7.7h-4.5V33h11.7v-4.3h-7.2
		C111.2,28.7,111.2,7.7,111.2,7.7z M132.7,7.2c-7.3,0-13.2,5.9-13.2,13.2c0,7.4,5.8,13.2,13.2,13.2s13.2-5.8,13.2-13.2
		C145.9,13.1,140,7.2,132.7,7.2z M132.7,29.1c-4.8,0-8.7-4-8.7-8.8c0-5,3.7-8.8,8.7-8.8s8.7,3.8,8.7,8.8
		C141.4,25.2,137.5,29.1,132.7,29.1z M162.6,23.7h6c-0.6,3.2-4,5.5-6.9,5.5c-4.5,0-8.5-4.2-8.5-8.9c0-5,3.8-8.9,8.7-8.9
		c2.6,0,5.3,1.4,6.8,3.6l0.5,0.7l3.2-3.1L172,12c-2.4-3.1-6.3-4.9-10.3-4.9c-7.2,0-13.1,5.9-13.1,13.2c0,7.1,5.9,13.1,12.8,13.1
		c7,0,12-5.2,12-12.3v-1.7h-11v4.3H162.6z M177.2,7.7V33h4.5V7.7H181H177.2z M198.8,11.4c2.1,0,4.3,0.8,5.8,2.1l1.3,1.1V9l-0.4-0.2
		c-1.8-1.1-4-1.7-6.4-1.7c-7.5,0-13.4,5.8-13.4,13.3c0,7.2,5.9,13,13.2,13c2.3,0,4.7-0.7,6.6-1.8l0.4-0.2v-5.7l-1.3,1.1
		c-1.6,1.5-3.7,2.3-5.8,2.3c-4.7,0-8.6-4-8.6-8.9C190.2,15.4,194,11.4,198.8,11.4L198.8,11.4z M44.6,23.4C42.3,21,26.7,7.2,26.7,7.2
		v25.7h4.5V17.2C33.5,19.6,49,33.5,49,33.5V7.6h-4.5C44.5,7.6,44.6,20.4,44.6,23.4z"/>
	<path class="st0" d="M89.7,16.6c-2,0-3.7,1.6-3.7,3.7c0,2,1.6,3.7,3.7,3.7c2,0,3.7-1.6,3.7-3.7C93.4,18.3,91.8,16.6,89.7,16.6z
		 M132.7,16.8c-2,0-3.5,1.6-3.5,3.5c0,2,1.6,3.5,3.5,3.5c2,0,3.5-1.6,3.5-3.5C136.2,18.3,134.7,16.8,132.7,16.8z"/>
</g>
</svg>
