<svg version="1.1" viewBox="0.0 0.0 960.0 720.0" fill="none" stroke="none" stroke-linecap="square" stroke-miterlimit="10" xmlns:xlink="http://www.w3.org/1999/xlink" xmlns="http://www.w3.org/2000/svg"><clipPath id="p.0"><path d="m0 0l960.0 0l0 720.0l-960.0 0l0 -720.0z" clip-rule="nonzero"/></clipPath><g clip-path="url(#p.0)"><path fill="#000000" fill-opacity="0.0" d="m0 0l960.0 0l0 720.0l-960.0 0z" fill-rule="evenodd"/><path fill="#000000" fill-opacity="0.0" d="m20.853018 45.0l74.64567 0l0 637.6693l-74.64567 0z" fill-rule="evenodd"/><path fill="#000000" fill-opacity="0.0" d="m800.7559 45.0l74.64563 0l0 637.6693l-74.64563 0z" fill-rule="evenodd"/><path fill="#000000" fill-opacity="0.0" d="m58.175854 682.6693l0 -637.6693" fill-rule="evenodd"/><path stroke="#000000" stroke-width="3.0" stroke-linejoin="round" stroke-linecap="butt" d="m58.175854 682.6693l0 -619.6693" fill-rule="evenodd"/><path fill="#000000" stroke="#000000" stroke-width="3.0" stroke-linecap="butt" d="m63.13105 63.0l-4.9551964 -13.614292l-4.9551964 13.614292z" fill-rule="evenodd"/><path fill="#000000" fill-opacity="0.0" d="m58.175854 682.6693l779.9055 0" fill-rule="evenodd"/><path stroke="#000000" stroke-width="3.0" stroke-linejoin="round" stroke-linecap="butt" d="m58.175854 682.6693l761.9055 0" fill-rule="evenodd"/><path fill="#000000" stroke="#000000" stroke-width="3.0" stroke-linecap="butt" d="m820.08136 687.6245l13.614319 -4.9552l-13.614319 -4.9552z" fill-rule="evenodd"/><path fill="#ffe599" d="m128.4147 190.43307l0 0c0 -2.7309875 2.2138977 -4.9448853 4.94487 -4.9448853l0 0c1.3114777 0 2.5692139 0.52098083 3.4965668 1.4483185c0.92733765 0.9273529 1.4483185 2.1851044 1.4483185 3.4965668l0 0c0 2.7309723 -2.2138977 4.9448853 -4.9448853 4.9448853l0 0c-2.7309723 0 -4.94487 -2.213913 -4.94487 -4.9448853z" fill-rule="evenodd"/><path stroke="#000000" stroke-width="1.0" stroke-linejoin="round" stroke-linecap="butt" d="m128.4147 190.43307l0 0c0 -2.7309875 2.2138977 -4.9448853 4.94487 -4.9448853l0 0c1.3114777 0 2.5692139 0.52098083 3.4965668 1.4483185c0.92733765 0.9273529 1.4483185 2.1851044 1.4483185 3.4965668l0 0c0 2.7309723 -2.2138977 4.9448853 -4.9448853 4.9448853l0 0c-2.7309723 0 -4.94487 -2.213913 -4.94487 -4.9448853z" fill-rule="evenodd"/><path fill="#ffe599" d="m165.17323 162.53018l0 0c0 -2.7309875 2.2138977 -4.9448853 4.94487 -4.9448853l0 0c1.3114777 0 2.5692139 0.52098083 3.4965668 1.4483337c0.92733765 0.92733765 1.4483185 2.185089 1.4483185 3.4965515l0 0c0 2.7309875 -2.2138977 4.9448853 -4.9448853 4.9448853l0 0c-2.7309723 0 -4.94487 -2.2138977 -4.94487 -4.9448853z" fill-rule="evenodd"/><path stroke="#000000" stroke-width="1.0" stroke-linejoin="round" stroke-linecap="butt" d="m165.17323 162.53018l0 0c0 -2.7309875 2.2138977 -4.9448853 4.94487 -4.9448853l0 0c1.3114777 0 2.5692139 0.52098083 3.4965668 1.4483337c0.92733765 0.92733765 1.4483185 2.185089 1.4483185 3.4965515l0 0c0 2.7309875 -2.2138977 4.9448853 -4.9448853 4.9448853l0 0c-2.7309723 0 -4.94487 -2.2138977 -4.94487 -4.9448853z" fill-rule="evenodd"/><path fill="#ffe599" d="m204.31758 172.41995l0 0c0 -2.7309875 2.2138977 -4.9448853 4.9448853 -4.9448853l0 0c1.3114624 0 2.5692139 0.52098083 3.4965668 1.4483185c0.92733765 0.9273529 1.4483185 2.1851044 1.4483185 3.4965668l0 0c0 2.7309723 -2.2138977 4.94487 -4.9448853 4.94487l0 0c-2.7309875 0 -4.9448853 -2.2138977 -4.9448853 -4.94487z" fill-rule="evenodd"/><path stroke="#000000" stroke-width="1.0" stroke-linejoin="round" stroke-linecap="butt" d="m204.31758 172.41995l0 0c0 -2.7309875 2.2138977 -4.9448853 4.9448853 -4.9448853l0 0c1.3114624 0 2.5692139 0.52098083 3.4965668 1.4483185c0.92733765 0.9273529 1.4483185 2.1851044 1.4483185 3.4965668l0 0c0 2.7309723 -2.2138977 4.94487 -4.9448853 4.94487l0 0c-2.7309875 0 -4.9448853 -2.2138977 -4.9448853 -4.94487z" fill-rule="evenodd"/><path fill="#ffe599" d="m179.70866 200.32283l0 0c0 -2.7309723 2.2138977 -4.94487 4.9448853 -4.94487l0 0c1.3114624 0 2.5692139 0.5209656 3.4965515 1.4483185c0.9273529 0.92733765 1.4483185 2.185089 1.4483185 3.4965515l0 0c0 2.7309875 -2.2138977 4.9448853 -4.94487 4.9448853l0 0c-2.7309875 0 -4.9448853 -2.2138977 -4.9448853 -4.9448853z" fill-rule="evenodd"/><path stroke="#000000" stroke-width="1.0" stroke-linejoin="round" stroke-linecap="butt" d="m179.70866 200.32283l0 0c0 -2.7309723 2.2138977 -4.94487 4.9448853 -4.94487l0 0c1.3114624 0 2.5692139 0.5209656 3.4965515 1.4483185c0.9273529 0.92733765 1.4483185 2.185089 1.4483185 3.4965515l0 0c0 2.7309875 -2.2138977 4.9448853 -4.94487 4.9448853l0 0c-2.7309875 0 -4.9448853 -2.2138977 -4.9448853 -4.9448853z" fill-rule="evenodd"/><path fill="#ffe599" d="m483.3176 153.4567l0 0c0 -2.7309875 2.2138977 -4.9448853 4.9448853 -4.9448853l0 0c1.3114624 0 2.5692139 0.52098083 3.4965515 1.4483185c0.92733765 0.9273529 1.4483032 2.1851044 1.4483032 3.4965668l0 0c0 2.7309875 -2.2138977 4.9448853 -4.9448547 4.9448853l0 0c-2.7309875 0 -4.9448853 -2.2138977 -4.9448853 -4.9448853z" fill-rule="evenodd"/><path stroke="#000000" stroke-width="1.0" stroke-linejoin="round" stroke-linecap="butt" d="m483.3176 153.4567l0 0c0 -2.7309875 2.2138977 -4.9448853 4.9448853 -4.9448853l0 0c1.3114624 0 2.5692139 0.52098083 3.4965515 1.4483185c0.92733765 0.9273529 1.4483032 2.1851044 1.4483032 3.4965668l0 0c0 2.7309875 -2.2138977 4.9448853 -4.9448547 4.9448853l0 0c-2.7309875 0 -4.9448853 -2.2138977 -4.9448853 -4.9448853z" fill-rule="evenodd"/><path fill="#ffe599" d="m515.31757 169.4567l0 0c0 -2.7309875 2.2139282 -4.9448853 4.9448853 -4.9448853l0 0c1.3114624 0 2.5692139 0.52098083 3.496582 1.4483185c0.92736816 0.9273529 1.4483032 2.1851044 1.4483032 3.4965668l0 0c0 2.7309875 -2.2138672 4.9448853 -4.9448853 4.9448853l0 0c-2.730957 0 -4.9448853 -2.2138977 -4.9448853 -4.9448853z" fill-rule="evenodd"/><path stroke="#000000" stroke-width="1.0" stroke-linejoin="round" stroke-linecap="butt" d="m515.31757 169.4567l0 0c0 -2.7309875 2.2139282 -4.9448853 4.9448853 -4.9448853l0 0c1.3114624 0 2.5692139 0.52098083 3.496582 1.4483185c0.92736816 0.9273529 1.4483032 2.1851044 1.4483032 3.4965668l0 0c0 2.7309875 -2.2138672 4.9448853 -4.9448853 4.9448853l0 0c-2.730957 0 -4.9448853 -2.2138977 -4.9448853 -4.9448853z" fill-rule="evenodd"/><path fill="#ffe599" d="m451.3176 201.4567l0 0c0 -2.7309875 2.2138977 -4.9448853 4.9448853 -4.9448853l0 0c1.3114624 0 2.5692139 0.52098083 3.4965515 1.4483185c0.92733765 0.9273529 1.4483032 2.1851044 1.4483032 3.4965668l0 0c0 2.7309875 -2.2138977 4.9448853 -4.9448547 4.9448853l0 0c-2.7309875 0 -4.9448853 -2.2138977 -4.9448853 -4.9448853z" fill-rule="evenodd"/><path stroke="#000000" stroke-width="1.0" stroke-linejoin="round" stroke-linecap="butt" d="m451.3176 201.4567l0 0c0 -2.7309875 2.2138977 -4.9448853 4.9448853 -4.9448853l0 0c1.3114624 0 2.5692139 0.52098083 3.4965515 1.4483185c0.92733765 0.9273529 1.4483032 2.1851044 1.4483032 3.4965668l0 0c0 2.7309875 -2.2138977 4.9448853 -4.9448547 4.9448853l0 0c-2.7309875 0 -4.9448853 -2.2138977 -4.9448853 -4.9448853z" fill-rule="evenodd"/><path fill="#000000" fill-opacity="0.0" d="m309.51257 66.950134c11.158783 12.8048935 64.20868 57.255905 66.95276 76.82939c2.74411 19.573486 -35.3049 28.904205 -50.48819 40.611557c-15.183289 11.707336 -40.42868 18.291336 -40.61154 29.632538c-0.18286133 11.341202 26.709534 21.036316 39.514435 38.414703c12.804901 17.378387 31.644348 44.087036 37.31494 65.85565c5.670624 21.768585 -2.7427673 53.963257 -3.2913208 64.75589" fill-rule="evenodd"/><path stroke="#000000" stroke-width="1.0" stroke-linejoin="round" stroke-linecap="butt" d="m309.51257 66.950134c11.158783 12.8048935 64.20868 57.255905 66.95276 76.82939c2.74411 19.573486 -35.3049 28.904205 -50.48819 40.611557c-15.183289 11.707336 -40.42868 18.291336 -40.61154 29.632538c-0.18286133 11.341202 26.709534 21.036316 39.514435 38.414703c12.804901 17.378387 31.644348 44.087036 37.31494 65.85565c5.670624 21.768585 -2.7427673 53.963257 -3.2913208 64.75589" fill-rule="evenodd"/><path fill="#000000" fill-opacity="0.0" d="m112.6168 268.9029l98.77166 0l0 52.6929l-98.77166 0z" fill-rule="evenodd"/><path fill="#000000" d="m141.86699 297.48184l1.765625 0.453125q-0.5625 2.171875 -2.0 3.328125q-1.4375 1.140625 -3.53125 1.140625q-2.15625 0 -3.515625 -0.875q-1.34375 -0.890625 -2.0625 -2.546875q-0.703125 -1.671875 -0.703125 -3.59375q0 -2.078125 0.796875 -3.625q0.796875 -1.5625 2.265625 -2.359375q1.484375 -0.8125 3.25 -0.8125q2.0 0 3.359375 1.015625q1.375 1.015625 1.90625 2.875l-1.734375 0.40625q-0.46875 -1.453125 -1.359375 -2.109375q-0.875 -0.671875 -2.203125 -0.671875q-1.546875 0 -2.578125 0.734375q-1.03125 0.734375 -1.453125 1.984375q-0.421875 1.234375 -0.421875 2.5625q0 1.703125 0.5 2.96875q0.5 1.265625 1.546875 1.90625q1.046875 0.625 2.265625 0.625q1.484375 0 2.515625 -0.859375q1.03125 -0.859375 1.390625 -2.546875zm3.6916962 4.6875l0 -13.359375l1.640625 0l0 13.359375l-1.640625 0zm10.504196 -1.1875q-0.921875 0.765625 -1.765625 1.09375q-0.828125 0.3125 -1.796875 0.3125q-1.59375 0 -2.453125 -0.78125q-0.859375 -0.78125 -0.859375 -1.984375q0 -0.71875 0.328125 -1.296875q0.328125 -0.59375 0.84375 -0.9375q0.53125 -0.359375 1.1875 -0.546875q0.46875 -0.125 1.453125 -0.25q1.984375 -0.234375 2.921875 -0.5625q0.015625 -0.34375 0.015625 -0.421875q0 -1.0 -0.46875 -1.421875q-0.625 -0.546875 -1.875 -0.546875q-1.15625 0 -1.703125 0.40625q-0.546875 0.40625 -0.8125 1.421875l-1.609375 -0.21875q0.21875 -1.015625 0.71875 -1.640625q0.5 -0.640625 1.453125 -0.984375q0.953125 -0.34375 2.1875 -0.34375q1.25 0 2.015625 0.296875q0.78125 0.28125 1.140625 0.734375q0.375 0.4375 0.515625 1.109375q0.078125 0.421875 0.078125 1.515625l0 2.1875q0 2.28125 0.109375 2.890625q0.109375 0.59375 0.40625 1.15625l-1.703125 0q-0.265625 -0.515625 -0.328125 -1.1875zm-0.140625 -3.671875q-0.890625 0.375 -2.671875 0.625q-1.015625 0.140625 -1.4375 0.328125q-0.421875 0.1875 -0.65625 0.53125q-0.21875 0.34375 -0.21875 0.78125q0 0.65625 0.5 1.09375q0.5 0.4375 1.453125 0.4375q0.9375 0 1.671875 -0.40625q0.75 -0.421875 1.09375 -1.140625q0.265625 -0.5625 0.265625 -1.640625l0 -0.609375zm3.5475922 1.96875l1.625 -0.25q0.125 0.96875 0.75 1.5q0.625 0.515625 1.75 0.515625q1.125 0 1.671875 -0.453125q0.546875 -0.46875 0.546875 -1.09375q0 -0.546875 -0.484375 -0.875q-0.328125 -0.21875 -1.671875 -0.546875q-1.8125 -0.46875 -2.515625 -0.796875q-0.6875 -0.328125 -1.046875 -0.90625q-0.359375 -0.59375 -0.359375 -1.3125q0 -0.640625 0.296875 -1.1875q0.296875 -0.5625 0.8125 -0.921875q0.375 -0.28125 1.03125 -0.46875q0.671875 -0.203125 1.421875 -0.203125q1.140625 0 2.0 0.328125q0.859375 0.328125 1.265625 0.890625q0.421875 0.5625 0.578125 1.5l-1.609375 0.21875q-0.109375 -0.75 -0.640625 -1.171875q-0.515625 -0.421875 -1.46875 -0.421875q-1.140625 0 -1.625 0.375q-0.46875 0.375 -0.46875 0.875q0 0.3125 0.1875 0.578125q0.203125 0.265625 0.640625 0.4375q0.234375 0.09375 1.4375 0.421875q1.75 0.453125 2.4375 0.75q0.6875 0.296875 1.078125 0.859375q0.390625 0.5625 0.390625 1.40625q0 0.828125 -0.484375 1.546875q-0.46875 0.71875 -1.375 1.125q-0.90625 0.390625 -2.046875 0.390625q-1.875 0 -2.875 -0.78125q-0.984375 -0.78125 -1.25 -2.328125zm9.328125 0l1.625 -0.25q0.125 0.96875 0.75 1.5q0.625 0.515625 1.75 0.515625q1.125 0 1.671875 -0.453125q0.546875 -0.46875 0.546875 -1.09375q0 -0.546875 -0.484375 -0.875q-0.328125 -0.21875 -1.671875 -0.546875q-1.8125 -0.46875 -2.515625 -0.796875q-0.6875 -0.328125 -1.046875 -0.90625q-0.359375 -0.59375 -0.359375 -1.3125q0 -0.640625 0.296875 -1.1875q0.296875 -0.5625 0.8125 -0.921875q0.375 -0.28125 1.03125 -0.46875q0.671875 -0.203125 1.421875 -0.203125q1.140625 0 2.0 0.328125q0.859375 0.328125 1.265625 0.890625q0.421875 0.5625 0.578125 1.5l-1.609375 0.21875q-0.109375 -0.75 -0.640625 -1.171875q-0.515625 -0.421875 -1.46875 -0.421875q-1.140625 0 -1.625 0.375q-0.46875 0.375 -0.46875 0.875q0 0.3125 0.1875 0.578125q0.203125 0.265625 0.640625 0.4375q0.234375 0.09375 1.4375 0.421875q1.75 0.453125 2.4375 0.75q0.6875 0.296875 1.078125 0.859375q0.390625 0.5625 0.390625 1.40625q0 0.828125 -0.484375 1.546875q-0.46875 0.71875 -1.375 1.125q-0.90625 0.390625 -2.046875 0.390625q-1.875 0 -2.875 -0.78125q-0.984375 -0.78125 -1.25 -2.328125zm20.886429 2.890625l-1.640625 0l0 -10.453125q-0.59375 0.5625 -1.5625 1.140625q-0.953125 0.5625 -1.71875 0.84375l0 -1.59375q1.375 -0.640625 2.40625 -1.5625q1.03125 -0.921875 1.453125 -1.78125l1.0625 0l0 13.40625z" fill-rule="nonzero"/><path fill="#000000" fill-opacity="0.0" d="m441.6509 250.3202l98.77164 0l0 52.692917l-98.77164 0z" fill-rule="evenodd"/><path fill="#000000" d="m470.90112 278.89917l1.765625 0.453125q-0.5625 2.171875 -2.0 3.328125q-1.4375 1.140625 -3.53125 1.140625q-2.15625 0 -3.515625 -0.875q-1.34375 -0.890625 -2.0625 -2.546875q-0.703125 -1.671875 -0.703125 -3.59375q0 -2.078125 0.796875 -3.625q0.796875 -1.5625 2.265625 -2.359375q1.484375 -0.8125 3.25 -0.8125q2.0 0 3.359375 1.015625q1.375 1.015625 1.90625 2.875l-1.734375 0.40625q-0.46875 -1.453125 -1.359375 -2.109375q-0.875 -0.671875 -2.203125 -0.671875q-1.546875 0 -2.578125 0.734375q-1.03125 0.734375 -1.453125 1.984375q-0.421875 1.234375 -0.421875 2.5625q0 1.703125 0.5 2.96875q0.5 1.265625 1.546875 1.90625q1.046875 0.625 2.265625 0.625q1.484375 0 2.515625 -0.859375q1.03125 -0.859375 1.390625 -2.546875zm3.691681 4.6875l0 -13.359375l1.640625 0l0 13.359375l-1.640625 0zm10.504211 -1.1875q-0.921875 0.765625 -1.765625 1.09375q-0.828125 0.3125 -1.796875 0.3125q-1.59375 0 -2.453125 -0.78125q-0.859375 -0.78125 -0.859375 -1.984375q0 -0.71875 0.328125 -1.296875q0.328125 -0.59375 0.84375 -0.9375q0.53125 -0.359375 1.1875 -0.546875q0.46875 -0.125 1.453125 -0.25q1.984375 -0.234375 2.921875 -0.5625q0.015625 -0.34375 0.015625 -0.421875q0 -1.0 -0.46875 -1.421875q-0.625 -0.546875 -1.875 -0.546875q-1.15625 0 -1.703125 0.40625q-0.546875 0.40625 -0.8125 1.421875l-1.609375 -0.21875q0.21875 -1.015625 0.71875 -1.640625q0.5 -0.640625 1.453125 -0.984375q0.953125 -0.34375 2.1875 -0.34375q1.25 0 2.015625 0.296875q0.78125 0.28125 1.140625 0.734375q0.375 0.4375 0.515625 1.109375q0.078125 0.421875 0.078125 1.515625l0 2.1875q0 2.28125 0.109375 2.890625q0.109375 0.59375 0.40625 1.15625l-1.703125 0q-0.265625 -0.515625 -0.328125 -1.1875zm-0.140625 -3.671875q-0.890625 0.375 -2.671875 0.625q-1.015625 0.140625 -1.4375 0.328125q-0.421875 0.1875 -0.65625 0.53125q-0.21875 0.34375 -0.21875 0.78125q0 0.65625 0.5 1.09375q0.5 0.4375 1.453125 0.4375q0.9375 0 1.671875 -0.40625q0.75 -0.421875 1.09375 -1.140625q0.265625 -0.5625 0.265625 -1.640625l0 -0.609375zm3.547577 1.96875l1.625 -0.25q0.125 0.96875 0.75 1.5q0.625 0.515625 1.75 0.515625q1.125 0 1.671875 -0.453125q0.546875 -0.46875 0.546875 -1.09375q0 -0.546875 -0.484375 -0.875q-0.328125 -0.21875 -1.671875 -0.546875q-1.8125 -0.46875 -2.515625 -0.796875q-0.6875 -0.328125 -1.046875 -0.90625q-0.359375 -0.59375 -0.359375 -1.3125q0 -0.640625 0.296875 -1.1875q0.296875 -0.5625 0.8125 -0.921875q0.375 -0.28125 1.03125 -0.46875q0.671875 -0.203125 1.421875 -0.203125q1.140625 0 2.0 0.328125q0.859375 0.328125 1.265625 0.890625q0.421875 0.5625 0.578125 1.5l-1.609375 0.21875q-0.109375 -0.75 -0.640625 -1.171875q-0.515625 -0.421875 -1.46875 -0.421875q-1.140625 0 -1.625 0.375q-0.46875 0.375 -0.46875 0.875q0 0.3125 0.1875 0.578125q0.203125 0.265625 0.640625 0.4375q0.234375 0.09375 1.4375 0.421875q1.75 0.453125 2.4375 0.75q0.6875 0.296875 1.078125 0.859375q0.390625 0.5625 0.390625 1.40625q0 0.828125 -0.484375 1.546875q-0.46875 0.71875 -1.375 1.125q-0.90625 0.390625 -2.046875 0.390625q-1.875 0 -2.875 -0.78125q-0.984375 -0.78125 -1.25 -2.328125zm9.328125 0l1.625 -0.25q0.125 0.96875 0.75 1.5q0.625 0.515625 1.75 0.515625q1.125 0 1.671875 -0.453125q0.546875 -0.46875 0.546875 -1.09375q0 -0.546875 -0.484375 -0.875q-0.328125 -0.21875 -1.671875 -0.546875q-1.8125 -0.46875 -2.515625 -0.796875q-0.6875 -0.328125 -1.046875 -0.90625q-0.359375 -0.59375 -0.359375 -1.3125q0 -0.640625 0.296875 -1.1875q0.296875 -0.5625 0.8125 -0.921875q0.375 -0.28125 1.03125 -0.46875q0.671875 -0.203125 1.421875 -0.203125q1.140625 0 2.0 0.328125q0.859375 0.328125 1.265625 0.890625q0.421875 0.5625 0.578125 1.5l-1.609375 0.21875q-0.109375 -0.75 -0.640625 -1.171875q-0.515625 -0.421875 -1.46875 -0.421875q-1.140625 0 -1.625 0.375q-0.46875 0.375 -0.46875 0.875q0 0.3125 0.1875 0.578125q0.203125 0.265625 0.640625 0.4375q0.234375 0.09375 1.4375 0.421875q1.75 0.453125 2.4375 0.75q0.6875 0.296875 1.078125 0.859375q0.390625 0.5625 0.390625 1.40625q0 0.828125 -0.484375 1.546875q-0.46875 0.71875 -1.375 1.125q-0.90625 0.390625 -2.046875 0.390625q-1.875 0 -2.875 -0.78125q-0.984375 -0.78125 -1.25 -2.328125zm23.323914 1.3125l0 1.578125l-8.828125 0q-0.015625 -0.59375 0.1875 -1.140625q0.34375 -0.90625 1.078125 -1.78125q0.75 -0.875 2.15625 -2.015625q2.171875 -1.78125 2.9375 -2.828125q0.765625 -1.046875 0.765625 -1.96875q0 -0.984375 -0.703125 -1.640625q-0.6875 -0.671875 -1.8125 -0.671875q-1.1875 0 -1.90625 0.71875q-0.703125 0.703125 -0.703125 1.953125l-1.6875 -0.171875q0.171875 -1.890625 1.296875 -2.875q1.140625 -0.984375 3.03125 -0.984375q1.921875 0 3.046875 1.0625q1.125 1.0625 1.125 2.640625q0 0.796875 -0.328125 1.578125q-0.328125 0.78125 -1.09375 1.640625q-0.75 0.84375 -2.53125 2.34375q-1.46875 1.234375 -1.890625 1.6875q-0.421875 0.4375 -0.6875 0.875l6.546875 0z" fill-rule="nonzero"/></g></svg>