<svg version="1.1" viewBox="0.0 0.0 470.20472440944883 253.01049868766404" fill="none" stroke="none" stroke-linecap="square" stroke-miterlimit="10" xmlns:xlink="http://www.w3.org/1999/xlink" xmlns="http://www.w3.org/2000/svg"><clipPath id="p.0"><path d="m0 0l470.2047 0l0 253.0105l-470.2047 0l0 -253.0105z" clip-rule="nonzero"/></clipPath><g clip-path="url(#p.0)"><path fill="#000000" fill-opacity="0.0" d="m0 0l470.2047 0l0 253.0105l-470.2047 0z" fill-rule="evenodd"/><path fill="#000000" fill-opacity="0.0" d="m23.24147 8.440945l196.59842 0l0 196.59842l-196.59842 0z" fill-rule="evenodd"/><path stroke="#000000" stroke-width="1.0" stroke-linejoin="round" stroke-linecap="butt" d="m23.24147 8.440945l196.59842 0l0 196.59842l-196.59842 0z" fill-rule="evenodd"/><path fill="#ffe599" d="m137.64305 145.73228l0 0c0 -3.2963104 2.6721802 -5.968506 5.9684906 -5.968506l0 0c1.5829468 0 3.101059 0.62882996 4.2203827 1.7481384c1.1193085 1.1193085 1.7481232 2.6374207 1.7481232 4.2203674l0 0c0 3.2963104 -2.6721802 5.968506 -5.968506 5.968506l0 0c-3.2963104 0 -5.9684906 -2.6721954 -5.9684906 -5.968506z" fill-rule="evenodd"/><path stroke="#000000" stroke-width="1.0" stroke-linejoin="round" stroke-linecap="butt" d="m137.64305 145.73228l0 0c0 -3.2963104 2.6721802 -5.968506 5.9684906 -5.968506l0 0c1.5829468 0 3.101059 0.62882996 4.2203827 1.7481384c1.1193085 1.1193085 1.7481232 2.6374207 1.7481232 4.2203674l0 0c0 3.2963104 -2.6721802 5.968506 -5.968506 5.968506l0 0c-3.2963104 0 -5.9684906 -2.6721954 -5.9684906 -5.968506z" fill-rule="evenodd"/><path fill="#cfe2f3" d="m78.091866 62.16273l0 0c0 -3.2963142 2.6721878 -5.968506 5.968498 -5.968506l0 0c1.5829468 0 3.101059 0.6288223 4.220375 1.7481346c1.1193085 1.1193123 1.7481308 2.6374245 1.7481308 4.2203712l0 0c0 3.2963142 -2.6721878 5.968502 -5.968506 5.968502l0 0c-3.2963104 0 -5.968498 -2.6721878 -5.968498 -5.968502z" fill-rule="evenodd"/><path stroke="#000000" stroke-width="1.0" stroke-linejoin="round" stroke-linecap="butt" d="m78.091866 62.16273l0 0c0 -3.2963142 2.6721878 -5.968506 5.968498 -5.968506l0 0c1.5829468 0 3.101059 0.6288223 4.220375 1.7481346c1.1193085 1.1193123 1.7481308 2.6374245 1.7481308 4.2203712l0 0c0 3.2963142 -2.6721878 5.968502 -5.968506 5.968502l0 0c-3.2963104 0 -5.968498 -2.6721878 -5.968498 -5.968502z" fill-rule="evenodd"/><path fill="#cfe2f3" d="m90.02887 91.01837l0 0c0 -3.2963104 2.6721954 -5.968506 5.968506 -5.968506l0 0c1.5829468 0 3.101059 0.6288223 4.2203674 1.7481384c1.1193161 1.1193085 1.7481384 2.6374207 1.7481384 4.2203674l0 0c0 3.296318 -2.6721954 5.968506 -5.968506 5.968506l0 0c-3.2963104 0 -5.968506 -2.6721878 -5.968506 -5.968506z" fill-rule="evenodd"/><path stroke="#000000" stroke-width="1.0" stroke-linejoin="round" stroke-linecap="butt" d="m90.02887 91.01837l0 0c0 -3.2963104 2.6721954 -5.968506 5.968506 -5.968506l0 0c1.5829468 0 3.101059 0.6288223 4.2203674 1.7481384c1.1193161 1.1193085 1.7481384 2.6374207 1.7481384 4.2203674l0 0c0 3.296318 -2.6721954 5.968506 -5.968506 5.968506l0 0c-3.2963104 0 -5.968506 -2.6721878 -5.968506 -5.968506z" fill-rule="evenodd"/><path fill="#ffe599" d="m166.50131 97.45145l0 0c0 -3.296318 2.6721954 -5.968506 5.968506 -5.968506l0 0c1.5829468 0 3.101059 0.6288223 4.2203674 1.7481308c1.1193085 1.1193161 1.7481384 2.6374283 1.7481384 4.220375l0 0c0 3.2963104 -2.6721954 5.968498 -5.968506 5.968498l0 0c-3.2963104 0 -5.968506 -2.6721878 -5.968506 -5.968498z" fill-rule="evenodd"/><path stroke="#000000" stroke-width="1.0" stroke-linejoin="round" stroke-linecap="butt" d="m166.50131 97.45145l0 0c0 -3.296318 2.6721954 -5.968506 5.968506 -5.968506l0 0c1.5829468 0 3.101059 0.6288223 4.2203674 1.7481308c1.1193085 1.1193161 1.7481384 2.6374283 1.7481384 4.220375l0 0c0 3.2963104 -2.6721954 5.968498 -5.968506 5.968498l0 0c-3.2963104 0 -5.968506 -2.6721878 -5.968506 -5.968498z" fill-rule="evenodd"/><path fill="#cfe2f3" d="m108.784775 74.09974l0 0c0 -3.296318 2.6721954 -5.968506 5.968506 -5.968506l0 0c1.5829468 0 3.101059 0.6288223 4.2203674 1.7481384c1.1193161 1.1193085 1.7481384 2.6374207 1.7481384 4.2203674l0 0c0 3.2963104 -2.6721954 5.968506 -5.968506 5.968506l0 0c-3.2963104 0 -5.968506 -2.6721954 -5.968506 -5.968506z" fill-rule="evenodd"/><path stroke="#000000" stroke-width="1.0" stroke-linejoin="round" stroke-linecap="butt" d="m108.784775 74.09974l0 0c0 -3.296318 2.6721954 -5.968506 5.968506 -5.968506l0 0c1.5829468 0 3.101059 0.6288223 4.2203674 1.7481384c1.1193161 1.1193085 1.7481384 2.6374207 1.7481384 4.2203674l0 0c0 3.2963104 -2.6721954 5.968506 -5.968506 5.968506l0 0c-3.2963104 0 -5.968506 -2.6721954 -5.968506 -5.968506z" fill-rule="evenodd"/><path fill="#cfe2f3" d="m62.335957 109.38845l0 0c0 -3.2963104 2.6721916 -5.968506 5.968502 -5.968506l0 0c1.5829468 0 3.101059 0.6288223 4.220375 1.7481384c1.1193085 1.1193085 1.7481308 2.6374207 1.7481308 4.2203674l0 0c0 3.296318 -2.6721878 5.968506 -5.968506 5.968506l0 0c-3.2963104 0 -5.968502 -2.6721878 -5.968502 -5.968506z" fill-rule="evenodd"/><path stroke="#000000" stroke-width="1.0" stroke-linejoin="round" stroke-linecap="butt" d="m62.335957 109.38845l0 0c0 -3.2963104 2.6721916 -5.968506 5.968502 -5.968506l0 0c1.5829468 0 3.101059 0.6288223 4.220375 1.7481384c1.1193085 1.1193085 1.7481308 2.6374207 1.7481308 4.2203674l0 0c0 3.296318 -2.6721878 5.968506 -5.968506 5.968506l0 0c-3.2963104 0 -5.968502 -2.6721878 -5.968502 -5.968506z" fill-rule="evenodd"/><path fill="#ffe599" d="m149.58005 74.09974l0 0c0 -3.296318 2.6721954 -5.968506 5.968506 -5.968506l0 0c1.5829468 0 3.101059 0.6288223 4.2203674 1.7481384c1.1193237 1.1193085 1.7481384 2.6374207 1.7481384 4.2203674l0 0c0 3.2963104 -2.6721954 5.968506 -5.968506 5.968506l0 0c-3.2963104 0 -5.968506 -2.6721954 -5.968506 -5.968506z" fill-rule="evenodd"/><path stroke="#000000" stroke-width="1.0" stroke-linejoin="round" stroke-linecap="butt" d="m149.58005 74.09974l0 0c0 -3.296318 2.6721954 -5.968506 5.968506 -5.968506l0 0c1.5829468 0 3.101059 0.6288223 4.2203674 1.7481384c1.1193237 1.1193085 1.7481384 2.6374207 1.7481384 4.2203674l0 0c0 3.2963104 -2.6721954 5.968506 -5.968506 5.968506l0 0c-3.2963104 0 -5.968506 -2.6721954 -5.968506 -5.968506z" fill-rule="evenodd"/><path fill="#cfe2f3" d="m131.21523 46.406826l0 0c0 -3.2963142 2.6721954 -5.968506 5.968506 -5.968506l0 0c1.5829468 0 3.101059 0.6288223 4.2203674 1.7481346c1.1193085 1.1193123 1.7481384 2.6374245 1.7481384 4.2203712l0 0c0 3.2963104 -2.6721954 5.968502 -5.968506 5.968502l0 0c-3.2963104 0 -5.968506 -2.6721916 -5.968506 -5.968502z" fill-rule="evenodd"/><path stroke="#000000" stroke-width="1.0" stroke-linejoin="round" stroke-linecap="butt" d="m131.21523 46.406826l0 0c0 -3.2963142 2.6721954 -5.968506 5.968506 -5.968506l0 0c1.5829468 0 3.101059 0.6288223 4.2203674 1.7481346c1.1193085 1.1193123 1.7481384 2.6374245 1.7481384 4.2203712l0 0c0 3.2963104 -2.6721954 5.968502 -5.968506 5.968502l0 0c-3.2963104 0 -5.968506 -2.6721916 -5.968506 -5.968502z" fill-rule="evenodd"/><path fill="#ffe599" d="m131.21523 121.32546l0 0c0 -3.296318 2.6721954 -5.968506 5.968506 -5.968506l0 0c1.5829468 0 3.101059 0.6288223 4.2203674 1.7481308c1.1193085 1.1193161 1.7481384 2.6374283 1.7481384 4.220375l0 0c0 3.2963104 -2.6721954 5.968498 -5.968506 5.968498l0 0c-3.2963104 0 -5.968506 -2.6721878 -5.968506 -5.968498z" fill-rule="evenodd"/><path stroke="#000000" stroke-width="1.0" stroke-linejoin="round" stroke-linecap="butt" d="m131.21523 121.32546l0 0c0 -3.296318 2.6721954 -5.968506 5.968506 -5.968506l0 0c1.5829468 0 3.101059 0.6288223 4.2203674 1.7481308c1.1193085 1.1193161 1.7481384 2.6374283 1.7481384 4.220375l0 0c0 3.2963104 -2.6721954 5.968498 -5.968506 5.968498l0 0c-3.2963104 0 -5.968506 -2.6721878 -5.968506 -5.968498z" fill-rule="evenodd"/><path fill="#ffe599" d="m84.52231 145.73228l0 0c0 -3.2963104 2.6721878 -5.968506 5.968506 -5.968506l0 0c1.5829468 0 3.101059 0.62882996 4.2203674 1.7481384c1.1193161 1.1193085 1.7481384 2.6374207 1.7481384 4.2203674l0 0c0 3.2963104 -2.6721954 5.968506 -5.968506 5.968506l0 0c-3.296318 0 -5.968506 -2.6721954 -5.968506 -5.968506z" fill-rule="evenodd"/><path stroke="#000000" stroke-width="1.0" stroke-linejoin="round" stroke-linecap="butt" d="m84.52231 145.73228l0 0c0 -3.2963104 2.6721878 -5.968506 5.968506 -5.968506l0 0c1.5829468 0 3.101059 0.62882996 4.2203674 1.7481384c1.1193161 1.1193085 1.7481384 2.6374207 1.7481384 4.2203674l0 0c0 3.2963104 -2.6721954 5.968506 -5.968506 5.968506l0 0c-3.296318 0 -5.968506 -2.6721954 -5.968506 -5.968506z" fill-rule="evenodd"/><path fill="#000000" fill-opacity="0.0" d="m250.3622 8.440945l196.59843 0l0 196.59842l-196.59843 0z" fill-rule="evenodd"/><path stroke="#000000" stroke-width="1.0" stroke-linejoin="round" stroke-linecap="butt" d="m250.3622 8.440945l196.59843 0l0 196.59842l-196.59843 0z" fill-rule="evenodd"/><path fill="#ffe599" d="m329.60367 114.509186l0 0c0 -3.2963104 2.6722107 -5.968506 5.968506 -5.968506l0 0c1.5829468 0 3.1010742 0.6288223 4.2203674 1.7481384c1.1193237 1.1193085 1.7481384 2.6374207 1.7481384 4.2203674l0 0c0 3.296318 -2.6721802 5.968506 -5.968506 5.968506l0 0c-3.2962952 0 -5.968506 -2.6721878 -5.968506 -5.968506z" fill-rule="evenodd"/><path stroke="#000000" stroke-width="1.0" stroke-linejoin="round" stroke-linecap="butt" d="m329.60367 114.509186l0 0c0 -3.2963104 2.6722107 -5.968506 5.968506 -5.968506l0 0c1.5829468 0 3.1010742 0.6288223 4.2203674 1.7481384c1.1193237 1.1193085 1.7481384 2.6374207 1.7481384 4.2203674l0 0c0 3.296318 -2.6721802 5.968506 -5.968506 5.968506l0 0c-3.2962952 0 -5.968506 -2.6721878 -5.968506 -5.968506z" fill-rule="evenodd"/><path fill="#c9daf8" d="m305.2126 62.16273l0 0c0 -3.2963142 2.6722107 -5.968506 5.968506 -5.968506l0 0c1.5829468 0 3.1010742 0.6288223 4.2203674 1.7481346c1.1193237 1.1193123 1.7481384 2.6374245 1.7481384 4.2203712l0 0c0 3.2963142 -2.6721802 5.968502 -5.968506 5.968502l0 0c-3.2962952 0 -5.968506 -2.6721878 -5.968506 -5.968502z" fill-rule="evenodd"/><path stroke="#000000" stroke-width="1.0" stroke-linejoin="round" stroke-linecap="butt" d="m305.2126 62.16273l0 0c0 -3.2963142 2.6722107 -5.968506 5.968506 -5.968506l0 0c1.5829468 0 3.1010742 0.6288223 4.2203674 1.7481346c1.1193237 1.1193123 1.7481384 2.6374245 1.7481384 4.2203712l0 0c0 3.2963142 -2.6721802 5.968502 -5.968506 5.968502l0 0c-3.2962952 0 -5.968506 -2.6721878 -5.968506 -5.968502z" fill-rule="evenodd"/><path fill="#ffe599" d="m341.53937 97.45145l0 0c0 -3.296318 2.6721802 -5.968506 5.968506 -5.968506l0 0c1.5829468 0 3.1010437 0.6288223 4.2203674 1.7481308c1.1193237 1.1193161 1.7481384 2.6374283 1.7481384 4.220375l0 0c0 3.2963104 -2.6721802 5.968498 -5.968506 5.968498l0 0c-3.2963257 0 -5.968506 -2.6721878 -5.968506 -5.968498z" fill-rule="evenodd"/><path stroke="#000000" stroke-width="1.0" stroke-linejoin="round" stroke-linecap="butt" d="m341.53937 97.45145l0 0c0 -3.296318 2.6721802 -5.968506 5.968506 -5.968506l0 0c1.5829468 0 3.1010437 0.6288223 4.2203674 1.7481308c1.1193237 1.1193161 1.7481384 2.6374283 1.7481384 4.220375l0 0c0 3.2963104 -2.6721802 5.968498 -5.968506 5.968498l0 0c-3.2963257 0 -5.968506 -2.6721878 -5.968506 -5.968498z" fill-rule="evenodd"/><path fill="#c9daf8" d="m393.62204 97.45145l0 0c0 -3.296318 2.6722107 -5.968506 5.968506 -5.968506l0 0c1.5829468 0 3.1010742 0.6288223 4.2203674 1.7481308c1.1193237 1.1193161 1.7481384 2.6374283 1.7481384 4.220375l0 0c0 3.2963104 -2.6721802 5.968498 -5.968506 5.968498l0 0c-3.2962952 0 -5.968506 -2.6721878 -5.968506 -5.968498z" fill-rule="evenodd"/><path stroke="#000000" stroke-width="1.0" stroke-linejoin="round" stroke-linecap="butt" d="m393.62204 97.45145l0 0c0 -3.296318 2.6722107 -5.968506 5.968506 -5.968506l0 0c1.5829468 0 3.1010742 0.6288223 4.2203674 1.7481308c1.1193237 1.1193161 1.7481384 2.6374283 1.7481384 4.220375l0 0c0 3.2963104 -2.6721802 5.968498 -5.968506 5.968498l0 0c-3.2962952 0 -5.968506 -2.6721878 -5.968506 -5.968498z" fill-rule="evenodd"/><path fill="#ffe599" d="m335.90552 74.09974l0 0c0 -3.296318 2.6721802 -5.968506 5.968506 -5.968506l0 0c1.5829468 0 3.1010437 0.6288223 4.2203674 1.7481384c1.1192932 1.1193085 1.7481384 2.6374207 1.7481384 4.2203674l0 0c0 3.2963104 -2.6722107 5.968506 -5.968506 5.968506l0 0c-3.2963257 0 -5.968506 -2.6721954 -5.968506 -5.968506z" fill-rule="evenodd"/><path stroke="#000000" stroke-width="1.0" stroke-linejoin="round" stroke-linecap="butt" d="m335.90552 74.09974l0 0c0 -3.296318 2.6721802 -5.968506 5.968506 -5.968506l0 0c1.5829468 0 3.1010437 0.6288223 4.2203674 1.7481384c1.1192932 1.1193085 1.7481384 2.6374207 1.7481384 4.2203674l0 0c0 3.2963104 -2.6722107 5.968506 -5.968506 5.968506l0 0c-3.2963257 0 -5.968506 -2.6721954 -5.968506 -5.968506z" fill-rule="evenodd"/><path fill="#c9daf8" d="m289.4567 109.38845l0 0c0 -3.2963104 2.6721802 -5.968506 5.968506 -5.968506l0 0c1.5829468 0 3.1010437 0.6288223 4.2203674 1.7481384c1.1193237 1.1193085 1.7481384 2.6374207 1.7481384 4.2203674l0 0c0 3.296318 -2.6722107 5.968506 -5.968506 5.968506l0 0c-3.2963257 0 -5.968506 -2.6721878 -5.968506 -5.968506z" fill-rule="evenodd"/><path stroke="#000000" stroke-width="1.0" stroke-linejoin="round" stroke-linecap="butt" d="m289.4567 109.38845l0 0c0 -3.2963104 2.6721802 -5.968506 5.968506 -5.968506l0 0c1.5829468 0 3.1010437 0.6288223 4.2203674 1.7481384c1.1193237 1.1193085 1.7481384 2.6374207 1.7481384 4.2203674l0 0c0 3.296318 -2.6722107 5.968506 -5.968506 5.968506l0 0c-3.2963257 0 -5.968506 -2.6721878 -5.968506 -5.968506z" fill-rule="evenodd"/><path fill="#c9daf8" d="m376.70078 74.09974l0 0c0 -3.296318 2.6722107 -5.968506 5.968506 -5.968506l0 0c1.5829468 0 3.1010742 0.6288223 4.2203674 1.7481384c1.1193237 1.1193085 1.7481384 2.6374207 1.7481384 4.2203674l0 0c0 3.2963104 -2.6721802 5.968506 -5.968506 5.968506l0 0c-3.2962952 0 -5.968506 -2.6721954 -5.968506 -5.968506z" fill-rule="evenodd"/><path stroke="#000000" stroke-width="1.0" stroke-linejoin="round" stroke-linecap="butt" d="m376.70078 74.09974l0 0c0 -3.296318 2.6722107 -5.968506 5.968506 -5.968506l0 0c1.5829468 0 3.1010742 0.6288223 4.2203674 1.7481384c1.1193237 1.1193085 1.7481384 2.6374207 1.7481384 4.2203674l0 0c0 3.2963104 -2.6721802 5.968506 -5.968506 5.968506l0 0c-3.2962952 0 -5.968506 -2.6721954 -5.968506 -5.968506z" fill-rule="evenodd"/><path fill="#c9daf8" d="m358.33597 46.406826l0 0c0 -3.2963142 2.6721802 -5.968506 5.968506 -5.968506l0 0c1.5829468 0 3.1010437 0.6288223 4.2203674 1.7481346c1.1192932 1.1193123 1.7481384 2.6374245 1.7481384 4.2203712l0 0c0 3.2963104 -2.6722107 5.968502 -5.968506 5.968502l0 0c-3.2963257 0 -5.968506 -2.6721916 -5.968506 -5.968502z" fill-rule="evenodd"/><path stroke="#000000" stroke-width="1.0" stroke-linejoin="round" stroke-linecap="butt" d="m358.33597 46.406826l0 0c0 -3.2963142 2.6721802 -5.968506 5.968506 -5.968506l0 0c1.5829468 0 3.1010437 0.6288223 4.2203674 1.7481346c1.1192932 1.1193123 1.7481384 2.6374245 1.7481384 4.2203712l0 0c0 3.2963104 -2.6722107 5.968502 -5.968506 5.968502l0 0c-3.2963257 0 -5.968506 -2.6721916 -5.968506 -5.968502z" fill-rule="evenodd"/><path fill="#c9daf8" d="m358.33597 121.32546l0 0c0 -3.296318 2.6721802 -5.968506 5.968506 -5.968506l0 0c1.5829468 0 3.1010437 0.6288223 4.2203674 1.7481308c1.1192932 1.1193161 1.7481384 2.6374283 1.7481384 4.220375l0 0c0 3.2963104 -2.6722107 5.968498 -5.968506 5.968498l0 0c-3.2963257 0 -5.968506 -2.6721878 -5.968506 -5.968498z" fill-rule="evenodd"/><path stroke="#000000" stroke-width="1.0" stroke-linejoin="round" stroke-linecap="butt" d="m358.33597 121.32546l0 0c0 -3.296318 2.6721802 -5.968506 5.968506 -5.968506l0 0c1.5829468 0 3.1010437 0.6288223 4.2203674 1.7481308c1.1192932 1.1193161 1.7481384 2.6374283 1.7481384 4.220375l0 0c0 3.2963104 -2.6722107 5.968498 -5.968506 5.968498l0 0c-3.2963257 0 -5.968506 -2.6721878 -5.968506 -5.968498z" fill-rule="evenodd"/><path fill="#c9daf8" d="m311.64304 145.73228l0 0c0 -3.2963104 2.6722107 -5.968506 5.968506 -5.968506l0 0c1.5829468 0 3.1010742 0.62882996 4.2203674 1.7481384c1.1193237 1.1193085 1.7481384 2.6374207 1.7481384 4.2203674l0 0c0 3.2963104 -2.6721802 5.968506 -5.968506 5.968506l0 0c-3.2962952 0 -5.968506 -2.6721954 -5.968506 -5.968506z" fill-rule="evenodd"/><path stroke="#000000" stroke-width="1.0" stroke-linejoin="round" stroke-linecap="butt" d="m311.64304 145.73228l0 0c0 -3.2963104 2.6722107 -5.968506 5.968506 -5.968506l0 0c1.5829468 0 3.1010742 0.62882996 4.2203674 1.7481384c1.1193237 1.1193085 1.7481384 2.6374207 1.7481384 4.2203674l0 0c0 3.2963104 -2.6721802 5.968506 -5.968506 5.968506l0 0c-3.2962952 0 -5.968506 -2.6721954 -5.968506 -5.968506z" fill-rule="evenodd"/><path fill="#000000" fill-opacity="0.0" d="m23.242783 205.0402l196.59842 0l0 39.527557l-196.59842 0z" fill-rule="evenodd"/><path fill="#000000" d="m96.97118 231.9602l0 -13.359375l1.78125 0l0 11.78125l6.5625 0l0 1.578125l-8.34375 0zm10.250717 -11.46875l0 -1.890625l1.640625 0l0 1.890625l-1.640625 0zm0 11.46875l0 -9.671875l1.640625 0l0 9.671875l-1.640625 0zm4.144821 0l0 -9.671875l1.46875 0l0 1.375q1.0625 -1.59375 3.078125 -1.59375q0.875 0 1.609375 0.3125q0.734375 0.3125 1.09375 0.828125q0.375 0.5 0.515625 1.203125q0.09375 0.453125 0.09375 1.59375l0 5.953125l-1.640625 0l0 -5.890625q0 -1.0 -0.203125 -1.484375q-0.1875 -0.5 -0.671875 -0.796875q-0.484375 -0.296875 -1.140625 -0.296875q-1.046875 0 -1.8125 0.671875q-0.75 0.65625 -0.75 2.515625l0 5.28125l-1.640625 0zm17.00071 -3.109375l1.6875 0.203125q-0.40625 1.484375 -1.484375 2.3125q-1.0781174 0.8125 -2.7656174 0.8125q-2.125 0 -3.375 -1.296875q-1.234375 -1.3125 -1.234375 -3.671875q0 -2.453125 1.25 -3.796875q1.265625 -1.34375 3.265625 -1.34375q1.9375 0 3.1562424 1.328125q1.234375 1.3125 1.234375 3.703125q0 0.15625 0 0.4375l-7.2187424 0q0.09375 1.59375 0.90625 2.453125q0.8125 0.84375 2.015625 0.84375q0.90625 0 1.546875 -0.46875q0.640625 -0.484375 1.0156174 -1.515625zm-5.3906174 -2.65625l5.4062424 0q-0.109375 -1.21875 -0.6249924 -1.828125q-0.78125 -0.953125 -2.03125 -0.953125q-1.125 0 -1.90625 0.765625q-0.765625 0.75 -0.84375 2.015625zm15.453835 4.578125q-0.921875 0.765625 -1.765625 1.09375q-0.828125 0.3125 -1.796875 0.3125q-1.59375 0 -2.453125 -0.78125q-0.859375 -0.78125 -0.859375 -1.984375q0 -0.71875 0.328125 -1.296875q0.328125 -0.59375 0.84375 -0.9375q0.53125 -0.359375 1.1875 -0.546875q0.46875 -0.125 1.453125 -0.25q1.984375 -0.234375 2.921875 -0.5625q0.015625 -0.34375 0.015625 -0.421875q0 -1.0 -0.46875 -1.421875q-0.625 -0.546875 -1.875 -0.546875q-1.15625 0 -1.703125 0.40625q-0.546875 0.40625 -0.8125 1.421875l-1.609375 -0.21875q0.21875 -1.015625 0.71875 -1.640625q0.5 -0.640625 1.453125 -0.984375q0.953125 -0.34375 2.1875 -0.34375q1.25 0 2.015625 0.296875q0.78125 0.28125 1.140625 0.734375q0.375 0.4375 0.515625 1.109375q0.078125 0.421875 0.078125 1.515625l0 2.1875q0 2.28125 0.109375 2.890625q0.109375 0.59375 0.40625 1.15625l-1.703125 0q-0.265625 -0.515625 -0.328125 -1.1875zm-0.140625 -3.671875q-0.890625 0.375 -2.671875 0.625q-1.015625 0.140625 -1.4375 0.328125q-0.421875 0.1875 -0.65625 0.53125q-0.21875 0.34375 -0.21875 0.78125q0 0.65625 0.5 1.09375q0.5 0.4375 1.453125 0.4375q0.9375 0 1.671875 -0.40625q0.75 -0.421875 1.09375 -1.140625q0.265625 -0.5625 0.265625 -1.640625l0 -0.609375zm4.188217 4.859375l0 -9.671875l1.46875 0l0 1.46875q0.5625 -1.03125 1.03125 -1.359375q0.484375 -0.328125 1.0625 -0.328125q0.828125 0 1.6875 0.53125l-0.5625 1.515625q-0.609375 -0.359375 -1.203125 -0.359375q-0.546875 0 -0.96875 0.328125q-0.421875 0.328125 -0.609375 0.890625q-0.28125 0.875 -0.28125 1.921875l0 5.0625l-1.625 0z" fill-rule="nonzero"/><path fill="#000000" fill-opacity="0.0" d="m250.36351 205.0402l196.59843 0l0 39.527557l-196.59843 0z" fill-rule="evenodd"/><path fill="#000000" d="m303.93588 231.9602l0 -13.359375l1.8125 0l7.015625 10.484375l0 -10.484375l1.6875 0l0 13.359375l-1.8125 0l-7.015625 -10.5l0 10.5l-1.6875 0zm12.676086 -4.84375q0 -2.6875 1.484375 -3.96875q1.25 -1.078125 3.046875 -1.078125q2.0 0 3.265625 1.3125q1.265625 1.296875 1.265625 3.609375q0 1.859375 -0.5625 2.9375q-0.5625 1.0625 -1.640625 1.65625q-1.0625 0.59375 -2.328125 0.59375q-2.03125 0 -3.28125 -1.296875q-1.25 -1.3125 -1.25 -3.765625zm1.6875 0q0 1.859375 0.796875 2.796875q0.8125 0.921875 2.046875 0.921875q1.21875 0 2.03125 -0.921875q0.8125 -0.9375 0.8125 -2.84375q0 -1.796875 -0.8125 -2.71875q-0.8125 -0.921875 -2.03125 -0.921875q-1.234375 0 -2.046875 0.921875q-0.796875 0.90625 -0.796875 2.765625zm9.297577 4.84375l0 -9.671875l1.46875 0l0 1.375q1.0625 -1.59375 3.078125 -1.59375q0.875 0 1.609375 0.3125q0.734375 0.3125 1.09375 0.828125q0.375 0.5 0.515625 1.203125q0.09375 0.453125 0.09375 1.59375l0 5.953125l-1.640625 0l0 -5.890625q0 -1.0 -0.203125 -1.484375q-0.1875 -0.5 -0.671875 -0.796875q-0.484375 -0.296875 -1.140625 -0.296875q-1.046875 0 -1.8125 0.671875q-0.75 0.65625 -0.75 2.515625l0 5.28125l-1.640625 0zm9.735107 -4.015625l0 -1.640625l5.03125 0l0 1.640625l-5.03125 0zm6.978302 4.015625l0 -13.359375l1.78125 0l0 11.78125l6.5625 0l0 1.578125l-8.34375 0zm10.250702 -11.46875l0 -1.890625l1.640625 0l0 1.890625l-1.640625 0zm0 11.46875l0 -9.671875l1.640625 0l0 9.671875l-1.640625 0zm4.1448364 0l0 -9.671875l1.46875 0l0 1.375q1.0625 -1.59375 3.078125 -1.59375q0.875 0 1.609375 0.3125q0.734375 0.3125 1.09375 0.828125q0.375 0.5 0.515625 1.203125q0.09375 0.453125 0.09375 1.59375l0 5.953125l-1.640625 0l0 -5.890625q0 -1.0 -0.203125 -1.484375q-0.1875 -0.5 -0.671875 -0.796875q-0.484375 -0.296875 -1.140625 -0.296875q-1.046875 0 -1.8125 0.671875q-0.75 0.65625 -0.75 2.515625l0 5.28125l-1.640625 0zm17.000702 -3.109375l1.6875 0.203125q-0.40625 1.484375 -1.484375 2.3125q-1.078125 0.8125 -2.765625 0.8125q-2.125 0 -3.375 -1.296875q-1.234375 -1.3125 -1.234375 -3.671875q0 -2.453125 1.25 -3.796875q1.265625 -1.34375 3.265625 -1.34375q1.9375 0 3.15625 1.328125q1.234375 1.3125 1.234375 3.703125q0 0.15625 0 0.4375l-7.21875 0q0.09375 1.59375 0.90625 2.453125q0.8125 0.84375 2.015625 0.84375q0.90625 0 1.546875 -0.46875q0.640625 -0.484375 1.015625 -1.515625zm-5.390625 -2.65625l5.40625 0q-0.109375 -1.21875 -0.625 -1.828125q-0.78125 -0.953125 -2.03125 -0.953125q-1.125 0 -1.90625 0.765625q-0.765625 0.75 -0.84375 2.015625zm15.453857 4.578125q-0.921875 0.765625 -1.765625 1.09375q-0.828125 0.3125 -1.796875 0.3125q-1.59375 0 -2.453125 -0.78125q-0.859375 -0.78125 -0.859375 -1.984375q0 -0.71875 0.328125 -1.296875q0.328125 -0.59375 0.84375 -0.9375q0.53125 -0.359375 1.1875 -0.546875q0.46875 -0.125 1.453125 -0.25q1.984375 -0.234375 2.921875 -0.5625q0.015625 -0.34375 0.015625 -0.421875q0 -1.0 -0.46875 -1.421875q-0.625 -0.546875 -1.875 -0.546875q-1.15625 0 -1.703125 0.40625q-0.546875 0.40625 -0.8125 1.421875l-1.609375 -0.21875q0.21875 -1.015625 0.71875 -1.640625q0.5 -0.640625 1.453125 -0.984375q0.953125 -0.34375 2.1875 -0.34375q1.25 0 2.015625 0.296875q0.78125 0.28125 1.140625 0.734375q0.375 0.4375 0.515625 1.109375q0.078125 0.421875 0.078125 1.515625l0 2.1875q0 2.28125 0.109375 2.890625q0.109375 0.59375 0.40625 1.15625l-1.703125 0q-0.265625 -0.515625 -0.328125 -1.1875zm-0.140625 -3.671875q-0.890625 0.375 -2.671875 0.625q-1.015625 0.140625 -1.4375 0.328125q-0.421875 0.1875 -0.65625 0.53125q-0.21875 0.34375 -0.21875 0.78125q0 0.65625 0.5 1.09375q0.5 0.4375 1.453125 0.4375q0.9375 0 1.671875 -0.40625q0.75 -0.421875 1.09375 -1.140625q0.265625 -0.5625 0.265625 -1.640625l0 -0.609375zm4.188202 4.859375l0 -9.671875l1.46875 0l0 1.46875q0.5625 -1.03125 1.03125 -1.359375q0.484375 -0.328125 1.0625 -0.328125q0.828125 0 1.6875 0.53125l-0.5625 1.515625q-0.609375 -0.359375 -1.203125 -0.359375q-0.546875 0 -0.96875 0.328125q-0.421875 0.328125 -0.609375 0.890625q-0.28125 0.875 -0.28125 1.921875l0 5.0625l-1.625 0z" fill-rule="nonzero"/></g></svg>