<svg id="Logo" xmlns="http://www.w3.org/2000/svg" xmlns:xlink="http://www.w3.org/1999/xlink" width="150" height="34" viewBox="0 0 150 34">
    <defs>
        <clipPath id="clip-path">
            <rect id="Rectangle_5" data-name="Rectangle 5" width="150" height="34" transform="translate(-2 -2)" fill="none"></rect>
        </clipPath>
    </defs>
    <g id="Group_3" data-name="Group 3" transform="translate(2 2)" clip-path="url(#clip-path)">
        <path id="Path_2" data-name="Path 2" d="M104.247,24.53a6.113,6.113,0,0,1-6.156-6.384,6.159,6.159,0,1,1,12.307,0,6.111,6.111,0,0,1-6.151,6.388Zm0-18.621a12.213,12.213,0,1,0,12.4,12.238,12.175,12.175,0,0,0-12.4-12.238m-91.241,0a8.139,8.139,0,0,0-3.9.851A8.614,8.614,0,0,0,6,9.4V6.418H0v23.9H6.214V18.413c0-4.143,1.854-6.559,5.072-6.559,3.13,0,4.586,2.509,4.586,6.559V30.332H22.09V17.355c0-8.7-4.451-11.441-9.083-11.441m51.076,9.494c-3.372-.369-5.4-.507-5.4-2.264,0-1.574,1.664-2.546,4.113-2.546,2.678,0,4.481,1.3,4.668,3.036h6.193C73.326,8.776,68.984,5.956,62.6,5.909c-6.067,0-10.167,3.1-10.167,7.807,0,4.906,4.3,6.107,9.8,6.8,3.788.46,5.452.646,5.452,2.542,0,1.735-1.8,2.6-4.481,2.6-2.912,0-4.9-1.431-5.084-3.513H51.93c.23,5.087,4.767,8.184,11.32,8.184,6.379,0,10.77-3.006,10.77-7.72,0-5.352-4.529-6.6-9.937-7.2M37.593,24.525a6.109,6.109,0,0,1-6.154-6.379,6.158,6.158,0,1,1,12.3,0,6.109,6.109,0,0,1-6.15,6.384Zm0-18.617a12.213,12.213,0,1,0,0,24.423,12.213,12.213,0,1,0,0-24.423M83.206,0H77.12V19.979c0,3.323.518,5.392,1.671,6.982,1.546,2.117,4.215,3.37,7.866,3.37a14.567,14.567,0,0,0,3.793-.484l-.936-5.3a14.17,14.17,0,0,1-2.481.242,3.769,3.769,0,0,1-3.091-1.154A4.4,4.4,0,0,1,83.19,20.7V11.8h7.494V6.5H83.206Z" fill="#211c1f" fill-rule="evenodd"></path>
        <path id="Path_3" data-name="Path 3" d="M708.5,42.278A5.5,5.5,0,0,1,712.421,33h13.363a5.452,5.452,0,0,1,5.41,5.494V52.041a5.4,5.4,0,0,1-9.142,3.977l-7.325-7.087Z" transform="translate(-584.821 -27.214)" fill="#ff66bf"></path>
    </g>
</svg>