<svg version="1.1" viewBox="0.0 0.0 602.8923884514436 612.4330708661417" fill="none" stroke="none" stroke-linecap="square" stroke-miterlimit="10" xmlns:xlink="http://www.w3.org/1999/xlink" xmlns="http://www.w3.org/2000/svg"><clipPath id="p.0"><path d="m0 0l602.8924 0l0 612.43304l-602.8924 0l0 -612.43304z" clip-rule="nonzero"/></clipPath><g clip-path="url(#p.0)"><path fill="#000000" fill-opacity="0.0" d="m0 0l602.8924 0l0 612.43304l-602.8924 0z" fill-rule="evenodd"/><path fill="#ff6b00" d="m18.885826 126.25328l0 0c0 -57.254967 46.41432 -103.66929 103.66929 -103.66929l0 0c27.494812 0 53.863495 10.92227 73.30527 30.36403c19.441757 19.441765 30.364029 45.810455 30.364029 73.30526l0 0c0 57.254974 -46.41432 103.6693 -103.6693 103.6693l0 0c-57.254967 0 -103.66929 -46.41432 -103.66929 -103.6693z" fill-rule="evenodd"/><path stroke="#000000" stroke-width="1.0" stroke-linejoin="round" stroke-linecap="butt" d="m18.885826 126.25328l0 0c0 -57.254967 46.41432 -103.66929 103.66929 -103.66929l0 0c27.494812 0 53.863495 10.92227 73.30527 30.36403c19.441757 19.441765 30.364029 45.810455 30.364029 73.30526l0 0c0 57.254974 -46.41432 103.6693 -103.6693 103.6693l0 0c-57.254967 0 -103.66929 -46.41432 -103.66929 -103.6693z" fill-rule="evenodd"/><path fill="#000000" d="m116.302086 133.17328l5.125 -13.359375l1.90625 0l5.4687424 13.359375l-2.0156174 0l-1.546875 -4.046875l-5.59375 0l-1.46875 4.046875l-1.875 0zm3.859375 -5.484375l4.53125 0l-1.40625 -3.703125q-0.625 -1.6875 -0.9375 -2.765625q-0.265625 1.28125 -0.71875 2.546875l-1.46875 3.921875z" fill-rule="nonzero"/><path fill="#ff6b00" d="m376.66797 162.20604l0 0c0 -57.254974 46.414337 -103.6693 103.66931 -103.6693l0 0c27.494781 0 53.863464 10.922268 73.30524 30.364033c19.441772 19.441765 30.364075 45.810448 30.364075 73.30526l0 0c0 57.25496 -46.414368 103.6693 -103.66931 103.6693l0 0c-57.254974 0 -103.66931 -46.414337 -103.66931 -103.6693z" fill-rule="evenodd"/><path stroke="#000000" stroke-width="1.0" stroke-linejoin="round" stroke-linecap="butt" d="m376.66797 162.20604l0 0c0 -57.254974 46.414337 -103.6693 103.66931 -103.6693l0 0c27.494781 0 53.863464 10.922268 73.30524 30.364033c19.441772 19.441765 30.364075 45.810448 30.364075 73.30526l0 0c0 57.25496 -46.414368 103.6693 -103.66931 103.6693l0 0c-57.254974 0 -103.66931 -46.414337 -103.66931 -103.6693z" fill-rule="evenodd"/><path fill="#000000" d="m475.47485 169.12604l0 -13.359375l5.015625 0q1.53125 0 2.453125 0.40625q0.921875 0.40625 1.4375 1.25q0.53125 0.84375 0.53125 1.765625q0 0.859375 -0.46875 1.625q-0.453125 0.75 -1.390625 1.203125q1.203125 0.359375 1.859375 1.21875q0.65625 0.859375 0.65625 2.015625q0 0.9375 -0.40625 1.75q-0.390625 0.796875 -0.984375 1.234375q-0.578125 0.4375 -1.453125 0.671875q-0.875 0.21875 -2.15625 0.21875l-5.09375 0zm1.78125 -7.75l2.875 0q1.1875 0 1.6875 -0.140625q0.671875 -0.203125 1.015625 -0.671875q0.34375 -0.46875 0.34375 -1.171875q0 -0.65625 -0.328125 -1.15625q-0.3125 -0.515625 -0.90625 -0.703125q-0.59375 -0.1875 -2.03125 -0.1875l-2.65625 0l0 4.03125zm0 6.171875l3.3125 0q0.859375 0 1.203125 -0.0625q0.609375 -0.109375 1.015625 -0.359375q0.421875 -0.265625 0.6875 -0.75q0.265625 -0.484375 0.265625 -1.125q0 -0.75 -0.390625 -1.296875q-0.375 -0.546875 -1.0625 -0.765625q-0.671875 -0.234375 -1.953125 -0.234375l-3.078125 0l0 4.59375z" fill-rule="nonzero"/><path fill="#000000" fill-opacity="0.0" d="m226.22441 126.25328l150.45668 35.968506" fill-rule="evenodd"/><path stroke="#000000" stroke-width="1.0" stroke-linejoin="round" stroke-linecap="butt" d="m226.22441 126.25328l144.62114 34.57344" fill-rule="evenodd"/><path fill="#000000" stroke="#000000" stroke-width="1.0" stroke-linecap="butt" d="m370.4615 162.43318l4.7977905 -0.55130005l-4.0296936 -2.661621z" fill-rule="evenodd"/><path fill="#ff6b00" d="m18.885826 385.19028l0 0c0 -21.560852 17.478523 -39.039368 39.03937 -39.039368l0 0c10.353886 0 20.283703 4.1130676 27.605 11.434387c7.3213043 7.321289 11.434372 17.251099 11.434372 27.60498l0 0c0 21.560852 -17.478523 39.039368 -39.03937 39.039368l0 0c-21.560848 0 -39.03937 -17.478516 -39.03937 -39.039368z" fill-rule="evenodd"/><path stroke="#000000" stroke-width="1.0" stroke-linejoin="round" stroke-linecap="butt" d="m18.885826 385.19028l0 0c0 -21.560852 17.478523 -39.039368 39.03937 -39.039368l0 0c10.353886 0 20.283703 4.1130676 27.605 11.434387c7.3213043 7.321289 11.434372 17.251099 11.434372 27.60498l0 0c0 21.560852 -17.478523 39.039368 -39.03937 39.039368l0 0c-21.560848 0 -39.03937 -17.478516 -39.03937 -39.039368z" fill-rule="evenodd"/><path fill="#000000" d="m52.626225 392.1103l0 -13.359375l4.609375 0q1.546875 0 2.375 0.203125q1.140625 0.25 1.953125 0.953125q1.0625 0.890625 1.578125 2.28125q0.53125 1.390625 0.53125 3.171875q0 1.515625 -0.359375 2.703125q-0.359375 1.171875 -0.921875 1.9375q-0.546875 0.765625 -1.203125 1.21875q-0.65625 0.4375 -1.59375 0.671875q-0.9375 0.21875 -2.140625 0.21875l-4.828125 0zm1.765625 -1.578125l2.859375 0q1.3125 0 2.0625 -0.234375q0.75 -0.25 1.203125 -0.703125q0.625 -0.625 0.96875 -1.6875q0.359375 -1.0625 0.359375 -2.578125q0 -2.09375 -0.6875 -3.21875q-0.6875 -1.125 -1.671875 -1.5q-0.703125 -0.28125 -2.28125 -0.28125l-2.8125 0l0 10.203125z" fill-rule="nonzero"/><path fill="#ff6b00" d="m156.32939 336.99606l0 0c0 -21.560852 17.47853 -39.039368 39.039368 -39.039368l0 0c10.353897 0 20.283707 4.1130676 27.605011 11.434357c7.3213043 7.3213196 11.434372 17.25113 11.434372 27.605011l0 0c0 21.560852 -17.47853 39.039368 -39.039383 39.039368l0 0c-21.560837 0 -39.039368 -17.478516 -39.039368 -39.039368z" fill-rule="evenodd"/><path stroke="#000000" stroke-width="1.0" stroke-linejoin="round" stroke-linecap="butt" d="m156.32939 336.99606l0 0c0 -21.560852 17.47853 -39.039368 39.039368 -39.039368l0 0c10.353897 0 20.283707 4.1130676 27.605011 11.434357c7.3213043 7.3213196 11.434372 17.25113 11.434372 27.605011l0 0c0 21.560852 -17.47853 39.039368 -39.039383 39.039368l0 0c-21.560837 0 -39.039368 -17.478516 -39.039368 -39.039368z" fill-rule="evenodd"/><path fill="#000000" d="m199.60104 339.22855l1.765625 0.453125q-0.5625 2.171875 -2.0 3.328125q-1.4375 1.140625 -3.53125 1.140625q-2.15625 0 -3.515625 -0.875q-1.34375 -0.890625 -2.0625 -2.546875q-0.703125 -1.671875 -0.703125 -3.59375q0 -2.078125 0.796875 -3.625q0.796875 -1.5625 2.265625 -2.359375q1.484375 -0.8125 3.25 -0.8125q2.0 0 3.359375 1.015625q1.375 1.015625 1.90625 2.875l-1.734375 0.40625q-0.46875 -1.453125 -1.359375 -2.109375q-0.875 -0.671875 -2.203125 -0.671875q-1.546875 0 -2.578125 0.734375q-1.03125 0.734375 -1.453125 1.984375q-0.421875 1.234375 -0.421875 2.5625q0 1.703125 0.5 2.96875q0.5 1.265625 1.546875 1.90625q1.046875 0.625 2.265625 0.625q1.484375 0 2.515625 -0.859375q1.03125 -0.859375 1.390625 -2.546875z" fill-rule="nonzero"/><path fill="#ff6b00" d="m67.36877 479.6496l0 0c0 -21.560852 17.478523 -39.039368 39.039368 -39.039368l0 0c10.353889 0 20.283707 4.1130676 27.605003 11.434387c7.3213043 7.321289 11.434372 17.251099 11.434372 27.60498l0 0c0 21.560852 -17.478523 39.039368 -39.039375 39.039368l0 0c-21.560844 0 -39.039368 -17.478516 -39.039368 -39.039368z" fill-rule="evenodd"/><path stroke="#000000" stroke-width="1.0" stroke-linejoin="round" stroke-linecap="butt" d="m67.36877 479.6496l0 0c0 -21.560852 17.478523 -39.039368 39.039368 -39.039368l0 0c10.353889 0 20.283707 4.1130676 27.605003 11.434387c7.3213043 7.321289 11.434372 17.251099 11.434372 27.60498l0 0c0 21.560852 -17.478523 39.039368 -39.039375 39.039368l0 0c-21.560844 0 -39.039368 -17.478516 -39.039368 -39.039368z" fill-rule="evenodd"/><path fill="#000000" d="m101.6551 486.5696l0 -13.359375l9.65625 0l0 1.578125l-7.875 0l0 4.09375l7.375 0l0 1.5625l-7.375 0l0 4.546875l8.1875 0l0 1.578125l-9.96875 0z" fill-rule="nonzero"/><path fill="#ff6b00" d="m162.3084 550.8097l0 0c0 -21.560852 17.47853 -39.039337 39.039368 -39.039337l0 0c10.353897 0 20.283707 4.1130676 27.605011 11.434357c7.3213043 7.321289 11.434372 17.251099 11.434372 27.60498l0 0c0 21.560852 -17.47853 39.039368 -39.039383 39.039368l0 0c-21.560837 0 -39.039368 -17.478516 -39.039368 -39.039368z" fill-rule="evenodd"/><path stroke="#000000" stroke-width="1.0" stroke-linejoin="round" stroke-linecap="butt" d="m162.3084 550.8097l0 0c0 -21.560852 17.47853 -39.039337 39.039368 -39.039337l0 0c10.353897 0 20.283707 4.1130676 27.605011 11.434357c7.3213043 7.321289 11.434372 17.251099 11.434372 27.60498l0 0c0 21.560852 -17.47853 39.039368 -39.039383 39.039368l0 0c-21.560837 0 -39.039368 -17.478516 -39.039368 -39.039368z" fill-rule="evenodd"/><path fill="#000000" d="m197.18103 557.72974l0 -13.359375l9.015625 0l0 1.578125l-7.25 0l0 4.140625l6.265625 0l0 1.578125l-6.265625 0l0 6.0625l-1.765625 0z" fill-rule="nonzero"/><path fill="#ff6b00" d="m396.90945 435.31104l0 0c0 -21.560852 17.478516 -39.039368 39.039368 -39.039368l0 0c10.353882 0 20.283691 4.113037 27.605011 11.434357c7.321289 7.321289 11.434357 17.25113 11.434357 27.605011l0 0c0 21.560852 -17.478516 39.039368 -39.039368 39.039368l0 0c-21.560852 0 -39.039368 -17.478516 -39.039368 -39.039368z" fill-rule="evenodd"/><path stroke="#000000" stroke-width="1.0" stroke-linejoin="round" stroke-linecap="butt" d="m396.90945 435.31104l0 0c0 -21.560852 17.478516 -39.039368 39.039368 -39.039368l0 0c10.353882 0 20.283691 4.113037 27.605011 11.434357c7.321289 7.321289 11.434357 17.25113 11.434357 27.605011l0 0c0 21.560852 -17.478516 39.039368 -39.039368 39.039368l0 0c-21.560852 0 -39.039368 -17.478516 -39.039368 -39.039368z" fill-rule="evenodd"/><path fill="#000000" d="m436.3806 436.99664l0 -1.578125l5.65625 0l0 4.953125q-1.296875 1.046875 -2.6875 1.578125q-1.375 0.515625 -2.84375 0.515625q-1.96875 0 -3.578125 -0.84375q-1.609375 -0.84375 -2.421875 -2.4375q-0.8125 -1.59375 -0.8125 -3.5625q0 -1.953125 0.8125 -3.640625q0.8125 -1.6875 2.34375 -2.5q1.53125 -0.828125 3.515625 -0.828125q1.453125 0 2.625 0.46875q1.171875 0.46875 1.828125 1.3125q0.671875 0.828125 1.015625 2.171875l-1.59375 0.4375q-0.296875 -1.015625 -0.75 -1.59375q-0.4375 -0.59375 -1.265625 -0.9375q-0.828125 -0.34375 -1.84375 -0.34375q-1.203125 0 -2.09375 0.375q-0.890625 0.359375 -1.4375 0.96875q-0.53125 0.59375 -0.828125 1.3125q-0.515625 1.234375 -0.515625 2.6875q0 1.78125 0.609375 2.984375q0.625 1.203125 1.796875 1.796875q1.171875 0.578125 2.5 0.578125q1.140625 0 2.234375 -0.4375q1.09375 -0.453125 1.65625 -0.953125l0 -2.484375l-3.921875 0z" fill-rule="nonzero"/><path fill="#000000" fill-opacity="0.0" d="m234.40814 336.99606l162.48819 98.33072" fill-rule="evenodd"/><path stroke="#000000" stroke-width="1.0" stroke-linejoin="round" stroke-linecap="butt" d="m234.40814 336.99606l157.35495 95.22427" fill-rule="evenodd"/><path fill="#000000" stroke="#000000" stroke-width="1.0" stroke-linecap="butt" d="m390.90793 433.63348l4.737671 0.93640137l-3.0273438 -3.7626648z" fill-rule="evenodd"/><path fill="#000000" fill-opacity="0.0" d="m96.96457 385.19028l299.937 50.11026" fill-rule="evenodd"/><path stroke="#000000" stroke-width="1.0" stroke-linejoin="round" stroke-linecap="butt" d="m96.96457 385.19028l294.019 49.12152" fill-rule="evenodd"/><path fill="#000000" stroke="#000000" stroke-width="1.0" stroke-linecap="butt" d="m390.71143 435.94098l4.74823 -0.88134766l-4.203888 -2.3769836z" fill-rule="evenodd"/><path fill="#000000" fill-opacity="0.0" d="m145.44489 479.65747l251.46457 -44.346436" fill-rule="evenodd"/><path stroke="#000000" stroke-width="1.0" stroke-linejoin="round" stroke-linecap="butt" d="m145.44489 479.65747l245.55573 -43.304413" fill-rule="evenodd"/><path fill="#000000" stroke="#000000" stroke-width="1.0" stroke-linecap="butt" d="m391.28748 437.9797l4.1822815 -2.414795l-4.7559814 -0.83847046z" fill-rule="evenodd"/><path fill="#000000" fill-opacity="0.0" d="m240.38715 550.8097l156.53543 -115.49603" fill-rule="evenodd"/><path stroke="#000000" stroke-width="1.0" stroke-linejoin="round" stroke-linecap="butt" d="m240.38715 550.8097l151.7074 -111.93375" fill-rule="evenodd"/><path fill="#000000" stroke="#000000" stroke-width="1.0" stroke-linecap="butt" d="m393.07516 440.20505l2.671051 -4.0234375l-4.6323547 1.3652039z" fill-rule="evenodd"/></g></svg>