<svg version="1.1" viewBox="0.0 0.0 960.0 720.0" fill="none" stroke="none" stroke-linecap="square" stroke-miterlimit="10" xmlns:xlink="http://www.w3.org/1999/xlink" xmlns="http://www.w3.org/2000/svg"><clipPath id="p.0"><path d="m0 0l960.0 0l0 720.0l-960.0 0l0 -720.0z" clip-rule="nonzero"/></clipPath><g clip-path="url(#p.0)"><path fill="#000000" fill-opacity="0.0" d="m0 0l960.0 0l0 720.0l-960.0 0z" fill-rule="evenodd"/><path fill="#000000" fill-opacity="0.0" d="m395.16797 -126.20469l191.05511 117.6693l-499.0551 810.07874l-191.05511 -117.66925z" fill-rule="evenodd"/><path stroke="#000000" stroke-width="1.0" stroke-linejoin="round" stroke-linecap="butt" stroke-dasharray="4.0,3.0" d="m395.16797 -126.20469l191.05511 117.6693l-499.0551 810.07874l-191.05511 -117.66925z" fill-rule="evenodd"/><path fill="#000000" fill-opacity="0.0" d="m20.853018 45.0l74.64567 0l0 637.6693l-74.64567 0z" fill-rule="evenodd"/><path fill="#000000" fill-opacity="0.0" d="m800.7559 45.0l74.64563 0l0 637.6693l-74.64563 0z" fill-rule="evenodd"/><path fill="#000000" fill-opacity="0.0" d="m58.175854 682.6693l0 -637.6693" fill-rule="evenodd"/><path stroke="#000000" stroke-width="3.0" stroke-linejoin="round" stroke-linecap="butt" d="m58.175854 682.6693l0 -619.6693" fill-rule="evenodd"/><path fill="#000000" stroke="#000000" stroke-width="3.0" stroke-linecap="butt" d="m63.13105 63.0l-4.9551964 -13.614292l-4.9551964 13.614292z" fill-rule="evenodd"/><path fill="#000000" fill-opacity="0.0" d="m58.175854 682.6693l779.9055 0" fill-rule="evenodd"/><path stroke="#000000" stroke-width="3.0" stroke-linejoin="round" stroke-linecap="butt" d="m58.175854 682.6693l761.9055 0" fill-rule="evenodd"/><path fill="#000000" stroke="#000000" stroke-width="3.0" stroke-linecap="butt" d="m820.08136 687.6245l13.614319 -4.9552l-13.614319 -4.9552z" fill-rule="evenodd"/><path fill="#ffe599" d="m128.4147 190.43307l0 0c0 -2.7309875 2.2138977 -4.9448853 4.94487 -4.9448853l0 0c1.3114777 0 2.5692139 0.52098083 3.4965668 1.4483185c0.92733765 0.9273529 1.4483185 2.1851044 1.4483185 3.4965668l0 0c0 2.7309723 -2.2138977 4.9448853 -4.9448853 4.9448853l0 0c-2.7309723 0 -4.94487 -2.213913 -4.94487 -4.9448853z" fill-rule="evenodd"/><path stroke="#000000" stroke-width="1.0" stroke-linejoin="round" stroke-linecap="butt" d="m128.4147 190.43307l0 0c0 -2.7309875 2.2138977 -4.9448853 4.94487 -4.9448853l0 0c1.3114777 0 2.5692139 0.52098083 3.4965668 1.4483185c0.92733765 0.9273529 1.4483185 2.1851044 1.4483185 3.4965668l0 0c0 2.7309723 -2.2138977 4.9448853 -4.9448853 4.9448853l0 0c-2.7309723 0 -4.94487 -2.213913 -4.94487 -4.9448853z" fill-rule="evenodd"/><path fill="#ffe599" d="m165.17323 162.53018l0 0c0 -2.7309875 2.2138977 -4.9448853 4.94487 -4.9448853l0 0c1.3114777 0 2.5692139 0.52098083 3.4965668 1.4483337c0.92733765 0.92733765 1.4483185 2.185089 1.4483185 3.4965515l0 0c0 2.7309875 -2.2138977 4.9448853 -4.9448853 4.9448853l0 0c-2.7309723 0 -4.94487 -2.2138977 -4.94487 -4.9448853z" fill-rule="evenodd"/><path stroke="#000000" stroke-width="1.0" stroke-linejoin="round" stroke-linecap="butt" d="m165.17323 162.53018l0 0c0 -2.7309875 2.2138977 -4.9448853 4.94487 -4.9448853l0 0c1.3114777 0 2.5692139 0.52098083 3.4965668 1.4483337c0.92733765 0.92733765 1.4483185 2.185089 1.4483185 3.4965515l0 0c0 2.7309875 -2.2138977 4.9448853 -4.9448853 4.9448853l0 0c-2.7309723 0 -4.94487 -2.2138977 -4.94487 -4.9448853z" fill-rule="evenodd"/><path fill="#ffe599" d="m204.31758 172.41995l0 0c0 -2.7309875 2.2138977 -4.9448853 4.9448853 -4.9448853l0 0c1.3114624 0 2.5692139 0.52098083 3.4965668 1.4483185c0.92733765 0.9273529 1.4483185 2.1851044 1.4483185 3.4965668l0 0c0 2.7309723 -2.2138977 4.94487 -4.9448853 4.94487l0 0c-2.7309875 0 -4.9448853 -2.2138977 -4.9448853 -4.94487z" fill-rule="evenodd"/><path stroke="#000000" stroke-width="1.0" stroke-linejoin="round" stroke-linecap="butt" d="m204.31758 172.41995l0 0c0 -2.7309875 2.2138977 -4.9448853 4.9448853 -4.9448853l0 0c1.3114624 0 2.5692139 0.52098083 3.4965668 1.4483185c0.92733765 0.9273529 1.4483185 2.1851044 1.4483185 3.4965668l0 0c0 2.7309723 -2.2138977 4.94487 -4.9448853 4.94487l0 0c-2.7309875 0 -4.9448853 -2.2138977 -4.9448853 -4.94487z" fill-rule="evenodd"/><path fill="#ffe599" d="m179.70866 200.32283l0 0c0 -2.7309723 2.2138977 -4.94487 4.9448853 -4.94487l0 0c1.3114624 0 2.5692139 0.5209656 3.4965515 1.4483185c0.9273529 0.92733765 1.4483185 2.185089 1.4483185 3.4965515l0 0c0 2.7309875 -2.2138977 4.9448853 -4.94487 4.9448853l0 0c-2.7309875 0 -4.9448853 -2.2138977 -4.9448853 -4.9448853z" fill-rule="evenodd"/><path stroke="#000000" stroke-width="1.0" stroke-linejoin="round" stroke-linecap="butt" d="m179.70866 200.32283l0 0c0 -2.7309723 2.2138977 -4.94487 4.9448853 -4.94487l0 0c1.3114624 0 2.5692139 0.5209656 3.4965515 1.4483185c0.9273529 0.92733765 1.4483185 2.185089 1.4483185 3.4965515l0 0c0 2.7309875 -2.2138977 4.9448853 -4.94487 4.9448853l0 0c-2.7309875 0 -4.9448853 -2.2138977 -4.9448853 -4.9448853z" fill-rule="evenodd"/><path fill="#ffe599" d="m483.3176 153.4567l0 0c0 -2.7309875 2.2138977 -4.9448853 4.9448853 -4.9448853l0 0c1.3114624 0 2.5692139 0.52098083 3.4965515 1.4483185c0.92733765 0.9273529 1.4483032 2.1851044 1.4483032 3.4965668l0 0c0 2.7309875 -2.2138977 4.9448853 -4.9448547 4.9448853l0 0c-2.7309875 0 -4.9448853 -2.2138977 -4.9448853 -4.9448853z" fill-rule="evenodd"/><path stroke="#000000" stroke-width="1.0" stroke-linejoin="round" stroke-linecap="butt" d="m483.3176 153.4567l0 0c0 -2.7309875 2.2138977 -4.9448853 4.9448853 -4.9448853l0 0c1.3114624 0 2.5692139 0.52098083 3.4965515 1.4483185c0.92733765 0.9273529 1.4483032 2.1851044 1.4483032 3.4965668l0 0c0 2.7309875 -2.2138977 4.9448853 -4.9448547 4.9448853l0 0c-2.7309875 0 -4.9448853 -2.2138977 -4.9448853 -4.9448853z" fill-rule="evenodd"/><path fill="#ffe599" d="m515.31757 169.4567l0 0c0 -2.7309875 2.2139282 -4.9448853 4.9448853 -4.9448853l0 0c1.3114624 0 2.5692139 0.52098083 3.496582 1.4483185c0.92736816 0.9273529 1.4483032 2.1851044 1.4483032 3.4965668l0 0c0 2.7309875 -2.2138672 4.9448853 -4.9448853 4.9448853l0 0c-2.730957 0 -4.9448853 -2.2138977 -4.9448853 -4.9448853z" fill-rule="evenodd"/><path stroke="#000000" stroke-width="1.0" stroke-linejoin="round" stroke-linecap="butt" d="m515.31757 169.4567l0 0c0 -2.7309875 2.2139282 -4.9448853 4.9448853 -4.9448853l0 0c1.3114624 0 2.5692139 0.52098083 3.496582 1.4483185c0.92736816 0.9273529 1.4483032 2.1851044 1.4483032 3.4965668l0 0c0 2.7309875 -2.2138672 4.9448853 -4.9448853 4.9448853l0 0c-2.730957 0 -4.9448853 -2.2138977 -4.9448853 -4.9448853z" fill-rule="evenodd"/><path fill="#ffe599" d="m451.3176 201.4567l0 0c0 -2.7309875 2.2138977 -4.9448853 4.9448853 -4.9448853l0 0c1.3114624 0 2.5692139 0.52098083 3.4965515 1.4483185c0.92733765 0.9273529 1.4483032 2.1851044 1.4483032 3.4965668l0 0c0 2.7309875 -2.2138977 4.9448853 -4.9448547 4.9448853l0 0c-2.7309875 0 -4.9448853 -2.2138977 -4.9448853 -4.9448853z" fill-rule="evenodd"/><path stroke="#000000" stroke-width="1.0" stroke-linejoin="round" stroke-linecap="butt" d="m451.3176 201.4567l0 0c0 -2.7309875 2.2138977 -4.9448853 4.9448853 -4.9448853l0 0c1.3114624 0 2.5692139 0.52098083 3.4965515 1.4483185c0.92733765 0.9273529 1.4483032 2.1851044 1.4483032 3.4965668l0 0c0 2.7309875 -2.2138977 4.9448853 -4.9448547 4.9448853l0 0c-2.7309875 0 -4.9448853 -2.2138977 -4.9448853 -4.9448853z" fill-rule="evenodd"/><path fill="#000000" fill-opacity="0.0" d="m-8.359604 742.7087l499.0551 -810.07874" fill-rule="evenodd"/><path stroke="#000000" stroke-width="1.0" stroke-linejoin="round" stroke-linecap="butt" d="m-8.359604 742.7087l499.0551 -810.07874" fill-rule="evenodd"/><path fill="#000000" fill-opacity="0.0" d="m145.6404 278.8347l191.05513 117.66928" fill-rule="evenodd"/><path stroke="#000000" stroke-width="1.0" stroke-linejoin="round" stroke-linecap="butt" stroke-dasharray="4.0,3.0" d="m150.74919 281.98117l180.83754 111.37637" fill-rule="evenodd"/><path fill="#000000" stroke="#000000" stroke-width="1.0" stroke-linecap="butt" d="m151.61537 280.57477l-4.7302094 -0.9734497l2.9978485 3.7862244z" fill-rule="evenodd"/><path fill="#000000" stroke="#000000" stroke-width="1.0" stroke-linecap="butt" d="m330.72055 394.76392l4.730194 0.9734192l-2.9978333 -3.7862244z" fill-rule="evenodd"/><path fill="#e69138" d="m336.4147 206.43307l0 0c0 -2.7309875 2.2138977 -4.9448853 4.9448853 -4.9448853l0 0c1.3114624 0 2.5692139 0.52098083 3.4965515 1.4483185c0.92733765 0.9273529 1.4483337 2.1851044 1.4483337 3.4965668l0 0c0 2.7309723 -2.2138977 4.9448853 -4.9448853 4.9448853l0 0c-2.7309875 0 -4.9448853 -2.213913 -4.9448853 -4.9448853z" fill-rule="evenodd"/><path stroke="#000000" stroke-width="1.0" stroke-linejoin="round" stroke-linecap="butt" d="m336.4147 206.43307l0 0c0 -2.7309875 2.2138977 -4.9448853 4.9448853 -4.9448853l0 0c1.3114624 0 2.5692139 0.52098083 3.4965515 1.4483185c0.92733765 0.9273529 1.4483337 2.1851044 1.4483337 3.4965668l0 0c0 2.7309723 -2.2138977 4.9448853 -4.9448853 4.9448853l0 0c-2.7309875 0 -4.9448853 -2.213913 -4.9448853 -4.9448853z" fill-rule="evenodd"/><path fill="#000000" fill-opacity="0.0" d="m175.06299 26.503937l100.8819 0l0 46.110237l-100.8819 0z" fill-rule="evenodd"/><path fill="#000000" d="m198.93594 49.979053q0 -3.328125 1.78125 -5.203125q1.78125 -1.890625 4.609375 -1.890625q1.84375 0 3.328125 0.890625q1.484375 0.875 2.265625 2.46875q0.78125 1.578125 0.78125 3.578125q0 2.03125 -0.828125 3.640625q-0.8125 1.59375 -2.3125 2.421875q-1.5 0.828125 -3.25 0.828125q-1.875 0 -3.359375 -0.90625q-1.484375 -0.921875 -2.25 -2.5q-0.765625 -1.578125 -0.765625 -3.328125zm1.8125 0.015625q0 2.421875 1.296875 3.8125q1.296875 1.390625 3.265625 1.390625q2.0 0 3.28125 -1.40625q1.28125 -1.40625 1.28125 -3.984375q0 -1.625 -0.546875 -2.84375q-0.546875 -1.21875 -1.609375 -1.875q-1.0625 -0.671875 -2.375 -0.671875q-1.890625 0 -3.25 1.296875q-1.34375 1.28125 -1.34375 4.28125zm19.355179 6.484375l0 -1.421875q-1.125 1.640625 -3.0625 1.640625q-0.859375 0 -1.609375 -0.328125q-0.734375 -0.328125 -1.09375 -0.828125q-0.359375 -0.5 -0.5 -1.21875q-0.109375 -0.46875 -0.109375 -1.53125l0 -5.984375l1.640625 0l0 5.359375q0 1.28125 0.109375 1.734375q0.15625 0.640625 0.65625 1.015625q0.5 0.375 1.234375 0.375q0.734375 0 1.375 -0.375q0.65625 -0.390625 0.921875 -1.03125q0.265625 -0.65625 0.265625 -1.890625l0 -5.1875l1.640625 0l0 9.671875l-1.46875 0zm7.625717 -1.46875l0.234375 1.453125q-0.6875 0.140625 -1.234375 0.140625q-0.890625 0 -1.390625 -0.28125q-0.484375 -0.28125 -0.6875 -0.734375q-0.203125 -0.46875 -0.203125 -1.9375l0 -5.578125l-1.203125 0l0 -1.265625l1.203125 0l0 -2.390625l1.625 -0.984375l0 3.375l1.65625 0l0 1.265625l-1.65625 0l0 5.671875q0 0.6875 0.078125 0.890625q0.09375 0.203125 0.28125 0.328125q0.203125 0.109375 0.578125 0.109375q0.265625 0 0.71875 -0.0625zm1.5583038 1.46875l0 -13.359375l1.640625 0l0 13.359375l-1.640625 0zm4.191696 -11.46875l0 -1.890625l1.640625 0l0 1.890625l-1.640625 0zm0 11.46875l0 -9.671875l1.640625 0l0 9.671875l-1.640625 0zm10.769821 -3.109375l1.6875 0.203125q-0.40625 1.484375 -1.484375 2.3125q-1.078125 0.8125 -2.765625 0.8125q-2.125 0 -3.375 -1.296875q-1.234375 -1.3125 -1.234375 -3.671875q0 -2.453125 1.25 -3.796875q1.265625 -1.34375 3.265625 -1.34375q1.9375 0 3.15625 1.328125q1.234375 1.3125 1.234375 3.703125q0 0.15625 0 0.4375l-7.21875 0q0.09375 1.59375 0.90625 2.453125q0.8125 0.84375 2.015625 0.84375q0.90625 0 1.546875 -0.46875q0.640625 -0.484375 1.015625 -1.515625zm-5.390625 -2.65625l5.40625 0q-0.109375 -1.21875 -0.625 -1.828125q-0.78125 -0.953125 -2.03125 -0.953125q-1.125 0 -1.90625 0.765625q-0.765625 0.75 -0.84375 2.015625zm9.125717 5.765625l0 -9.671875l1.46875 0l0 1.46875q0.5625 -1.03125 1.03125 -1.359375q0.484375 -0.328125 1.0625 -0.328125q0.828125 0 1.6875 0.53125l-0.5625 1.515625q-0.609375 -0.359375 -1.203125 -0.359375q-0.546875 0 -0.96875 0.328125q-0.421875 0.328125 -0.609375 0.890625q-0.28125 0.875 -0.28125 1.921875l0 5.0625l-1.625 0z" fill-rule="nonzero"/><path fill="#000000" fill-opacity="0.0" d="m225.50394 72.614174l115.84253 128.8819" fill-rule="evenodd"/><path stroke="#000000" stroke-width="1.0" stroke-linejoin="round" stroke-linecap="butt" d="m225.50394 72.614174l111.831635 124.41952" fill-rule="evenodd"/><path fill="#000000" stroke="#000000" stroke-width="1.0" stroke-linecap="butt" d="m336.10712 198.13785l4.262085 2.2709503l-1.8052063 -4.4792633z" fill-rule="evenodd"/></g></svg>