<svg version="1.1" viewBox="0.0 0.0 960.0 720.0" fill="none" stroke="none" stroke-linecap="square" stroke-miterlimit="10" xmlns:xlink="http://www.w3.org/1999/xlink" xmlns="http://www.w3.org/2000/svg"><clipPath id="p.0"><path d="m0 0l960.0 0l0 720.0l-960.0 0l0 -720.0z" clip-rule="nonzero"/></clipPath><g clip-path="url(#p.0)"><path fill="#000000" fill-opacity="0.0" d="m0 0l960.0 0l0 720.0l-960.0 0z" fill-rule="evenodd"/><path fill="#000000" fill-opacity="0.0" d="m395.16797 -126.20469l191.05511 117.6693l-499.0551 810.07874l-191.05511 -117.66925z" fill-rule="evenodd"/><path stroke="#000000" stroke-width="1.0" stroke-linejoin="round" stroke-linecap="butt" stroke-dasharray="4.0,3.0" d="m395.16797 -126.20469l191.05511 117.6693l-499.0551 810.07874l-191.05511 -117.66925z" fill-rule="evenodd"/><path fill="#000000" fill-opacity="0.0" d="m20.853018 45.0l74.64567 0l0 637.6693l-74.64567 0z" fill-rule="evenodd"/><path fill="#000000" fill-opacity="0.0" d="m800.7559 45.0l74.64563 0l0 637.6693l-74.64563 0z" fill-rule="evenodd"/><path fill="#000000" fill-opacity="0.0" d="m58.175854 682.6693l0 -637.6693" fill-rule="evenodd"/><path stroke="#000000" stroke-width="3.0" stroke-linejoin="round" stroke-linecap="butt" d="m58.175854 682.6693l0 -619.6693" fill-rule="evenodd"/><path fill="#000000" stroke="#000000" stroke-width="3.0" stroke-linecap="butt" d="m63.13105 63.0l-4.9551964 -13.614292l-4.9551964 13.614292z" fill-rule="evenodd"/><path fill="#000000" fill-opacity="0.0" d="m58.175854 682.6693l779.9055 0" fill-rule="evenodd"/><path stroke="#000000" stroke-width="3.0" stroke-linejoin="round" stroke-linecap="butt" d="m58.175854 682.6693l761.9055 0" fill-rule="evenodd"/><path fill="#000000" stroke="#000000" stroke-width="3.0" stroke-linecap="butt" d="m820.08136 687.6245l13.614319 -4.9552l-13.614319 -4.9552z" fill-rule="evenodd"/><path fill="#ffe599" d="m128.4147 190.43307l0 0c0 -2.7309875 2.2138977 -4.9448853 4.94487 -4.9448853l0 0c1.3114777 0 2.5692139 0.52098083 3.4965668 1.4483185c0.92733765 0.9273529 1.4483185 2.1851044 1.4483185 3.4965668l0 0c0 2.7309723 -2.2138977 4.9448853 -4.9448853 4.9448853l0 0c-2.7309723 0 -4.94487 -2.213913 -4.94487 -4.9448853z" fill-rule="evenodd"/><path stroke="#000000" stroke-width="1.0" stroke-linejoin="round" stroke-linecap="butt" d="m128.4147 190.43307l0 0c0 -2.7309875 2.2138977 -4.9448853 4.94487 -4.9448853l0 0c1.3114777 0 2.5692139 0.52098083 3.4965668 1.4483185c0.92733765 0.9273529 1.4483185 2.1851044 1.4483185 3.4965668l0 0c0 2.7309723 -2.2138977 4.9448853 -4.9448853 4.9448853l0 0c-2.7309723 0 -4.94487 -2.213913 -4.94487 -4.9448853z" fill-rule="evenodd"/><path fill="#ffe599" d="m165.17323 162.53018l0 0c0 -2.7309875 2.2138977 -4.9448853 4.94487 -4.9448853l0 0c1.3114777 0 2.5692139 0.52098083 3.4965668 1.4483337c0.92733765 0.92733765 1.4483185 2.185089 1.4483185 3.4965515l0 0c0 2.7309875 -2.2138977 4.9448853 -4.9448853 4.9448853l0 0c-2.7309723 0 -4.94487 -2.2138977 -4.94487 -4.9448853z" fill-rule="evenodd"/><path stroke="#000000" stroke-width="1.0" stroke-linejoin="round" stroke-linecap="butt" d="m165.17323 162.53018l0 0c0 -2.7309875 2.2138977 -4.9448853 4.94487 -4.9448853l0 0c1.3114777 0 2.5692139 0.52098083 3.4965668 1.4483337c0.92733765 0.92733765 1.4483185 2.185089 1.4483185 3.4965515l0 0c0 2.7309875 -2.2138977 4.9448853 -4.9448853 4.9448853l0 0c-2.7309723 0 -4.94487 -2.2138977 -4.94487 -4.9448853z" fill-rule="evenodd"/><path fill="#ffe599" d="m204.31758 172.41995l0 0c0 -2.7309875 2.2138977 -4.9448853 4.9448853 -4.9448853l0 0c1.3114624 0 2.5692139 0.52098083 3.4965668 1.4483185c0.92733765 0.9273529 1.4483185 2.1851044 1.4483185 3.4965668l0 0c0 2.7309723 -2.2138977 4.94487 -4.9448853 4.94487l0 0c-2.7309875 0 -4.9448853 -2.2138977 -4.9448853 -4.94487z" fill-rule="evenodd"/><path stroke="#000000" stroke-width="1.0" stroke-linejoin="round" stroke-linecap="butt" d="m204.31758 172.41995l0 0c0 -2.7309875 2.2138977 -4.9448853 4.9448853 -4.9448853l0 0c1.3114624 0 2.5692139 0.52098083 3.4965668 1.4483185c0.92733765 0.9273529 1.4483185 2.1851044 1.4483185 3.4965668l0 0c0 2.7309723 -2.2138977 4.94487 -4.9448853 4.94487l0 0c-2.7309875 0 -4.9448853 -2.2138977 -4.9448853 -4.94487z" fill-rule="evenodd"/><path fill="#ffe599" d="m179.70866 200.32283l0 0c0 -2.7309723 2.2138977 -4.94487 4.9448853 -4.94487l0 0c1.3114624 0 2.5692139 0.5209656 3.4965515 1.4483185c0.9273529 0.92733765 1.4483185 2.185089 1.4483185 3.4965515l0 0c0 2.7309875 -2.2138977 4.9448853 -4.94487 4.9448853l0 0c-2.7309875 0 -4.9448853 -2.2138977 -4.9448853 -4.9448853z" fill-rule="evenodd"/><path stroke="#000000" stroke-width="1.0" stroke-linejoin="round" stroke-linecap="butt" d="m179.70866 200.32283l0 0c0 -2.7309723 2.2138977 -4.94487 4.9448853 -4.94487l0 0c1.3114624 0 2.5692139 0.5209656 3.4965515 1.4483185c0.9273529 0.92733765 1.4483185 2.185089 1.4483185 3.4965515l0 0c0 2.7309875 -2.2138977 4.9448853 -4.94487 4.9448853l0 0c-2.7309875 0 -4.9448853 -2.2138977 -4.9448853 -4.9448853z" fill-rule="evenodd"/><path fill="#ffe599" d="m483.3176 153.4567l0 0c0 -2.7309875 2.2138977 -4.9448853 4.9448853 -4.9448853l0 0c1.3114624 0 2.5692139 0.52098083 3.4965515 1.4483185c0.92733765 0.9273529 1.4483032 2.1851044 1.4483032 3.4965668l0 0c0 2.7309875 -2.2138977 4.9448853 -4.9448547 4.9448853l0 0c-2.7309875 0 -4.9448853 -2.2138977 -4.9448853 -4.9448853z" fill-rule="evenodd"/><path stroke="#000000" stroke-width="1.0" stroke-linejoin="round" stroke-linecap="butt" d="m483.3176 153.4567l0 0c0 -2.7309875 2.2138977 -4.9448853 4.9448853 -4.9448853l0 0c1.3114624 0 2.5692139 0.52098083 3.4965515 1.4483185c0.92733765 0.9273529 1.4483032 2.1851044 1.4483032 3.4965668l0 0c0 2.7309875 -2.2138977 4.9448853 -4.9448547 4.9448853l0 0c-2.7309875 0 -4.9448853 -2.2138977 -4.9448853 -4.9448853z" fill-rule="evenodd"/><path fill="#ffe599" d="m515.31757 169.4567l0 0c0 -2.7309875 2.2139282 -4.9448853 4.9448853 -4.9448853l0 0c1.3114624 0 2.5692139 0.52098083 3.496582 1.4483185c0.92736816 0.9273529 1.4483032 2.1851044 1.4483032 3.4965668l0 0c0 2.7309875 -2.2138672 4.9448853 -4.9448853 4.9448853l0 0c-2.730957 0 -4.9448853 -2.2138977 -4.9448853 -4.9448853z" fill-rule="evenodd"/><path stroke="#000000" stroke-width="1.0" stroke-linejoin="round" stroke-linecap="butt" d="m515.31757 169.4567l0 0c0 -2.7309875 2.2139282 -4.9448853 4.9448853 -4.9448853l0 0c1.3114624 0 2.5692139 0.52098083 3.496582 1.4483185c0.92736816 0.9273529 1.4483032 2.1851044 1.4483032 3.4965668l0 0c0 2.7309875 -2.2138672 4.9448853 -4.9448853 4.9448853l0 0c-2.730957 0 -4.9448853 -2.2138977 -4.9448853 -4.9448853z" fill-rule="evenodd"/><path fill="#ffe599" d="m451.3176 201.4567l0 0c0 -2.7309875 2.2138977 -4.9448853 4.9448853 -4.9448853l0 0c1.3114624 0 2.5692139 0.52098083 3.4965515 1.4483185c0.92733765 0.9273529 1.4483032 2.1851044 1.4483032 3.4965668l0 0c0 2.7309875 -2.2138977 4.9448853 -4.9448547 4.9448853l0 0c-2.7309875 0 -4.9448853 -2.2138977 -4.9448853 -4.9448853z" fill-rule="evenodd"/><path stroke="#000000" stroke-width="1.0" stroke-linejoin="round" stroke-linecap="butt" d="m451.3176 201.4567l0 0c0 -2.7309875 2.2138977 -4.9448853 4.9448853 -4.9448853l0 0c1.3114624 0 2.5692139 0.52098083 3.4965515 1.4483185c0.92733765 0.9273529 1.4483032 2.1851044 1.4483032 3.4965668l0 0c0 2.7309875 -2.2138977 4.9448853 -4.9448547 4.9448853l0 0c-2.7309875 0 -4.9448853 -2.2138977 -4.9448853 -4.9448853z" fill-rule="evenodd"/><path fill="#000000" fill-opacity="0.0" d="m-8.359604 742.7087l499.0551 -810.07874" fill-rule="evenodd"/><path stroke="#000000" stroke-width="1.0" stroke-linejoin="round" stroke-linecap="butt" d="m-8.359604 742.7087l499.0551 -810.07874" fill-rule="evenodd"/><path fill="#000000" fill-opacity="0.0" d="m145.6404 278.8347l191.05513 117.66928" fill-rule="evenodd"/><path stroke="#000000" stroke-width="1.0" stroke-linejoin="round" stroke-linecap="butt" stroke-dasharray="4.0,3.0" d="m150.74919 281.98117l180.83754 111.37637" fill-rule="evenodd"/><path fill="#000000" stroke="#000000" stroke-width="1.0" stroke-linecap="butt" d="m151.61537 280.57477l-4.7302094 -0.9734497l2.9978485 3.7862244z" fill-rule="evenodd"/><path fill="#000000" stroke="#000000" stroke-width="1.0" stroke-linecap="butt" d="m330.72055 394.76392l4.730194 0.9734192l-2.9978333 -3.7862244z" fill-rule="evenodd"/><path fill="#000000" fill-opacity="0.0" d="m81.44095 30.73491l177.35434 0l0 30.740158l-177.35434 0z" fill-rule="evenodd"/><path fill="#000000" d="m104.07538 48.72811l1.65625 -0.140625q0.125 1.0 0.546875 1.640625q0.4375 0.640625 1.34375 1.046875q0.921875 0.390625 2.0625 0.390625q1.0 0 1.78125 -0.296875q0.78125 -0.296875 1.15625 -0.8125q0.375 -0.53125 0.375 -1.15625q0 -0.625 -0.375 -1.09375q-0.359375 -0.46875 -1.1875 -0.796875q-0.546875 -0.203125 -2.390625 -0.640625q-1.828125 -0.453125 -2.5625 -0.84375q-0.96875 -0.5 -1.4375 -1.234375q-0.46875 -0.75 -0.46875 -1.671875q0 -1.0 0.578125 -1.875q0.578125 -0.890625 1.671875 -1.34375q1.109375 -0.453125 2.453125 -0.453125q1.484375 0 2.609375 0.484375q1.140625 0.46875 1.75 1.40625q0.609375 0.921875 0.65625 2.09375l-1.6875 0.125q-0.140625 -1.265625 -0.9375 -1.90625q-0.78125 -0.65625 -2.3125 -0.65625q-1.609375 0 -2.34375 0.59375q-0.734375 0.59375 -0.734375 1.421875q0 0.71875 0.53125 1.171875q0.5 0.46875 2.65625 0.96875q2.15625 0.484375 2.953125 0.84375q1.171875 0.53125 1.71875 1.359375q0.5625 0.828125 0.5625 1.90625q0 1.0625 -0.609375 2.015625q-0.609375 0.9375 -1.75 1.46875q-1.140625 0.515625 -2.578125 0.515625q-1.8125 0 -3.046875 -0.53125q-1.21875 -0.53125 -1.921875 -1.59375q-0.6875 -1.0625 -0.71875 -2.40625zm19.162323 4.296875l0 -1.421875q-1.125 1.640625 -3.0625 1.640625q-0.859375 0 -1.609375 -0.328125q-0.734375 -0.328125 -1.09375 -0.828125q-0.359375 -0.5 -0.5 -1.21875q-0.109375 -0.46875 -0.109375 -1.53125l0 -5.984375l1.640625 0l0 5.359375q0 1.28125 0.109375 1.734375q0.15625 0.640625 0.65625 1.015625q0.5 0.375 1.234375 0.375q0.734375 0 1.375 -0.375q0.65625 -0.390625 0.921875 -1.03125q0.265625 -0.65625 0.265625 -1.890625l0 -5.1875l1.640625 0l0 9.671875l-1.46875 0zm4.047592 3.703125l0 -13.375l1.484375 0l0 1.25q0.53125 -0.734375 1.1875 -1.09375q0.671875 -0.375 1.625 -0.375q1.234375 0 2.171875 0.640625q0.953125 0.625 1.4375 1.796875q0.484375 1.15625 0.484375 2.546875q0 1.484375 -0.53125 2.671875q-0.53125 1.1875 -1.546875 1.828125q-1.015625 0.625 -2.140625 0.625q-0.8125 0 -1.46875 -0.34375q-0.65625 -0.34375 -1.0625 -0.875l0 4.703125l-1.640625 0zm1.484375 -8.484375q0 1.859375 0.75 2.765625q0.765625 0.890625 1.828125 0.890625q1.09375 0 1.875 -0.921875q0.78125 -0.9375 0.78125 -2.875q0 -1.84375 -0.765625 -2.765625q-0.75 -0.921875 -1.8125 -0.921875q-1.046875 0 -1.859375 0.984375q-0.796875 0.96875 -0.796875 2.84375zm8.891342 8.484375l0 -13.375l1.484375 0l0 1.25q0.53125 -0.734375 1.1875 -1.09375q0.671875 -0.375 1.625 -0.375q1.234375 0 2.171875 0.640625q0.953125 0.625 1.4375 1.796875q0.484375 1.15625 0.484375 2.546875q0 1.484375 -0.53125 2.671875q-0.53125 1.1875 -1.546875 1.828125q-1.015625 0.625 -2.140625 0.625q-0.8125 0 -1.46875 -0.34375q-0.65625 -0.34375 -1.0625 -0.875l0 4.703125l-1.640625 0zm1.484375 -8.484375q0 1.859375 0.75 2.765625q0.765625 0.890625 1.828125 0.890625q1.09375 0 1.875 -0.921875q0.78125 -0.9375 0.78125 -2.875q0 -1.84375 -0.765625 -2.765625q-0.75 -0.921875 -1.8125 -0.921875q-1.046875 0 -1.859375 0.984375q-0.796875 0.96875 -0.796875 2.84375zm8.281967 -0.0625q0 -2.6875 1.484375 -3.96875q1.25 -1.078125 3.046875 -1.078125q2.0 0 3.265625 1.3125q1.265625 1.296875 1.265625 3.609375q0 1.859375 -0.5625 2.9375q-0.5625 1.0625 -1.640625 1.65625q-1.0625 0.59375 -2.328125 0.59375q-2.03125 0 -3.28125 -1.296875q-1.25 -1.3125 -1.25 -3.765625zm1.6875 0q0 1.859375 0.796875 2.796875q0.8125 0.921875 2.046875 0.921875q1.21875 0 2.03125 -0.921875q0.8125 -0.9375 0.8125 -2.84375q0 -1.796875 -0.8125 -2.71875q-0.8125 -0.921875 -2.03125 -0.921875q-1.234375 0 -2.046875 0.921875q-0.796875 0.90625 -0.796875 2.765625zm9.281967 4.84375l0 -9.671875l1.46875 0l0 1.46875q0.5625 -1.03125 1.03125 -1.359375q0.484375 -0.328125 1.0625 -0.328125q0.828125 0 1.6875 0.53125l-0.5625 1.515625q-0.609375 -0.359375 -1.203125 -0.359375q-0.546875 0 -0.96875 0.328125q-0.421875 0.328125 -0.609375 0.890625q-0.28125 0.875 -0.28125 1.921875l0 5.0625l-1.625 0zm9.806427 -1.46875l0.234375 1.453125q-0.6875 0.140625 -1.234375 0.140625q-0.890625 0 -1.390625 -0.28125q-0.484375 -0.28125 -0.6875 -0.734375q-0.203125 -0.46875 -0.203125 -1.9375l0 -5.578125l-1.203125 0l0 -1.265625l1.203125 0l0 -2.390625l1.625 -0.984375l0 3.375l1.65625 0l0 1.265625l-1.65625 0l0 5.671875q0 0.6875 0.078125 0.890625q0.09375 0.203125 0.28125 0.328125q0.203125 0.109375 0.578125 0.109375q0.265625 0 0.71875 -0.0625zm10.804108 1.46875l-5.171875 -13.359375l1.921875 0l3.46875 9.703125q0.421875 1.171875 0.703125 2.1875q0.3125 -1.09375 0.71875 -2.1875l3.609375 -9.703125l1.796875 0l-5.234375 13.359375l-1.8125 0zm15.052948 -3.109375l1.6875 0.203125q-0.40625 1.484375 -1.484375 2.3125q-1.078125 0.8125 -2.765625 0.8125q-2.125 0 -3.375 -1.296875q-1.234375 -1.3125 -1.234375 -3.671875q0 -2.453125 1.25 -3.796875q1.265625 -1.34375 3.265625 -1.34375q1.9375 0 3.15625 1.328125q1.234375 1.3125 1.234375 3.703125q0 0.15625 0 0.4375l-7.21875 0q0.09375 1.59375 0.90625 2.453125q0.8125 0.84375 2.015625 0.84375q0.90625 0 1.546875 -0.46875q0.640625 -0.484375 1.015625 -1.515625zm-5.390625 -2.65625l5.40625 0q-0.109375 -1.21875 -0.625 -1.828125q-0.78125 -0.953125 -2.03125 -0.953125q-1.125 0 -1.90625 0.765625q-0.765625 0.75 -0.84375 2.015625zm15.453842 2.21875l1.609375 0.21875q-0.265625 1.65625 -1.359375 2.609375q-1.078125 0.9375 -2.671875 0.9375q-1.984375 0 -3.1875 -1.296875q-1.203125 -1.296875 -1.203125 -3.71875q0 -1.578125 0.515625 -2.75q0.515625 -1.171875 1.578125 -1.75q1.0625 -0.59375 2.3125 -0.59375q1.578125 0 2.578125 0.796875q1.0 0.796875 1.28125 2.265625l-1.59375 0.234375q-0.234375 -0.96875 -0.8125 -1.453125q-0.578125 -0.5 -1.390625 -0.5q-1.234375 0 -2.015625 0.890625q-0.78125 0.890625 -0.78125 2.8125q0 1.953125 0.75 2.84375q0.75 0.875 1.953125 0.875q0.96875 0 1.609375 -0.59375q0.65625 -0.59375 0.828125 -1.828125zm6.59375 2.078125l0.234375 1.453125q-0.6875 0.140625 -1.234375 0.140625q-0.890625 0 -1.390625 -0.28125q-0.484375 -0.28125 -0.6875 -0.734375q-0.203125 -0.46875 -0.203125 -1.9375l0 -5.578125l-1.203125 0l0 -1.265625l1.203125 0l0 -2.390625l1.625 -0.984375l0 3.375l1.65625 0l0 1.265625l-1.65625 0l0 5.671875q0 0.6875 0.078125 0.890625q0.09375 0.203125 0.28125 0.328125q0.203125 0.109375 0.578125 0.109375q0.265625 0 0.71875 -0.0625zm0.99580383 -3.375q0 -2.6875 1.484375 -3.96875q1.25 -1.078125 3.046875 -1.078125q2.0 0 3.265625 1.3125q1.265625 1.296875 1.265625 3.609375q0 1.859375 -0.5625 2.9375q-0.5625 1.0625 -1.640625 1.65625q-1.0625 0.59375 -2.328125 0.59375q-2.03125 0 -3.28125 -1.296875q-1.25 -1.3125 -1.25 -3.765625zm1.6875 0q0 1.859375 0.796875 2.796875q0.8125 0.921875 2.046875 0.921875q1.21875 0 2.03125 -0.921875q0.8125 -0.9375 0.8125 -2.84375q0 -1.796875 -0.8125 -2.71875q-0.8125 -0.921875 -2.03125 -0.921875q-1.234375 0 -2.046875 0.921875q-0.796875 0.90625 -0.796875 2.765625zm9.281967 4.84375l0 -9.671875l1.46875 0l0 1.46875q0.5625 -1.03125 1.03125 -1.359375q0.484375 -0.328125 1.0625 -0.328125q0.828125 0 1.6875 0.53125l-0.5625 1.515625q-0.609375 -0.359375 -1.203125 -0.359375q-0.546875 0 -0.96875 0.328125q-0.421875 0.328125 -0.609375 0.890625q-0.28125 0.875 -0.28125 1.921875l0 5.0625l-1.625 0zm5.572052 -2.890625l1.625 -0.25q0.125 0.96875 0.75 1.5q0.625 0.515625 1.75 0.515625q1.125 0 1.671875 -0.453125q0.546875 -0.46875 0.546875 -1.09375q0 -0.546875 -0.484375 -0.875q-0.328125 -0.21875 -1.671875 -0.546875q-1.8125 -0.46875 -2.515625 -0.796875q-0.6875 -0.328125 -1.046875 -0.90625q-0.359375 -0.59375 -0.359375 -1.3125q0 -0.640625 0.296875 -1.1875q0.296875 -0.5625 0.8125 -0.921875q0.375 -0.28125 1.03125 -0.46875q0.671875 -0.203125 1.421875 -0.203125q1.140625 0 2.0 0.328125q0.859375 0.328125 1.265625 0.890625q0.421875 0.5625 0.578125 1.5l-1.609375 0.21875q-0.109375 -0.75 -0.640625 -1.171875q-0.515625 -0.421875 -1.46875 -0.421875q-1.140625 0 -1.625 0.375q-0.46875 0.375 -0.46875 0.875q0 0.3125 0.1875 0.578125q0.203125 0.265625 0.640625 0.4375q0.234375 0.09375 1.4375 0.421875q1.75 0.453125 2.4375 0.75q0.6875 0.296875 1.078125 0.859375q0.390625 0.5625 0.390625 1.40625q0 0.828125 -0.484375 1.546875q-0.46875 0.71875 -1.375 1.125q-0.90625 0.390625 -2.046875 0.390625q-1.875 0 -2.875 -0.78125q-0.984375 -0.78125 -1.25 -2.328125z" fill-rule="nonzero"/><path fill="#000000" fill-opacity="0.0" d="m170.1181 61.475067l313.19687 91.968506" fill-rule="evenodd"/><path stroke="#000000" stroke-width="1.0" stroke-linejoin="round" stroke-linecap="butt" d="m170.1181 61.475067l307.43994 90.278015" fill-rule="evenodd"/><path fill="#000000" stroke="#000000" stroke-width="1.0" stroke-linecap="butt" d="m477.09265 153.33789l4.819641 -0.30621338l-3.8888855 -2.8634186z" fill-rule="evenodd"/><path fill="#000000" fill-opacity="0.0" d="m170.1181 61.475067l281.19687 139.9685" fill-rule="evenodd"/><path stroke="#000000" stroke-width="1.0" stroke-linejoin="round" stroke-linecap="butt" d="m170.1181 61.475067l275.8255 137.29485" fill-rule="evenodd"/><path fill="#000000" stroke="#000000" stroke-width="1.0" stroke-linecap="butt" d="m445.20758 200.2486l4.798645 0.5435333l-3.3265991 -3.500885z" fill-rule="evenodd"/><path fill="#000000" fill-opacity="0.0" d="m170.1181 61.475067l39.149612 106.01575" fill-rule="evenodd"/><path stroke="#000000" stroke-width="1.0" stroke-linejoin="round" stroke-linecap="butt" d="m170.1181 61.475067l37.07112 100.38727" fill-rule="evenodd"/><path fill="#000000" stroke="#000000" stroke-width="1.0" stroke-linecap="butt" d="m205.63977 162.43451l3.121521 3.6849213l-0.022613525 -4.8292847z" fill-rule="evenodd"/></g></svg>