<svg version="1.1" viewBox="0.0 0.0 648.0944881889764 256.83989501312334" fill="none" stroke="none" stroke-linecap="square" stroke-miterlimit="10" xmlns:xlink="http://www.w3.org/1999/xlink" xmlns="http://www.w3.org/2000/svg"><clipPath id="p.0"><path d="m0 0l648.0945 0l0 256.8399l-648.0945 0l0 -256.8399z" clip-rule="nonzero"/></clipPath><g clip-path="url(#p.0)"><path fill="#000000" fill-opacity="0.0" d="m0 0l648.0945 0l0 256.8399l-648.0945 0z" fill-rule="evenodd"/><path fill="#000000" fill-opacity="0.0" d="m1.9212599 68.583725l644.25195 0l0 78.29921l-644.25195 0z" fill-rule="evenodd"/><path fill="#000000" fill-opacity="0.0" d="m1.9212599 107.73333l644.25195 0" fill-rule="evenodd"/><path stroke="#000000" stroke-width="1.0" stroke-linejoin="round" stroke-linecap="butt" d="m7.92126 107.73333l632.25195 0" fill-rule="evenodd"/><path fill="#000000" stroke="#000000" stroke-width="1.0" stroke-linecap="butt" d="m7.9212594 106.0816l-4.5380974 1.6517334l4.5380974 1.6517334z" fill-rule="evenodd"/><path fill="#000000" stroke="#000000" stroke-width="1.0" stroke-linecap="butt" d="m640.1732 109.38506l4.538086 -1.6517334l-4.538086 -1.6517334z" fill-rule="evenodd"/><path fill="#000000" fill-opacity="0.0" d="m324.04724 68.583725l0 78.29921" fill-rule="evenodd"/><path stroke="#000000" stroke-width="1.0" stroke-linejoin="round" stroke-linecap="butt" d="m324.04724 68.583725l0 78.29921" fill-rule="evenodd"/><path fill="#000000" fill-opacity="0.0" d="m302.06274 146.87035l42.48819 0l0 41.38582l-42.48819 0z" fill-rule="evenodd"/><path fill="#000000" d="m318.90024 167.88951q0 -2.359375 0.484375 -3.796875q0.484375 -1.453125 1.4375 -2.234375q0.96875 -0.78125 2.421875 -0.78125q1.078125 0 1.890625 0.4375q0.8125 0.421875 1.328125 1.25q0.53125 0.8125 0.828125 1.984375q0.3125 1.15625 0.3125 3.140625q0 2.359375 -0.484375 3.8125q-0.484375 1.4375 -1.453125 2.234375q-0.953125 0.78125 -2.421875 0.78125q-1.921875 0 -3.03125 -1.390625q-1.3125 -1.671875 -1.3125 -5.4375zm1.671875 0q0 3.296875 0.765625 4.390625q0.78125 1.078125 1.90625 1.078125q1.140625 0 1.90625 -1.09375q0.765625 -1.09375 0.765625 -4.375q0 -3.296875 -0.765625 -4.375q-0.765625 -1.078125 -1.921875 -1.078125q-1.125 0 -1.796875 0.953125q-0.859375 1.21875 -0.859375 4.5z" fill-rule="nonzero"/><path fill="#ff0000" d="m267.0146 107.727356l0 0c0 -5.55764 4.505371 -10.062996 10.062988 -10.062996l0 0c2.6688843 0 5.2284546 1.0602112 7.115631 2.9473877c1.8871765 1.8871765 2.9473572 4.446739 2.9473572 7.115608l0 0c0 5.55764 -4.5053406 10.062988 -10.062988 10.062988l0 0c-5.557617 0 -10.062988 -4.505348 -10.062988 -10.062988z" fill-rule="evenodd"/><path stroke="#000000" stroke-width="1.0" stroke-linejoin="round" stroke-linecap="butt" d="m267.0146 107.727356l0 0c0 -5.55764 4.505371 -10.062996 10.062988 -10.062996l0 0c2.6688843 0 5.2284546 1.0602112 7.115631 2.9473877c1.8871765 1.8871765 2.9473572 4.446739 2.9473572 7.115608l0 0c0 5.55764 -4.5053406 10.062988 -10.062988 10.062988l0 0c-5.557617 0 -10.062988 -4.505348 -10.062988 -10.062988z" fill-rule="evenodd"/><path fill="#ff0000" d="m179.29657 107.727356l0 0c0 -5.55764 4.505356 -10.062996 10.062988 -10.062996l0 0c2.668869 0 5.228424 1.0602112 7.1156006 2.9473877c1.8871765 1.8871765 2.9473877 4.446739 2.9473877 7.115608l0 0c0 5.55764 -4.505356 10.062988 -10.062988 10.062988l0 0c-5.5576324 0 -10.062988 -4.505348 -10.062988 -10.062988z" fill-rule="evenodd"/><path stroke="#000000" stroke-width="1.0" stroke-linejoin="round" stroke-linecap="butt" d="m179.29657 107.727356l0 0c0 -5.55764 4.505356 -10.062996 10.062988 -10.062996l0 0c2.668869 0 5.228424 1.0602112 7.1156006 2.9473877c1.8871765 1.8871765 2.9473877 4.446739 2.9473877 7.115608l0 0c0 5.55764 -4.505356 10.062988 -10.062988 10.062988l0 0c-5.5576324 0 -10.062988 -4.505348 -10.062988 -10.062988z" fill-rule="evenodd"/><path fill="#ff0000" d="m374.5691 107.727356l0 0c0 -5.55764 4.5053406 -10.062996 10.062988 -10.062996l0 0c2.6688538 0 5.228424 1.0602112 7.1156006 2.9473877c1.8871765 1.8871765 2.9473877 4.446739 2.9473877 7.115608l0 0c0 5.55764 -4.5053406 10.062988 -10.062988 10.062988l0 0c-5.5576477 0 -10.062988 -4.505348 -10.062988 -10.062988z" fill-rule="evenodd"/><path stroke="#000000" stroke-width="1.0" stroke-linejoin="round" stroke-linecap="butt" d="m374.5691 107.727356l0 0c0 -5.55764 4.5053406 -10.062996 10.062988 -10.062996l0 0c2.6688538 0 5.228424 1.0602112 7.1156006 2.9473877c1.8871765 1.8871765 2.9473877 4.446739 2.9473877 7.115608l0 0c0 5.55764 -4.5053406 10.062988 -10.062988 10.062988l0 0c-5.5576477 0 -10.062988 -4.505348 -10.062988 -10.062988z" fill-rule="evenodd"/><path fill="#0000ff" d="m128.3145 117.790344l11.637802 -20.125984l11.637787 20.125984z" fill-rule="evenodd"/><path stroke="#000000" stroke-width="1.0" stroke-linejoin="round" stroke-linecap="butt" d="m128.3145 117.790344l11.637802 -20.125984l11.637787 20.125984z" fill-rule="evenodd"/><path fill="#0000ff" d="m407.4747 117.790344l11.637817 -20.125984l11.637787 20.125984z" fill-rule="evenodd"/><path stroke="#000000" stroke-width="1.0" stroke-linejoin="round" stroke-linecap="butt" d="m407.4747 117.790344l11.637817 -20.125984l11.637787 20.125984z" fill-rule="evenodd"/></g></svg>