<svg version="1.1" viewBox="0.0 0.0 649.6089238845144 291.1443569553806" fill="none" stroke="none" stroke-linecap="square" stroke-miterlimit="10" xmlns:xlink="http://www.w3.org/1999/xlink" xmlns="http://www.w3.org/2000/svg"><clipPath id="p.0"><path d="m0 0l649.60895 0l0 291.14435l-649.60895 0l0 -291.14435z" clip-rule="nonzero"/></clipPath><g clip-path="url(#p.0)"><path fill="#000000" fill-opacity="0.0" d="m0 0l649.60895 0l0 291.14435l-649.60895 0z" fill-rule="evenodd"/><path fill="#000000" fill-opacity="0.0" d="m3.0682414 12.871298l644.25195 0l0 161.41733l-644.25195 0z" fill-rule="evenodd"/><path fill="#000000" fill-opacity="0.0" d="m3.0690413 170.12488l644.25195 0l0 78.299225l-644.25195 0z" fill-rule="evenodd"/><path fill="#000000" fill-opacity="0.0" d="m3.0690413 209.27449l644.25195 0" fill-rule="evenodd"/><path stroke="#000000" stroke-width="1.0" stroke-linejoin="round" stroke-linecap="butt" d="m9.069041 209.27449l632.252 0" fill-rule="evenodd"/><path fill="#000000" stroke="#000000" stroke-width="1.0" stroke-linecap="butt" d="m9.069041 207.62276l-4.538098 1.6517334l4.538098 1.6517181z" fill-rule="evenodd"/><path fill="#000000" stroke="#000000" stroke-width="1.0" stroke-linecap="butt" d="m641.32104 210.92621l4.538086 -1.6517181l-4.538086 -1.6517334z" fill-rule="evenodd"/><path fill="#000000" fill-opacity="0.0" d="m325.1942 12.871298l0 235.55907" fill-rule="evenodd"/><path stroke="#000000" stroke-width="1.0" stroke-linejoin="round" stroke-linecap="butt" d="m325.1942 18.871298l0 229.55905" fill-rule="evenodd"/><path fill="#000000" stroke="#000000" stroke-width="1.0" stroke-linecap="butt" d="m326.84595 18.871298l-1.6517334 -4.5380983l-1.6517334 4.5380983z" fill-rule="evenodd"/><path fill="#000000" fill-opacity="0.0" d="m303.21054 248.4115l42.48819 0l0 41.385834l-42.48819 0z" fill-rule="evenodd"/><path fill="#000000" d="m320.04803 269.43066q0 -2.359375 0.484375 -3.796875q0.484375 -1.453125 1.4375 -2.234375q0.96875 -0.78125 2.421875 -0.78125q1.078125 0 1.890625 0.4375q0.8125 0.421875 1.328125 1.25q0.53125 0.8125 0.828125 1.984375q0.3125 1.15625 0.3125 3.140625q0 2.359375 -0.484375 3.8125q-0.484375 1.4375 -1.453125 2.234375q-0.953125 0.78125 -2.421875 0.78125q-1.921875 0 -3.03125 -1.390625q-1.3125 -1.671875 -1.3125 -5.4375zm1.671875 0q0 3.296875 0.765625 4.390625q0.78125 1.078125 1.90625 1.078125q1.140625 0 1.90625 -1.09375q0.765625 -1.09375 0.765625 -4.375q0 -3.296875 -0.765625 -4.375q-0.765625 -1.078125 -1.921875 -1.078125q-1.125 0 -1.796875 0.953125q-0.859375 1.21875 -0.859375 4.5z" fill-rule="nonzero"/><path fill="#ff0000" d="m268.16238 193.26851l0 0c0 -5.5576324 4.5053406 -10.062988 10.062988 -10.062988l0 0c2.6688538 0 5.228424 1.0602112 7.1156006 2.9473877c1.8871765 1.8871765 2.9473877 4.4467316 2.9473877 7.1156006l0 0c0 5.5576477 -4.505371 10.062988 -10.062988 10.062988l0 0c-5.5576477 0 -10.062988 -4.5053406 -10.062988 -10.062988z" fill-rule="evenodd"/><path stroke="#000000" stroke-width="1.0" stroke-linejoin="round" stroke-linecap="butt" d="m268.16238 193.26851l0 0c0 -5.5576324 4.5053406 -10.062988 10.062988 -10.062988l0 0c2.6688538 0 5.228424 1.0602112 7.1156006 2.9473877c1.8871765 1.8871765 2.9473877 4.4467316 2.9473877 7.1156006l0 0c0 5.5576477 -4.505371 10.062988 -10.062988 10.062988l0 0c-5.5576477 0 -10.062988 -4.5053406 -10.062988 -10.062988z" fill-rule="evenodd"/><path fill="#ff0000" d="m180.44435 153.26851l0 0c0 -5.5576324 4.505356 -10.062988 10.062988 -10.062988l0 0c2.668869 0 5.228424 1.0602112 7.1156006 2.9473877c1.8871765 1.8871765 2.9473877 4.4467316 2.9473877 7.1156006l0 0c0 5.5576477 -4.505356 10.062988 -10.062988 10.062988l0 0c-5.5576324 0 -10.062988 -4.5053406 -10.062988 -10.062988z" fill-rule="evenodd"/><path stroke="#000000" stroke-width="1.0" stroke-linejoin="round" stroke-linecap="butt" d="m180.44435 153.26851l0 0c0 -5.5576324 4.505356 -10.062988 10.062988 -10.062988l0 0c2.668869 0 5.228424 1.0602112 7.1156006 2.9473877c1.8871765 1.8871765 2.9473877 4.4467316 2.9473877 7.1156006l0 0c0 5.5576477 -4.505356 10.062988 -10.062988 10.062988l0 0c-5.5576324 0 -10.062988 -4.5053406 -10.062988 -10.062988z" fill-rule="evenodd"/><path fill="#ff0000" d="m375.71686 193.26851l0 0c0 -5.5576324 4.505371 -10.062988 10.062988 -10.062988l0 0c2.6688843 0 5.2284546 1.0602112 7.115631 2.9473877c1.8871765 1.8871765 2.9473572 4.4467316 2.9473572 7.1156006l0 0c0 5.5576477 -4.5053406 10.062988 -10.062988 10.062988l0 0c-5.557617 0 -10.062988 -4.5053406 -10.062988 -10.062988z" fill-rule="evenodd"/><path stroke="#000000" stroke-width="1.0" stroke-linejoin="round" stroke-linecap="butt" d="m375.71686 193.26851l0 0c0 -5.5576324 4.505371 -10.062988 10.062988 -10.062988l0 0c2.6688843 0 5.2284546 1.0602112 7.115631 2.9473877c1.8871765 1.8871765 2.9473572 4.4467316 2.9473572 7.1156006l0 0c0 5.5576477 -4.5053406 10.062988 -10.062988 10.062988l0 0c-5.557617 0 -10.062988 -4.5053406 -10.062988 -10.062988z" fill-rule="evenodd"/><path fill="#0000ff" d="m129.46228 51.331505l11.637802 -20.125984l11.637787 20.125984z" fill-rule="evenodd"/><path stroke="#000000" stroke-width="1.0" stroke-linejoin="round" stroke-linecap="butt" d="m129.46228 51.331505l11.637802 -20.125984l11.637787 20.125984z" fill-rule="evenodd"/><path fill="#0000ff" d="m408.6225 171.3315l11.637787 -20.125977l11.637787 20.125977z" fill-rule="evenodd"/><path stroke="#000000" stroke-width="1.0" stroke-linejoin="round" stroke-linecap="butt" d="m408.6225 171.3315l11.637787 -20.125977l11.637787 20.125977z" fill-rule="evenodd"/><path fill="#000000" fill-opacity="0.0" d="m331.53018 12.871391l35.496063 0l0 26.645668l-35.496063 0z" fill-rule="evenodd"/><path fill="#000000" d="m341.64844 33.114223l3.53125 -5.03125l-3.265625 -4.640625l2.046875 0l1.484375 2.265625q0.421875 0.640625 0.671875 1.078125q0.40625 -0.59375 0.734375 -1.0625l1.640625 -2.28125l1.953125 0l-3.34375 4.546875l3.59375 5.125l-2.015625 0l-1.984375 -3.0l-0.515625 -0.8125l-2.546875 3.8125l-1.984375 0zm9.421875 -6.671875q0.046875 -0.53125 0.421875 -1.046875q0.578125 -0.78125 1.890625 -1.734375q1.3125 -0.953125 1.546875 -1.21875q0.34375 -0.375 0.34375 -0.765625q0 -0.4375 -0.328125 -0.71875q-0.3125 -0.28125 -0.9375 -0.28125q-0.59375 0 -0.890625 0.21875q-0.296875 0.203125 -0.484375 0.8125l-1.375 -0.140625q0.265625 -1.015625 0.90625 -1.484375q0.65625 -0.484375 1.875 -0.484375q1.375 0 2.015625 0.546875q0.640625 0.53125 0.640625 1.296875q0 0.765625 -0.53125 1.453125q-0.40625 0.515625 -1.859375 1.5625q-0.765625 0.546875 -1.078125 0.875l3.515625 0l0 1.109375l-5.671875 0z" fill-rule="nonzero"/><path fill="#000000" fill-opacity="0.0" d="m75.00525 32.842518l458.45667 208.59843" fill-rule="evenodd"/><path stroke="#000000" stroke-width="1.0" stroke-linejoin="round" stroke-linecap="butt" stroke-dasharray="4.0,3.0" d="m75.00525 32.842518l458.45667 208.59843" fill-rule="evenodd"/></g></svg>