<svg version="1.1" viewBox="0.0 0.0 960.0 720.0" fill="none" stroke="none" stroke-linecap="square" stroke-miterlimit="10" xmlns:xlink="http://www.w3.org/1999/xlink" xmlns="http://www.w3.org/2000/svg"><clipPath id="p.0"><path d="m0 0l960.0 0l0 720.0l-960.0 0l0 -720.0z" clip-rule="nonzero"/></clipPath><g clip-path="url(#p.0)"><path fill="#000000" fill-opacity="0.0" d="m0 0l960.0 0l0 720.0l-960.0 0z" fill-rule="evenodd"/><path fill="#000000" fill-opacity="0.0" d="m20.853018 45.0l74.64567 0l0 637.6693l-74.64567 0z" fill-rule="evenodd"/><path fill="#000000" fill-opacity="0.0" d="m800.7559 45.0l74.64563 0l0 637.6693l-74.64563 0z" fill-rule="evenodd"/><path fill="#000000" fill-opacity="0.0" d="m58.175854 682.6693l0 -637.6693" fill-rule="evenodd"/><path stroke="#000000" stroke-width="3.0" stroke-linejoin="round" stroke-linecap="butt" d="m58.175854 682.6693l0 -619.6693" fill-rule="evenodd"/><path fill="#000000" stroke="#000000" stroke-width="3.0" stroke-linecap="butt" d="m63.13105 63.0l-4.9551964 -13.614292l-4.9551964 13.614292z" fill-rule="evenodd"/><path fill="#000000" fill-opacity="0.0" d="m58.175854 682.6693l779.9055 0" fill-rule="evenodd"/><path stroke="#000000" stroke-width="3.0" stroke-linejoin="round" stroke-linecap="butt" d="m58.175854 682.6693l761.9055 0" fill-rule="evenodd"/><path fill="#000000" stroke="#000000" stroke-width="3.0" stroke-linecap="butt" d="m820.08136 687.6245l13.614319 -4.9552l-13.614319 -4.9552z" fill-rule="evenodd"/><path fill="#ffe599" d="m128.4147 190.43307l0 0c0 -2.7309875 2.2138977 -4.9448853 4.94487 -4.9448853l0 0c1.3114777 0 2.5692139 0.52098083 3.4965668 1.4483185c0.92733765 0.9273529 1.4483185 2.1851044 1.4483185 3.4965668l0 0c0 2.7309723 -2.2138977 4.9448853 -4.9448853 4.9448853l0 0c-2.7309723 0 -4.94487 -2.213913 -4.94487 -4.9448853z" fill-rule="evenodd"/><path stroke="#000000" stroke-width="1.0" stroke-linejoin="round" stroke-linecap="butt" d="m128.4147 190.43307l0 0c0 -2.7309875 2.2138977 -4.9448853 4.94487 -4.9448853l0 0c1.3114777 0 2.5692139 0.52098083 3.4965668 1.4483185c0.92733765 0.9273529 1.4483185 2.1851044 1.4483185 3.4965668l0 0c0 2.7309723 -2.2138977 4.9448853 -4.9448853 4.9448853l0 0c-2.7309723 0 -4.94487 -2.213913 -4.94487 -4.9448853z" fill-rule="evenodd"/><path fill="#ffe599" d="m165.17323 162.53018l0 0c0 -2.7309875 2.2138977 -4.9448853 4.94487 -4.9448853l0 0c1.3114777 0 2.5692139 0.52098083 3.4965668 1.4483337c0.92733765 0.92733765 1.4483185 2.185089 1.4483185 3.4965515l0 0c0 2.7309875 -2.2138977 4.9448853 -4.9448853 4.9448853l0 0c-2.7309723 0 -4.94487 -2.2138977 -4.94487 -4.9448853z" fill-rule="evenodd"/><path stroke="#000000" stroke-width="1.0" stroke-linejoin="round" stroke-linecap="butt" d="m165.17323 162.53018l0 0c0 -2.7309875 2.2138977 -4.9448853 4.94487 -4.9448853l0 0c1.3114777 0 2.5692139 0.52098083 3.4965668 1.4483337c0.92733765 0.92733765 1.4483185 2.185089 1.4483185 3.4965515l0 0c0 2.7309875 -2.2138977 4.9448853 -4.9448853 4.9448853l0 0c-2.7309723 0 -4.94487 -2.2138977 -4.94487 -4.9448853z" fill-rule="evenodd"/><path fill="#ffe599" d="m204.31758 172.41995l0 0c0 -2.7309875 2.2138977 -4.9448853 4.9448853 -4.9448853l0 0c1.3114624 0 2.5692139 0.52098083 3.4965668 1.4483185c0.92733765 0.9273529 1.4483185 2.1851044 1.4483185 3.4965668l0 0c0 2.7309723 -2.2138977 4.94487 -4.9448853 4.94487l0 0c-2.7309875 0 -4.9448853 -2.2138977 -4.9448853 -4.94487z" fill-rule="evenodd"/><path stroke="#000000" stroke-width="1.0" stroke-linejoin="round" stroke-linecap="butt" d="m204.31758 172.41995l0 0c0 -2.7309875 2.2138977 -4.9448853 4.9448853 -4.9448853l0 0c1.3114624 0 2.5692139 0.52098083 3.4965668 1.4483185c0.92733765 0.9273529 1.4483185 2.1851044 1.4483185 3.4965668l0 0c0 2.7309723 -2.2138977 4.94487 -4.9448853 4.94487l0 0c-2.7309875 0 -4.9448853 -2.2138977 -4.9448853 -4.94487z" fill-rule="evenodd"/><path fill="#ffe599" d="m179.70866 200.32283l0 0c0 -2.7309723 2.2138977 -4.94487 4.9448853 -4.94487l0 0c1.3114624 0 2.5692139 0.5209656 3.4965515 1.4483185c0.9273529 0.92733765 1.4483185 2.185089 1.4483185 3.4965515l0 0c0 2.7309875 -2.2138977 4.9448853 -4.94487 4.9448853l0 0c-2.7309875 0 -4.9448853 -2.2138977 -4.9448853 -4.9448853z" fill-rule="evenodd"/><path stroke="#000000" stroke-width="1.0" stroke-linejoin="round" stroke-linecap="butt" d="m179.70866 200.32283l0 0c0 -2.7309723 2.2138977 -4.94487 4.9448853 -4.94487l0 0c1.3114624 0 2.5692139 0.5209656 3.4965515 1.4483185c0.9273529 0.92733765 1.4483185 2.185089 1.4483185 3.4965515l0 0c0 2.7309875 -2.2138977 4.9448853 -4.94487 4.9448853l0 0c-2.7309875 0 -4.9448853 -2.2138977 -4.9448853 -4.9448853z" fill-rule="evenodd"/><path fill="#ffe599" d="m483.3176 153.4567l0 0c0 -2.7309875 2.2138977 -4.9448853 4.9448853 -4.9448853l0 0c1.3114624 0 2.5692139 0.52098083 3.4965515 1.4483185c0.92733765 0.9273529 1.4483032 2.1851044 1.4483032 3.4965668l0 0c0 2.7309875 -2.2138977 4.9448853 -4.9448547 4.9448853l0 0c-2.7309875 0 -4.9448853 -2.2138977 -4.9448853 -4.9448853z" fill-rule="evenodd"/><path stroke="#000000" stroke-width="1.0" stroke-linejoin="round" stroke-linecap="butt" d="m483.3176 153.4567l0 0c0 -2.7309875 2.2138977 -4.9448853 4.9448853 -4.9448853l0 0c1.3114624 0 2.5692139 0.52098083 3.4965515 1.4483185c0.92733765 0.9273529 1.4483032 2.1851044 1.4483032 3.4965668l0 0c0 2.7309875 -2.2138977 4.9448853 -4.9448547 4.9448853l0 0c-2.7309875 0 -4.9448853 -2.2138977 -4.9448853 -4.9448853z" fill-rule="evenodd"/><path fill="#ffe599" d="m515.31757 169.4567l0 0c0 -2.7309875 2.2139282 -4.9448853 4.9448853 -4.9448853l0 0c1.3114624 0 2.5692139 0.52098083 3.496582 1.4483185c0.92736816 0.9273529 1.4483032 2.1851044 1.4483032 3.4965668l0 0c0 2.7309875 -2.2138672 4.9448853 -4.9448853 4.9448853l0 0c-2.730957 0 -4.9448853 -2.2138977 -4.9448853 -4.9448853z" fill-rule="evenodd"/><path stroke="#000000" stroke-width="1.0" stroke-linejoin="round" stroke-linecap="butt" d="m515.31757 169.4567l0 0c0 -2.7309875 2.2139282 -4.9448853 4.9448853 -4.9448853l0 0c1.3114624 0 2.5692139 0.52098083 3.496582 1.4483185c0.92736816 0.9273529 1.4483032 2.1851044 1.4483032 3.4965668l0 0c0 2.7309875 -2.2138672 4.9448853 -4.9448853 4.9448853l0 0c-2.730957 0 -4.9448853 -2.2138977 -4.9448853 -4.9448853z" fill-rule="evenodd"/><path fill="#ffe599" d="m451.3176 201.4567l0 0c0 -2.7309875 2.2138977 -4.9448853 4.9448853 -4.9448853l0 0c1.3114624 0 2.5692139 0.52098083 3.4965515 1.4483185c0.92733765 0.9273529 1.4483032 2.1851044 1.4483032 3.4965668l0 0c0 2.7309875 -2.2138977 4.9448853 -4.9448547 4.9448853l0 0c-2.7309875 0 -4.9448853 -2.2138977 -4.9448853 -4.9448853z" fill-rule="evenodd"/><path stroke="#000000" stroke-width="1.0" stroke-linejoin="round" stroke-linecap="butt" d="m451.3176 201.4567l0 0c0 -2.7309875 2.2138977 -4.9448853 4.9448853 -4.9448853l0 0c1.3114624 0 2.5692139 0.52098083 3.4965515 1.4483185c0.92733765 0.9273529 1.4483032 2.1851044 1.4483032 3.4965668l0 0c0 2.7309875 -2.2138977 4.9448853 -4.9448547 4.9448853l0 0c-2.7309875 0 -4.9448853 -2.2138977 -4.9448853 -4.9448853z" fill-rule="evenodd"/><path fill="#000000" fill-opacity="0.0" d="m230.48819 42.805775l-5.480316 451.0866" fill-rule="evenodd"/><path stroke="#000000" stroke-width="1.0" stroke-linejoin="round" stroke-linecap="butt" stroke-dasharray="4.0,3.0" d="m230.48819 42.805775l-5.480316 451.0866" fill-rule="evenodd"/><path fill="#000000" fill-opacity="0.0" d="m561.95013 86.70604l-466.4567 171.2126" fill-rule="evenodd"/><path stroke="#000000" stroke-width="1.0" stroke-linejoin="round" stroke-linecap="butt" stroke-dasharray="4.0,3.0" d="m561.95013 86.70604l-466.4567 171.2126" fill-rule="evenodd"/><path fill="#000000" fill-opacity="0.0" d="m120.732285 108.65879l486.2047 163.52756" fill-rule="evenodd"/><path stroke="#000000" stroke-width="1.0" stroke-linejoin="round" stroke-linecap="butt" stroke-dasharray="4.0,3.0" d="m120.732285 108.65879l486.2047 163.52756" fill-rule="evenodd"/><path fill="#000000" fill-opacity="0.0" d="m276.5853 490.60892l268.91336 -464.25195" fill-rule="evenodd"/><path stroke="#000000" stroke-width="1.0" stroke-linejoin="round" stroke-linecap="butt" stroke-dasharray="4.0,3.0" d="m276.5853 490.60892l268.91336 -464.25195" fill-rule="evenodd"/><path fill="#000000" fill-opacity="0.0" d="m90.0 486.22046l375.3701 -470.83463" fill-rule="evenodd"/><path stroke="#000000" stroke-width="1.0" stroke-linejoin="round" stroke-linecap="butt" stroke-dasharray="4.0,3.0" d="m90.0 486.22046l375.3701 -470.83463" fill-rule="evenodd"/></g></svg>